<?xml version="1.0" encoding="UTF-8"?>
<svg id="Layer_1" xmlns="http://www.w3.org/2000/svg" version="1.1" viewBox="0 0 126.9 45.4">
  <!-- Generator: Adobe Illustrator 29.0.0, SVG Export Plug-In . SVG Version: 2.1.0 Build 186)  -->
  <defs>
    <style>
      .st0 {
        fill: #f06884;
      }

      .st1 {
        fill: #f6921e;
      }

      .st2 {
        fill: #f79420;
      }

      .st3 {
        fill: #932c61;
      }

      .st4 {
        fill: #363639;
      }

      .st5 {
        fill: #be245d;
      }

      .st6 {
        fill: #fff;
      }

      .st7 {
        fill: #fff249;
      }

      .st8 {
        fill: #6b6b6b;
      }

      .st9 {
        fill: #ec1164;
      }

      .st10 {
        fill: #fff100;
      }

      .st11 {
        fill: #b62174;
      }
    </style>
  </defs>
  <path class="st8" d="M67.3,43c0-.1,0-.3-.2-.4,0,0-.2-.1-.4-.1s-.3,0-.5,0c-.2,0-.4,0-.5,0-.4,0-.7-.2-.8-.5,0-.2-.1-.4-.1-.6,0-.3,0-.5.1-.7,0,0,0-.1.1-.1s0,0,0,0v.2c0,.1,0,.2,0,.3,0,0,0,.1,0,.3,0,.2,0,.3.2.5,0,0,.2,0,.3.1.1,0,.2,0,.3,0,.2,0,.3,0,.4,0,.3,0,.5,0,.7.2,0,0,0,0,0,0v-1.9s0,0,0,0c-.1,0-.3,0-.5.3-.1.1-.2.2-.2.4h0c0,0,.2,0,.2.1,0,0,0,.2,0,.3s0,.2,0,.2c0,0-.1.1-.2.1,0,0-.1,0-.2,0-.2,0-.4,0-.5-.3,0-.1,0-.2,0-.3,0-.4.3-.8.7-1,.2-.1.4-.2.6-.2.1,0,.2,0,.3.2.1.1.2.2.2.3v2.9s-.3-.2-.3-.2Z"/>
  <path class="st8" d="M70,40.3h0c.2,0,.5.2.7.4.2.2.3.4.4.6,0,0,0,.2,0,.2,0,.2,0,.3-.1.4-.1.1-.2.2-.4.2s-.2,0-.3-.1c0,0-.1-.2-.1-.3s0-.2.2-.3c0,0,.1,0,.2,0,.1,0,.2,0,.3.1,0,0,0,0,0,0,0,0,0,0-.2,0,0,0,0,0,0-.1,0-.2,0-.3-.2-.4-.2-.2-.3-.2-.5-.2v2.3s-.2-.2-.2-.2c0-.2-.1-.3-.1-.3,0,0-.1-.2-.2-.3-.1-.1-.2-.2-.3-.3-.2-.1-.5-.2-.7-.2l-.5-.5c.5-.4,1-.7,1.6-.9h0c0-.1-1.7-.1-1.7-.1l-.4-.4h3.8s.4.4.4.4h-1.6ZM69.1,41.2s-.1,0-.3.2c.4.2.7.4.9.7v-1.2c-.2,0-.4.2-.6.3Z"/>
  <path class="st8" d="M73.8,39.3c-.3-.2-.6-.3-1-.3s-.4,0-.7.2c0,0-.1.1-.2.2,0,.1-.1.2-.1.2v.2c0,0,.6,0,.6,0l.4.4h-.8v2.9s-.4-.4-.4-.4v-2.5h-.4s-.4-.4-.4-.4h.8c0,0,0-.1-.1-.2,0,0,0-.1,0-.2,0-.1,0-.2,0-.3.1-.2.2-.3.3-.4s.2-.2.4-.2c.1,0,.2,0,.4,0,.4,0,.8.1,1.2.4.1,0,.3.2.5.5v.4c.1,0-.5-.5-.5-.5Z"/>
  <path class="st8" d="M73,39.1h0s.1,0,.3,0c.4,0,.7,0,.8.1.3.2.4.4.4.7h.3s.4.4.4.4h-2.2v1.8c0,0,0,.1.2.1s.3,0,.5-.3c.2-.2.3-.3.3-.5h0c-.1,0-.2,0-.3-.1,0,0-.1-.2-.1-.3s0,0,0-.1c0-.2.2-.3.4-.3s.3,0,.4.2c.1.1.1.3.1.4,0,.3-.1.6-.3.8-.4.4-.7.6-.9.6-.3,0-.6-.2-.7-.5,0,0,0-.2,0-.4v-1.5h-.4s-.3-.4-.3-.4h2.2s0,0,0-.1c0-.1-.2-.2-.4-.2-.1,0-.3,0-.6,0-.1,0-.2,0-.2,0-.2,0-.4,0-.6-.2-.2-.1-.3-.3-.3-.5s0-.2,0-.3c0,0,0,0,.2,0s0,0,0,0c0,0,0,0,0,.2,0,0,0,0,0,.1,0,.1,0,.2.2.2,0,0,.2,0,.5,0Z"/>
  <path class="st8" d="M78.9,39.3c-.3-.2-.6-.3-1-.3s-.4,0-.7.2c0,0-.1.1-.2.2,0,.1-.1.2-.1.2v.2c0,0,.6,0,.6,0l.4.4h-.8v2.9s-.4-.4-.4-.4v-2.5h-.4s-.4-.4-.4-.4h.8c0,0,0-.1-.1-.2,0,0,0-.1,0-.2,0-.1,0-.2,0-.3.1-.2.2-.3.3-.4s.2-.2.4-.2c.1,0,.2,0,.4,0,.4,0,.8.1,1.2.4.1,0,.3.2.5.5v.4c.1,0-.5-.5-.5-.5Z"/>
  <path class="st8" d="M79.9,40.7v-.3s0-1,0-1l.3.2s0,0,0,0c0,0,0,.2,0,.2h0c0,0,0,0,.2,0,.1,0,.2,0,.2,0l.4.4h-.8v2.9c-.1,0-.3-.2-.4-.4v-1.5c0-.2-.1-.4-.2-.5l-1,1-.5-.2.3-.3s0,0,0-.1c0-.1,0-.2-.1-.2,0,0-.1,0-.3.1,0,0-.1,0-.2,0,0,0-.1-.1-.1-.2s0-.1,0-.2c.3-.4.6-.7,1.1-.7.2,0,.5,0,.7.2.2.1.3.3.4.6ZM78.7,41l.5-.5c-.1,0-.2-.1-.4-.1-.3,0-.4,0-.6.3.2,0,.3.2.4.4Z"/>
  <path class="st8" d="M79.9,43c-.1-.2-.2-.3-.2-.3-.1-.1-.3-.2-.6-.2s-.4,0-.7,0c-.2,0-.3,0-.5,0-.2,0-.3-.2-.4-.3-.1-.2-.2-.3-.2-.6s0-.2,0-.3c0,0,0,0,0-.1,0,0,0,0,0,0s.1,0,.2.2c0,0,0,0,0,.1,0,.2.1.4.3.5,0,0,.3,0,.8,0,.2,0,.5,0,.7.1.2.1.3.2.4.3.1.2.2.3.3.4,0,.1,0,.3,0,.5,0,0-.2-.2-.3-.4Z"/>
  <path class="st8" d="M81.6,41.1s0,0,0,.2c0,.1,0,.2-.1.3,0,0-.2,0-.3,0-.3,0-.4-.1-.4-.4s0-.3.2-.4c.1-.1.3-.2.4-.2s.4.1.6.3v-.6h-1.4s-.4-.4-.4-.4h2s.4.4.4.4h-.2v2s-.4-.4-.4-.4v-.3s0,0,0-.2c0,0-.1-.1-.2-.2,0,0-.1-.1-.2-.1Z"/>
  <path class="st8" d="M82.4,39.1h0s.1,0,.3,0c.4,0,.7,0,.8.1.3.2.4.4.4.7h.3s.4.4.4.4h-2.2v1.8c0,0,0,.1.2.1s.3,0,.5-.3.3-.3.3-.5h0c-.1,0-.2,0-.3-.1,0,0-.1-.2-.1-.3s0,0,0-.1c0-.2.2-.3.4-.3s.3,0,.4.2c.1.1.1.3.1.4,0,.3-.1.6-.3.8-.4.4-.7.6-.9.6-.3,0-.6-.2-.7-.5,0,0,0-.2,0-.4v-1.5h-.4s-.3-.4-.3-.4h2.2s0,0,0-.1c0-.1-.2-.2-.4-.2-.1,0-.3,0-.6,0-.1,0-.2,0-.2,0-.2,0-.4,0-.6-.2-.2-.1-.3-.3-.3-.5s0-.2,0-.3c0,0,0,0,.2,0s0,0,0,0c0,0,0,0,0,.2,0,0,0,0,0,.1,0,.1,0,.2.2.2,0,0,.2,0,.5,0Z"/>
  <path class="st8" d="M88.4,42.6c-.2.1-.4.2-.6.2s-.4,0-.6-.2c-.1,0-.2-.2-.4-.4-.3-.3-.6-1-.9-2.1l.3.2s0,.1,0,.2h0c0,.3.3.6.5,1,0,.2.2.3.4.5.2.1.4.2.6.2s.3,0,.4,0c.1,0,.2-.2.2-.3,0-.1,0-.2-.1-.3,0,0-.2,0-.3,0s-.2,0-.3-.1c0,0-.1-.2-.1-.3s0-.2.1-.3c0,0,.2-.1.3-.1s.2,0,.2,0c.1,0,.2-.1.2-.2,0-.2,0-.3-.3-.3s-.3,0-.4,0c0,0-.1,0-.3.2,0,0,0,0-.1.1.1,0,.2.2.2.4s-.1.3-.4.3-.5-.2-.5-.5c0-.3.2-.6.6-.8.2-.1.5-.2.7-.2s.4,0,.5.1c.2.1.3.3.3.5s0,.2,0,.4c0,.1,0,.3-.1.3.2.2.2.4.2.6s0,.5-.3.6Z"/>
  <path class="st8" d="M93.5,40.3v2.9s-.2-.2-.2-.2c0-.3-.3-.7-.6-1-.2.3-.4.4-.7.4-.4,0-.8-.2-1.1-.7-.3-.4-.4-.8-.5-1.4h.3c.2.6.3.9.4,1.1.2.3.5.5.8.5s.3,0,.3-.1c0,0,.1-.2.1-.3s0-.2,0-.3c0-.1,0-.2-.1-.2,0,.2-.2.3-.4.3s-.3,0-.4-.1c-.1,0-.2-.2-.2-.3s0-.3.2-.3c.1,0,.2-.1.4-.1.3,0,.5.1.7.3.2.2.3.5.3.7h0c0,.1.2.5.2.5v-1.6h-2.7s-.4-.4-.4-.4h3.7s.4.4.4.4h-.6Z"/>
  <path class="st8" d="M94.9,41.2c0,0,.1.2.1.3,0,0,0,0,0,.1,0,.1,0,.2-.1.3,0,0-.2.1-.3.1-.4,0-.6-.2-.6-.6s0-.4.2-.5c.1-.1.3-.2.5-.2.4,0,.7.2,1,.7h0c0,0,0-1.2,0-1.2h-1.9s-.4-.4-.4-.4h3.1s.4.4.4.4h-.8v3.1s-.2-.3-.2-.3h0c0-.2,0-.4-.1-.7,0-.2-.1-.4-.2-.5,0-.1-.2-.3-.3-.4-.1-.1-.3-.2-.4-.2Z"/>
  <path class="st8" d="M99.1,40.3v3s-.4-.4-.4-.4v-1.6c0,0,0-.1-.1-.2s-.1-.1-.2-.1-.1,0-.1,0c0,0,0,.2,0,.3h-.3s0,0,0,0c0-.1-.1-.2-.2-.2,0,0-.2-.1-.4-.1s-.2,0-.3.1c0,0-.1.2-.1.3s0,.3.2.3c0,0,0,0,0-.1,0-.1,0-.2.1-.3,0,0,.2-.1.3-.1.2,0,.3,0,.4.3,0,.2,0,.3,0,.3,0,.2-.2.3-.5.3s-.5,0-.6-.2c-.2-.2-.2-.4-.2-.6s0-.4.2-.6c.1-.2.3-.3.5-.3.2,0,.4,0,.6.2h0s0,0,.2-.1.1,0,.2,0c.1,0,.2,0,.3.1,0,0,0,0,0,.1,0,0,0,0,0,0v-.5h-2.2s-.4-.4-.4-.4h3.4s.4.4.4.4h-.8Z"/>
  <path class="st8" d="M99.9,40.2c0-.3,0-.6,0-.9l.2.2c0,.1,0,.2,0,.3,0,0,0,0,0,0h.4s.4.4.4.4h-.8v3s-.4-.4-.4-.4v-2.1c0-.1,0-.2,0-.3-.1-.2-.3-.2-.4-.2h0s-.4-.4-.4-.4c.3,0,.5,0,.6,0,.2,0,.3.1.4.3Z"/>
  <path class="st8" d="M100.7,38.6c0,0,.1,0,.2,0-.1,0-.2.2-.2.2s0,.1.1.2c0,0,.1,0,.2,0,0,0,.2,0,.4,0,.2,0,.3,0,.4,0,.4,0,.6,0,.8.1.3.2.4.4.4.7h.4s.4.4.4.4h-1.8s0,0,0,0c0,0,.1,0,.3.1.2,0,.3.2.5.4s.2.4.2.6c0,.3-.2.6-.6.7,0,0-.2,0-.2,0,.2.1.4.3.6.4,0,0,.3.2.6.5l.2.6c-.7-.7-1.4-1.2-2.4-1.4l-.4-.9c.3.2.7.3,1,.3s.4,0,.5-.1c0,0,.2-.1.2-.2,0,0,0,0,0-.1,0,0,0,0,0-.1,0-.2-.1-.3-.3-.3s0,0,0,0c0,.1-.1.3-.3.4,0,0-.2.1-.3.1s-.2,0-.3,0c0,0-.1-.1-.1-.2s0-.2,0-.3c0,0,.1-.2.2-.2,0,0,.1,0,.3-.2,0,0,0,0-.1-.1h-.9s-.4-.4-.4-.4h2c0,0,.1,0,.2,0,0,0,0,0,0,0,0,0,0,0,0,0,0,0,0,0-.2,0-.1,0-.2,0-.3,0-.1,0-.3,0-.6,0,0,0-.2,0-.2,0-.2,0-.4,0-.6-.2-.2-.1-.3-.3-.3-.5s0-.2.1-.3c0,0,0,0,.2,0Z"/>
  <path class="st8" d="M104.4,41.2c0,0,.1.2.1.3,0,0,0,0,0,.1,0,.1,0,.2-.1.3,0,0-.2.1-.3.1-.4,0-.6-.2-.6-.6s0-.4.2-.5c.1-.1.3-.2.5-.2.4,0,.7.2,1,.7h0c0,0,0-1.2,0-1.2h-1.9s-.4-.4-.4-.4h3.1s.4.4.4.4h-.8v3.1s-.2-.3-.2-.3h0c0-.2,0-.4-.1-.7,0-.2-.1-.4-.2-.5,0-.1-.2-.3-.3-.4-.1-.1-.3-.2-.4-.2Z"/>
  <path class="st8" d="M110,39.3c-.3-.2-.6-.3-1-.3s-.4,0-.7.2c0,0-.1.1-.2.2,0,.1-.1.2-.1.2v.2c0,0,.6,0,.6,0l.4.4h-.8v2.9s-.4-.4-.4-.4v-2.5h-.4s-.4-.4-.4-.4h.8c0,0,0-.1-.1-.2,0,0,0-.1,0-.2,0-.1,0-.2,0-.3.1-.2.2-.3.3-.4,0,0,.2-.2.4-.2.1,0,.2,0,.4,0,.4,0,.8.1,1.2.4.1,0,.3.2.5.5v.4c.1,0-.5-.5-.5-.5Z"/>
  <path class="st8" d="M108.8,40.5h0c0,0-.1,0-.2-.2h0c0-.1-.4-.5-.4-.5h3.2s.4.4.4.4h-.8v3s-.2-.2-.2-.2c0-.4-.2-.6-.3-.7-.2-.2-.3-.2-.4-.3-.1.2-.3.3-.5.3s-.4,0-.5-.3c0,0,0,0,0-.1,0,0,0,0,0-.1,0-.2,0-.3.2-.4.1,0,.3-.1.5-.1s.1,0,.2,0c0-.2-.1-.3-.3-.5,0,0-.2,0-.4-.1-.2,0-.3,0-.3-.1ZM110.5,40.3h-1.1c.2.2.3.3.4.3.1.1.2.3.3.4,0,.2,0,.4,0,.5,0,0,.2.2.4.4v-1.7Z"/>
  <path class="st8" d="M113.8,39.3c-.3-.2-.6-.3-1-.3s-.4,0-.7.2c0,0-.1.1-.2.2,0,.1-.1.2-.1.2v.2c0,0,.6,0,.6,0l.4.4h-.8v2.9s-.4-.4-.4-.4v-2.5h-.4s-.4-.4-.4-.4h.8c0,0,0-.1-.1-.2,0,0,0-.1,0-.2,0-.1,0-.2,0-.3.1-.2.2-.3.3-.4s.2-.2.4-.2c.1,0,.2,0,.4,0,.4,0,.8.1,1.2.4.1,0,.3.2.5.5v.4c.1,0-.5-.5-.5-.5Z"/>
  <path class="st8" d="M113.9,40.3v1c0,0,.2,0,.3-.2.1,0,.2-.2.2-.3,0,0,0-.1.2-.2.2,0,.3.2.4.4.1.2.2.4.2.6,0,.4-.1.7-.3.9-.2.2-.5.3-.9.3-.3,0-.5-.1-.7-.3-.1-.1-.2-.3-.4-.6-.2-.4-.3-.7-.3-1.1,0,0,0-.2,0-.5l.3.2c0,.3,0,.6.2.9.1.4.3.6.5.7.1.1.3.2.5.2s.5-.1.7-.3c0-.1.1-.2.1-.3s0-.2,0-.3c0,0-.1.1-.2.2-.2.2-.4.3-.6.3s-.4-.1-.5-.4c0,0,0-.4,0-1.1h-1.1s-.4-.4-.4-.4h3.4s.4.4.4.4h-1.9Z"/>
  <path class="st8" d="M117.7,40.3v3s-.2-.2-.2-.2c0-.2-.2-.3-.2-.4,0-.1-.2-.2-.3-.3-.2-.1-.3-.2-.4-.3-.1,0-.3,0-.5,0l-.4-.5c.2-.2.4-.4.6-.5,0,0,.1,0,.3-.2,0,0,0,0,0,0,0,0-.2,0-.5-.1-.2,0-.4-.1-.5-.3l-.4-.4h3.1s.4.4.4.4h-.8ZM116.5,43c-.1,0-.2,0-.3-.1,0,0-.1-.2-.1-.3s0-.2.1-.2c0,0,.1-.1.2-.1s.2,0,.3.1c0,0,.1.2.1.2s0,.2-.1.2c0,0-.1.1-.2.1ZM117.3,40.3h-.8c0,0,.1,0,.2.1,0,0,.2.2.4.5,0,.1-.2.2-.3.3,0,0-.2.2-.3.3.4.1.6.4.9.7v-1.9Z"/>
  <path class="st8" d="M118.5,40.2c0-.3,0-.6,0-.9l.2.2c0,.1,0,.2,0,.3,0,0,0,0,0,0h.4s.4.4.4.4h-.8v3s-.4-.4-.4-.4v-2.1c0-.1,0-.2,0-.3-.1-.2-.3-.2-.4-.2h0s-.4-.4-.4-.4c.3,0,.5,0,.6,0,.2,0,.3.1.4.3Z"/>
  <path class="st9" d="M67.9,33.9s.2.1.3.2c.4.3.9.8.9,1.7,0,.9-.5,1.5-1,1.7.3-.3.7-1.1.7-1.6,0-1.4-1.4-1.9-1.4-1.9,0,0,.9.6.9,1.8,0,1-.8,1.2-.8,2s0,.9.6,1.3c0,0-.2-.4.3-.9.4-.4,1.8-1.1,1.3-2.6,0,0,.3.1.5-.3.2-.4,0-.8,0-.8,0,0,0,.3,0,.4-.1.1-.3,0-.4,0-.3-.1-.6-.9-1.7-1"/>
  <path class="st0" d="M73.1,33.6c.3-1.2-1.3-1.5-1.5-.6,0,.2-.3.9-1,1.2.4-.2.6-.6.4-1-.6,1-2,.2-2.5-.5.4,1.7,4,3,4.6.9"/>
  <path class="st5" d="M65.9,37.2c-.6.1-.4.6-.2.6.2,0,0,.2-.1.4-.1,0-.3.1-.4.2.6-.2,1.2-.6,1.7-1.2.8-1.2.9-2.6,0-3.1,0,0,0,0-.1,0,.6.5.7,1.6.2,2.7-.1.2-.4.4-1.1.6"/>
  <path class="st9" d="M55.9,8c-2.4,3.4,0,6.8,0,6.8,0,0-1.2-2.8.9-5.7,1.7-2.4,3.9-1.5,5.2-3.3.5-.6,1.3-2.3.8-4,0,0-.3,1.3-2.1,1.7-1.6.4-5.9-.4-7.4,4.1-.2-.2-.5-.8-1.5-.1-1.1.7-1.1,2-1.1,2,0,0,.4-.8,1-.9.5,0,.8.3.9.7.4.8-.2,3,2.3,5.1,0,0-.3-.7-.5-1-.4-1.2-1-3.3.6-5.6,1.5-2.2,3.6-2.6,5.2-2.5-1.3.2-3.4,1.4-4.3,2.7"/>
  <path class="st0" d="M47.3,14.6c-.8,2.1,2.1,3,2.6,1.4.2-.3.7-1.5,2-1.9-.7.4-1.1,1-1,1.7,1.3-1.6,3.7,0,4.5,1.4-.4-3.2-6.6-6.3-8.1-2.6"/>
  <path class="st5" d="M61.6,9c.6-.1,1.6-.1,3.4.8,1.5.8,1.9-.4,1.6-.8-.3-.4.3-.7,1.1-.7.4,0,.8.2,1.2.3-1.6-.7-3.7-1-5.9-.5-4.1.9-6.8,3.9-6.2,6.7,0,.1,0,.2,0,.3-.3-2.4,1.6-4.8,4.7-6.1"/>
  <polygon class="st7" points="84.2 35.5 85 31.7 83.4 35.5 79.9 35.5 79.7 31.5 79 35.5 75.3 35.5 78 21.2 82.8 21.2 83 27.5 85.7 21.2 90.6 21.2 87.9 35.5 84.2 35.5"/>
  <path class="st7" d="M89.6,21.9h0M89.6,21.9l-2.4,12.8h-2.2s2.2-10.6,2.2-10.6l-4.5,10.6h-2.3s-.4-10.7-.4-10.7l-1.8,10.7h-2.1s2.4-12.8,2.4-12.8h3.4s.4,9,.4,9l3.9-9h3.4M91.5,20.4h-1.8s-3.4,0-3.4,0h-1s-.4.9-.4.9l-1.2,2.7v-2.2c0,0-.1-1.5-.1-1.5h-1.5s-3.4,0-3.4,0h-1.3s-.2,1.2-.2,1.2l-2.4,12.8-.3,1.8h1.8s2.1,0,2.1,0h1.3s.9,0,.9,0h2.3s1,0,1,0h1.2s2.2,0,2.2,0h1.3s.2-1.2.2-1.2l2.4-12.8.3-1.8ZM89.6,20.4h0s0,0,0,0ZM89.6,23.5h0s0,0,0,0Z"/>
  <path class="st7" d="M93.6,35.7c-1.3,0-2.4-.5-3.3-1.4-.8-.9-1.3-2.1-1.3-3.7,0-1.6.5-3,1.4-4.2,1-1.3,2.3-1.9,4-1.9s2.2.4,3,1.3c.7.8,1.1,2,1.1,3.5,0,.7,0,1.3-.2,1.8v.6c-.1,0-.2,0-.2,0h.3c0,0-.4.9-.4.9-.4,1-1.1,1.8-1.8,2.4-.8.5-1.7.8-2.6.8ZM92.8,31.7c0,.2.1.4.2.5.2.3.4.3.6.3s.6,0,1-.8h-1.8ZM94.9,28.6c0-.2-.1-.4-.2-.6-.1-.2-.3-.2-.5-.2s-.4,0-.7.3c-.1.1-.2.3-.3.4h1.7Z"/>
  <path class="st7" d="M94.5,25.3c1,0,1.8.3,2.4,1,.6.7.9,1.7.9,3s0,1.2-.2,1.6h-5.6v.2c0,.6.2,1.1.5,1.5.3.4.7.6,1.1.6.7,0,1.3-.4,1.7-1.3l2,.4c-.4.9-.9,1.6-1.6,2-.7.4-1.4.7-2.2.7-1.1,0-2-.4-2.7-1.2-.7-.8-1.1-1.8-1.1-3.1s.4-2.7,1.2-3.8c.8-1.1,2-1.6,3.4-1.6M92.2,29.4h3.5s0-.2,0-.2c0-.7-.1-1.2-.4-1.6-.3-.3-.7-.5-1.1-.5s-.9.2-1.2.6c-.4.4-.6,1-.8,1.7M94.5,23.8c-1.9,0-3.5.8-4.6,2.2-1,1.3-1.5,2.9-1.5,4.7,0,1.7.5,3.1,1.5,4.2,1,1.1,2.3,1.7,3.8,1.7,1.1,0,2.2-.3,3.1-.9.9-.6,1.6-1.5,2.1-2.7l.8-1.7h-.4c.1-.6.2-1.2.2-1.9,0-1.7-.4-3-1.3-4-.9-1-2.1-1.5-3.5-1.5Z"/>
  <path class="st7" d="M101.6,35.7c-1.1,0-2-.4-2.6-1.3-.6-.8-1-1.9-1-3.4s.4-3.2,1.3-4.5c.9-1.4,2.1-2.1,3.6-2.1s1.4.2,2,.6l.8-3.9h3.8s-2.8,14.3-2.8,14.3h-3.7s0,0,0,0c-.4.2-.9.2-1.3.2ZM103.1,27.9c-.2,0-.3.1-.5.2-.1,0-.4.4-.6,1.1-.2.6-.3,1.2-.3,1.8s0,.9.3,1.1c.2.2.3.3.5.3s.3,0,.5-.2c.1,0,.4-.3.6-1,.2-.6.3-1.1.3-1.7s-.1-.9-.3-1.2c-.2-.3-.4-.3-.5-.3Z"/>
  <path class="st7" d="M108.4,21.9l-2.5,12.8h-2.1s.2-1,.2-1c-.4.5-.8.8-1.2,1-.4.2-.8.3-1.3.3-.8,0-1.5-.3-2-1-.5-.6-.8-1.6-.8-2.9,0-1.5.4-2.9,1.1-4.1.8-1.2,1.7-1.8,2.9-1.8,1.1,0,1.9.5,2.5,1.5l.9-4.8h2.2M102.4,33.1c.3,0,.7-.1,1-.4.3-.3.6-.7.9-1.3.2-.6.4-1.3.4-2,0-.7-.2-1.2-.5-1.7-.3-.4-.7-.6-1.1-.6s-.6.1-1,.4c-.3.3-.6.7-.9,1.4-.2.7-.4,1.4-.4,2.1s.1,1.2.4,1.6c.3.4.6.5,1.1.5M110.3,20.4h-1.9s-2.2,0-2.2,0h-1.3s-.2,1.2-.2,1.2l-.5,2.3c-.4-.2-.9-.2-1.4-.2-1.2,0-2.9.4-4.2,2.5-.9,1.4-1.4,3.1-1.4,4.9,0,1.7.4,2.9,1.1,3.9.8,1,1.9,1.5,3.2,1.5.5,0,.9,0,1.4-.2h.9s2.1,0,2.1,0h1.3s.2-1.2.2-1.2l2.5-12.8.3-1.8ZM108.4,23.5h0s0,0,0,0ZM102.5,31.5c0,0,0-.3,0-.5,0-.6,0-1.1.3-1.6.1-.3.2-.5.3-.6,0,.1,0,.4,0,.6,0,.5,0,1-.3,1.4-.2.4-.3.6-.3.6Z"/>
  <polygon class="st7" points="107.3 35.5 109.3 24.7 109.3 24.7 110 21.2 113.8 21.2 113.1 25 113.1 25 111.1 35.5 107.3 35.5"/>
  <path class="st7" d="M112.9,21.9l-.4,2.3h-2.2s.4-2.3.4-2.3h2.3M112.2,25.5l-1.7,9.3h-2.3s1.7-9.3,1.7-9.3h2.2M114.7,20.4h-1.8s-2.3,0-2.3,0h-1.3s-.2,1.2-.2,1.2l-.4,2.3h0s0,0,0,0l-.2,1.2-1.7,9.3-.3,1.8h1.8s2.3,0,2.3,0h1.3s.2-1.2.2-1.2l1.7-9.3h0s0,0,0,0l.2-1.2.4-2.3.3-1.8ZM112.9,23.5h0s0,0,0,0ZM114.1,24h0s0,0,0,0ZM112.2,27h0s0,0,0,0Z"/>
  <path class="st7" d="M115,35.7c-.9,0-1.6-.3-2.2-1-.6-.6-.9-1.5-.9-2.5,0-1.1.3-2.1,1-2.7.4-.4.9-.6,1.5-.8l-1.8-.2.3-.9c.3-1,.9-1.8,1.7-2.3.8-.5,1.7-.8,2.9-.8,1.2,0,2.1.3,2.8.9.7.6,1.1,1.4,1.1,2.4s0,.6,0,1c0,.3-.2,1.1-.6,2.5-.3,1.3-.4,1.9-.4,2.1s0,.7.2,1.1l.3,1h-3.9s0-.3,0-.3c0,0-.1,0-.2.1-.5.3-1.1.4-1.6.4ZM116.8,31.4c-.7.1-1,.3-1.1.3-.1,0-.2.2-.2.3s0,.2,0,.2c0,0,0,0,.1,0,.2,0,.3,0,.5-.1.2,0,.3-.2.4-.4,0,0,0-.2.2-.4ZM117.3,27.8c-.5,0-.6.2-.7.5h0c.5,0,.8,0,1.1,0,0-.1,0-.2,0-.2,0,0,0,0,0,0,0,0-.2,0-.4,0Z"/>
  <path class="st7" d="M117.5,25.3c1,0,1.8.2,2.3.7.5.5.8,1.1.8,1.8s0,.6,0,.9c0,.3-.2,1.1-.6,2.5-.3,1.1-.4,1.9-.4,2.3s0,.9.2,1.3h-2.2c0-.3-.1-.7-.2-1.1-.3.4-.7.7-1.1.9-.4.2-.8.3-1.2.3-.6,0-1.2-.2-1.6-.7-.4-.5-.7-1.1-.7-2s.3-1.7.8-2.2c.5-.5,1.4-.8,2.6-.9,1.1,0,1.8-.2,2.1-.4.1-.4.2-.6.2-.9s-.1-.5-.3-.7c-.2-.2-.5-.3-.8-.3-.8,0-1.3.3-1.4,1l-2.2-.2c.3-.8.7-1.5,1.4-1.9.6-.4,1.5-.7,2.5-.7M117.9,30.4c-.1,0-.3,0-.5.1-1,.1-1.7.3-2,.6-.3.2-.5.5-.5.9s0,.6.3.7c.2.2.4.3.7.3s.6,0,.9-.2c.3-.2.5-.4.7-.7.2-.3.3-.8.5-1.4v-.3M117.5,23.8c-1.3,0-2.4.3-3.3.9-.9.6-1.6,1.6-1.9,2.7l-.5,1.8h.6c-.7.8-1,1.9-1,3.1,0,1.2.4,2.2,1,3,.7.8,1.7,1.2,2.8,1.2s.9,0,1.3-.2h0s1.2,0,1.2,0h2.2s2.1,0,2.1,0l-.6-2c-.1-.3-.2-.6-.2-.9s0-.6.4-2c.5-1.9.6-2.4.6-2.6,0-.4,0-.8,0-1.1,0-1.2-.5-2.2-1.4-3-.8-.7-1.9-1-3.3-1Z"/>
  <polygon class="st10" points="82.9 34.8 80.6 34.8 80.2 24.1 78.4 34.8 76.3 34.8 78.6 21.9 82 21.9 82.4 30.9 86.2 21.9 89.6 21.9 87.3 34.8 85.1 34.8 87.3 24.1 82.9 34.8"/>
  <path class="st10" d="M82.9,34.8v-.9h-1.3s-.4-9.8-.4-9.8c0-.5-.4-.9-.9-.9-.5,0-.9.3-1,.8l-1.7,9.9h-.2s2-10.9,2-10.9h1.6s.3,8.1.3,8.1c0,.4.3.8.8.9s.9-.2,1.1-.6l3.6-8.4h1.6s-2,10.9-2,10.9h-.2s2-9.5,2-9.5c0-.5-.2-1-.7-1.1-.5-.1-1,0-1.2.5l-4.5,10.6.9.4v-.9s0,.9,0,.9l.9.4.6-1.5-.2,1c0,.3,0,.6.2.8s.5.3.7.3h2.2c.5,0,.9-.3.9-.8l2.4-12.8c0-.3,0-.6-.2-.8s-.5-.3-.7-.3h-3.4c-.4,0-.7.2-.9.6l-2.2,5.1-.2-4.8c0-.5-.4-.9-1-.9h-3.4c-.5,0-.9.3-.9.8l-2.4,12.8c0,.3,0,.6.2.8.2.2.5.3.7.3h2.1c.5,0,.9-.3.9-.8l.3-1.6v1.4c0,.5.5.9,1,.9h2.3c.4,0,.7-.2.9-.6l-.9-.4Z"/>
  <path class="st10" d="M97.6,30.9h-5.6v.2c0,.6.2,1.1.5,1.5.3.4.7.6,1.1.6.7,0,1.3-.4,1.7-1.3l2,.4c-.4.9-.9,1.6-1.6,2-.7.4-1.4.7-2.2.7-1.1,0-2-.4-2.7-1.2-.7-.8-1.1-1.8-1.1-3.1,0-1.4.4-2.7,1.2-3.8.8-1.1,2-1.6,3.4-1.6s1.8.3,2.4,1c.6.7.9,1.7.9,3s0,1.2-.2,1.6ZM95.7,29.4v-.2c0-.7-.1-1.2-.4-1.6-.3-.3-.7-.5-1.1-.5s-.9.2-1.2.6c-.4.4-.6,1-.8,1.7h3.5Z"/>
  <path class="st10" d="M97.6,30.9v-.9h-5.6c-.3,0-.5.1-.7.3s-.3.4-.3.7v.2c0,.4,0,.8.2,1.1.1.4.3.7.5,1h0c.2.3.5.5.8.7.3.2.7.2,1,.2.3,0,.6,0,.8-.1.2,0,.4-.2.6-.3.3-.2.5-.4.7-.6.2-.2.4-.5.5-.8l-.9-.4-.2.9,2,.4.2-.9-.9-.4c-.2.4-.4.7-.6,1-.2.3-.4.5-.7.6h0c-.3.2-.5.3-.8.4-.3,0-.6.1-.9.1-.4,0-.8,0-1.1-.2-.3-.1-.6-.3-.9-.6h0c-.3-.3-.5-.6-.6-1-.1-.4-.2-.9-.2-1.5,0-.6,0-1.2.3-1.7.2-.5.4-1,.8-1.5.2-.2.3-.4.5-.6.3-.2.6-.4.9-.5.3-.1.7-.2,1.2-.2.4,0,.7,0,1,.2.3.1.5.3.7.5.2.2.4.5.5.9.1.4.2.9.2,1.4,0,.6,0,1-.1,1.4l.9.2v-.9s0,.9,0,.9l.9.2c.1-.6.2-1.2.2-1.8,0-.7,0-1.4-.3-2-.2-.6-.5-1.2-.9-1.6-.4-.4-.9-.8-1.4-1-.5-.2-1.1-.3-1.7-.3-.4,0-.8,0-1.2.1-.6.1-1.2.3-1.7.7-.5.3-.9.7-1.3,1.2-.5.6-.8,1.3-1.1,2-.2.7-.4,1.5-.4,2.3,0,.7.1,1.4.3,2.1.2.6.6,1.2,1,1.7h0c.4.5,1,.8,1.5,1.1.6.2,1.2.4,1.9.4.5,0,1,0,1.4-.2.5-.1.9-.4,1.3-.6h0c.4-.3.8-.6,1.1-1,.3-.4.6-.9.8-1.4.1-.3.1-.6,0-.8-.1-.3-.4-.4-.7-.5l-2-.4c-.4,0-.9.1-1,.5,0,.2-.2.3-.2.4-.1.2-.2.2-.3.3,0,0,0,0-.1,0,0,0-.1,0-.2,0,0,0-.1,0-.2,0,0,0-.1,0-.2-.2h0c0,0-.1-.2-.2-.3,0-.1,0-.3,0-.6v-.2h-1v.9h5.6c.5,0,.8-.3.9-.8l-.9-.2ZM95.7,29.4h1s0-.2,0-.2h0c0-.4,0-.8-.1-1.2,0-.2-.1-.4-.2-.5,0-.2-.2-.3-.3-.5h0c-.2-.3-.5-.5-.8-.6-.3-.1-.7-.2-1-.2-.4,0-.7,0-1.1.2-.3.2-.6.4-.9.6-.3.3-.5.6-.7,1-.2.4-.3.8-.3,1.2,0,.3,0,.6.2.8.2.2.5.3.7.3h3.5c.5,0,.9-.4,1-.9h-1s0-1,0-1h-3.5v.9s.9.2.9.2c0-.3.1-.6.2-.8,0-.2.2-.3.3-.4.1-.1.2-.2.3-.2,0,0,.2,0,.2,0,.1,0,.2,0,.2,0,0,0,0,0,.2.1h0s0,0,0,0c0,0,0,.2,0,.3,0,.1,0,.3,0,.5h1s-1,0-1,0v.2s.9,0,.9,0v-.9s0,.9,0,.9Z"/>
  <path class="st10" d="M105.9,34.8h-2.1s.2-1,.2-1c-.4.5-.8.8-1.2,1-.4.2-.8.3-1.3.3-.8,0-1.5-.3-2-1-.5-.6-.8-1.6-.8-2.9,0-1.5.4-2.9,1.1-4.1.8-1.2,1.7-1.8,2.9-1.8,1.1,0,1.9.5,2.5,1.5l.9-4.8h2.2s-2.5,12.8-2.5,12.8ZM100.9,31c0,.7.1,1.2.4,1.6.3.4.6.5,1.1.5s.7-.1,1-.4c.3-.3.6-.7.9-1.3.2-.6.4-1.3.4-2s-.2-1.2-.5-1.7c-.3-.4-.7-.6-1.1-.6s-.6.1-1,.4c-.3.3-.6.7-.9,1.4-.2.7-.4,1.4-.4,2.1Z"/>
  <path class="st10" d="M105.9,34.8v-.9h-2.1v.9s.9.2.9.2l.2-1c0-.4-.1-.8-.5-1-.4-.2-.9,0-1.1.2-.2.2-.3.4-.5.5-.2.1-.3.2-.4.3h0c-.3.1-.5.2-.9.2-.3,0-.5,0-.7-.1-.2,0-.4-.2-.6-.5h0c0-.1-.2-.2-.2-.4-.1-.2-.2-.5-.3-.8,0-.3,0-.7,0-1.2,0-.7,0-1.3.2-1.9.2-.6.4-1.1.7-1.6h0c.2-.2.3-.5.5-.6.2-.3.5-.4.8-.5.3-.1.5-.2.9-.2.2,0,.4,0,.5,0,.2,0,.4.2.6.3.2.1.3.3.5.6.2.4.6.5,1,.5.4,0,.7-.4.8-.8l.8-4h.3s-2.3,11.7-2.3,11.7l.9.2v-.9s0,.9,0,.9l.9.2,2.5-12.8c0-.3,0-.6-.2-.8-.2-.2-.5-.3-.7-.3h-2.2c-.5,0-.9.3-.9.8l-.9,4.8.9.2.8-.5c-.2-.3-.4-.6-.6-.8-.3-.4-.8-.7-1.2-.9-.5-.2-1-.3-1.5-.3-.4,0-.7,0-1.1.1-.5.1-1,.4-1.5.8-.4.3-.8.8-1.1,1.3h0c-.4.7-.8,1.4-1,2.1-.2.8-.3,1.6-.3,2.4,0,.7,0,1.4.2,1.9.2.6.4,1.1.8,1.6h0c.3.4.8.8,1.2,1,.5.2,1,.3,1.5.3.6,0,1.2-.1,1.7-.4h0c.3-.1.5-.3.8-.5.2-.2.5-.4.7-.7l-.7-.6-.9-.2-.2,1c0,.3,0,.6.2.8.2.2.5.3.7.3h2.1c.5,0,.9-.3.9-.8l-.9-.2ZM100.9,31h-1c0,.4,0,.8.1,1.1.1.4.3.7.5,1,.2.3.5.5.8.7.3.2.7.2,1,.2.3,0,.6,0,.9-.2.3-.1.5-.2.7-.4.3-.2.5-.5.7-.8.2-.3.3-.6.5-1h0c.3-.7.4-1.5.4-2.3,0-.4,0-.8-.2-1.2-.1-.4-.3-.7-.5-1h0c-.2-.3-.5-.5-.8-.7-.2,0-.3-.2-.5-.2-.2,0-.4,0-.5,0-.3,0-.6,0-.8.2-.3.1-.5.3-.7.4h0c-.3.2-.5.5-.7.8-.2.3-.3.6-.5,1-.3.8-.4,1.6-.4,2.4h1s1,0,1,0c0-.6.1-1.2.3-1.8.1-.3.2-.5.3-.7,0-.2.2-.3.2-.3h0c.1,0,.2-.1.2-.2,0,0,0,0,.1,0,0,0,0,0,0,0,0,0,0,0,0,0,0,0,.1,0,.2.2h0c0,.1.1.2.2.4,0,.2,0,.4,0,.7,0,.6-.1,1.1-.3,1.6h0c-.1.3-.2.5-.3.6,0,.2-.2.2-.2.3,0,0-.2.1-.2.1,0,0-.1,0-.2,0,0,0,0,0-.1,0,0,0,0,0-.2-.2,0,0-.1-.2-.2-.3,0-.2,0-.4,0-.6h-1Z"/>
  <path class="st10" d="M110,25.5h2.2s-1.7,9.3-1.7,9.3h-2.3s1.7-9.3,1.7-9.3ZM110.6,21.9h2.3s-.4,2.3-.4,2.3h-2.2s.4-2.3.4-2.3Z"/>
  <path class="st10" d="M110,25.5v.9h1.1s-1.4,7.4-1.4,7.4h-.3s1.5-8.2,1.5-8.2l-.9-.2v.9s0-.9,0-.9l-.9-.2-1.7,9.3c0,.3,0,.6.2.8s.5.3.7.3h2.3c.5,0,.9-.3.9-.8l1.7-9.3c0-.3,0-.6-.2-.8-.2-.2-.5-.3-.7-.3h-2.2c-.5,0-.9.3-.9.8l.9.2ZM110.6,21.9v.9h1.1s0,.4,0,.4h-.3s.2-1.2.2-1.2l-.9-.2v.9s0-.9,0-.9l-.9-.2-.4,2.3c0,.3,0,.6.2.8s.5.3.7.3h2.2c.5,0,.9-.3.9-.8l.4-2.3c0-.3,0-.6-.2-.8s-.5-.3-.7-.3h-2.3c-.5,0-.9.3-.9.8l.9.2Z"/>
  <path class="st10" d="M115.8,28.1l-2.2-.2c.3-.8.7-1.5,1.4-1.9.6-.4,1.5-.7,2.5-.7,1,0,1.8.2,2.3.7.5.5.8,1.1.8,1.8s0,.6,0,.9c0,.3-.2,1.1-.6,2.5-.3,1.1-.4,1.9-.4,2.3s0,.9.2,1.3h-2.2c0-.3-.1-.7-.2-1.1-.3.4-.7.7-1.1.9-.4.2-.8.3-1.2.3-.6,0-1.2-.2-1.6-.7-.4-.5-.7-1.1-.7-2s.3-1.7.8-2.2c.5-.5,1.4-.8,2.6-.9,1.1,0,1.8-.2,2.1-.4.1-.4.2-.6.2-.9s-.1-.5-.3-.7c-.2-.2-.5-.3-.8-.3-.8,0-1.3.3-1.4,1ZM117.9,30.4c-.1,0-.3,0-.5.1-1,.1-1.7.3-2,.6-.3.2-.5.5-.5.9s0,.6.3.7c.2.2.4.3.7.3s.6,0,.9-.2c.3-.2.5-.4.7-.7.2-.3.3-.8.5-1.4v-.3Z"/>
  <path class="st10" d="M115.8,28.1v-.9c.1,0-2.1-.2-2.1-.2v.9c-.1,0,.8.3.8.3.1-.3.2-.6.4-.9.2-.2.4-.4.6-.6h0c.2-.2.5-.3.8-.4.3,0,.7-.1,1.1-.1.4,0,.8,0,1.1.1.3,0,.5.2.6.3.2.1.3.3.4.5,0,.2.1.4.1.6,0,.2,0,.4,0,.7,0,0,0,.2,0,.3,0,.4-.3,1.1-.5,2.1h0c-.1.6-.2,1.1-.3,1.5,0,.2,0,.4,0,.6,0,.2,0,.3,0,.5,0,.5,0,1.1.3,1.6l.9-.3v-.9h-2.2v.9s.9-.2.9-.2c0-.3-.1-.6-.1-.9,0-.4-.3-.7-.7-.9s-.8,0-1,.3c-.2.3-.5.5-.8.7h0c-.1,0-.3.1-.4.2-.1,0-.2,0-.4,0-.2,0-.4,0-.5,0-.1,0-.3-.2-.4-.3h0c-.1-.1-.2-.3-.3-.5,0-.2-.1-.5-.1-.8,0-.4,0-.7.1-.9,0-.2.2-.4.4-.6h0c0,0,.2-.1.3-.2.2,0,.4-.2.7-.3.3,0,.6-.1,1-.2h0c.5,0,1-.1,1.4-.2.2,0,.4,0,.5-.1.2,0,.3,0,.5-.1.3-.1.5-.3.6-.6,0-.2.1-.4.2-.6,0-.2,0-.4,0-.6,0-.3,0-.5-.2-.8-.1-.2-.3-.5-.5-.6h0c-.2-.2-.5-.3-.7-.4-.2,0-.5-.1-.8-.1-.3,0-.5,0-.8.1-.2,0-.4.1-.6.2-.3.2-.5.4-.7.6-.2.2-.3.5-.4.8l.9.2v-.9c.1,0,0,.9,0,.9l.9.2c0,0,0-.2,0-.2,0,0,0,0,0,0,0,0,0,0,0,0,0,0,.2,0,.3,0s.2,0,.2,0c0,0,0,0,0,0h0s0,0,0,0h0s0,0,0,0h-.1c0,0,0,0,0,0h0c0,0-.1,0-.1,0h.1s-.1,0-.1,0c0,0,0,0,0,0h.1s-.1,0-.1,0h0s0,0,0,0h0s0,0,0,0h0s0,0,0,0h0s0,0,0,0h0s0,0,0,0c0,0,0,0,0,.2,0,0,0,.2-.1.4l.9.3-.3-.9s-.1,0-.2,0c-.2,0-.4,0-.7.1-.3,0-.6,0-1,.1h0c-.7,0-1.3.2-1.8.4-.3,0-.5.2-.7.3-.2.1-.4.3-.6.5h0c-.4.4-.6.8-.8,1.3-.2.5-.3,1-.3,1.6s0,1,.2,1.4c.1.4.4.8.7,1.2h0c.3.3.7.6,1.1.8.4.2.8.3,1.3.3.3,0,.6,0,.9-.1.3,0,.6-.2.8-.3h0c.5-.3,1-.7,1.4-1.2l-.8-.6h-1c0,.5,0,.9.2,1.3.1.4.5.7.9.7h2.2c.3,0,.6-.1.8-.4.2-.2.2-.6.1-.8-.1-.4-.2-.8-.2-1.1,0,0,0-.2,0-.3,0-.2,0-.4.1-.7,0-.3.1-.7.2-1.1h0c.2-.7.3-1.2.4-1.6,0-.2,0-.4.1-.5,0-.1,0-.3,0-.4,0-.3,0-.7,0-1,0-.5,0-1-.3-1.4-.2-.4-.5-.8-.9-1.1-.4-.3-.8-.6-1.3-.7-.5-.1-1-.2-1.6-.2-.6,0-1.1,0-1.6.2-.5.1-1,.3-1.4.6h0c-.4.3-.8.6-1.1,1.1-.3.4-.5.9-.7,1.4,0,.3,0,.6.1.8.2.2.4.4.7.4l2.2.2c.5,0,.9-.3,1-.7l-.9-.2ZM117.9,30.4l-.3-.9c0,0-.2,0-.4,0l.2.9v-.9c-.7,0-1.1.2-1.5.3-.2,0-.4.1-.6.2-.2,0-.3.2-.5.3h0c-.3.2-.5.4-.7.7,0,.1-.1.3-.2.5,0,.2,0,.3,0,.5,0,.2,0,.5.1.7,0,.2.2.5.4.7h0c.2.2.4.3.6.4.2,0,.5.1.8.1.2,0,.5,0,.7,0,.2,0,.4-.2.6-.3.2-.1.4-.3.6-.4.2-.2.3-.4.4-.6h0c.1-.2.2-.5.3-.7,0-.3.2-.6.3-.9l-.9-.2.9.2v-.3c.2-.3,0-.7-.2-.9-.2-.2-.6-.3-.9-.2l.3.9-.9-.2v.3c0,0,0,0,0,0,0,.3-.1.6-.2.8,0,.2-.1.3-.2.4h0c0,0,0,.1-.1.2,0,0-.1,0-.2.1,0,0-.1,0-.2,0,0,0-.1,0-.2,0,0,0,0,0,0,0h0s0,0,0,0h0c0,0,0,0,0,0h0c0,0,0,0,0,0h0s0,0,0,0h0s0,0,0,0h0s0,0,0,0h0s0,0,0,0h0s0,0,0,0h0s0,0,0,0h0s0,0,0,0h0s0,0,0,0h0s0,0,0,0c0,0,0,0,0,0,0,0,0,0,0,0s0,0,0,0c0,0,0,0,0,0,0,0,0,0,0,0h0s0,0,.1,0c.1,0,.3-.1.6-.2.2,0,.6-.1.9-.2h0c.2,0,.5,0,.7-.1l-.3-.9-.9-.2.9.2Z"/>
  <polygon class="st4" points="82.9 34.8 80.6 34.8 80.2 24.1 78.4 34.8 76.3 34.8 78.6 21.9 82 21.9 82.4 30.9 86.2 21.9 89.6 21.9 87.3 34.8 85.1 34.8 87.3 24.1 82.9 34.8"/>
  <path class="st4" d="M97.6,30.9h-5.6v.2c0,.6.2,1.1.5,1.5.3.4.7.6,1.1.6.7,0,1.3-.4,1.7-1.3l2,.4c-.4.9-.9,1.6-1.6,2-.7.4-1.4.7-2.2.7-1.1,0-2-.4-2.7-1.2-.7-.8-1.1-1.8-1.1-3.1,0-1.4.4-2.7,1.2-3.8.8-1.1,2-1.6,3.4-1.6s1.8.3,2.4,1c.6.7.9,1.7.9,3s0,1.2-.2,1.6ZM95.7,29.4v-.2c0-.7-.1-1.2-.4-1.6-.3-.3-.7-.5-1.1-.5s-.9.2-1.2.6c-.4.4-.6,1-.8,1.7h3.5Z"/>
  <path class="st4" d="M105.9,34.8h-2.1s.2-1,.2-1c-.4.5-.8.8-1.2,1-.4.2-.8.3-1.3.3-.8,0-1.5-.3-2-1-.5-.6-.8-1.6-.8-2.9,0-1.5.4-2.9,1.1-4.1.8-1.2,1.7-1.8,2.9-1.8,1.1,0,1.9.5,2.5,1.5l.9-4.8h2.2s-2.5,12.8-2.5,12.8ZM100.9,31c0,.7.1,1.2.4,1.6.3.4.6.5,1.1.5s.7-.1,1-.4c.3-.3.6-.7.9-1.3.2-.6.4-1.3.4-2s-.2-1.2-.5-1.7c-.3-.4-.7-.6-1.1-.6s-.6.1-1,.4c-.3.3-.6.7-.9,1.4-.2.7-.4,1.4-.4,2.1Z"/>
  <path class="st4" d="M110,25.5h2.2s-1.7,9.3-1.7,9.3h-2.3s1.7-9.3,1.7-9.3ZM110.6,21.9h2.3s-.4,2.3-.4,2.3h-2.2s.4-2.3.4-2.3Z"/>
  <path class="st4" d="M115.8,28.1l-2.2-.2c.3-.8.7-1.5,1.4-1.9.6-.4,1.5-.7,2.5-.7,1,0,1.8.2,2.3.7.5.5.8,1.1.8,1.8s0,.6,0,.9c0,.3-.2,1.1-.6,2.5-.3,1.1-.4,1.9-.4,2.3s0,.9.2,1.3h-2.2c0-.3-.1-.7-.2-1.1-.3.4-.7.7-1.1.9-.4.2-.8.3-1.2.3-.6,0-1.2-.2-1.6-.7-.4-.5-.7-1.1-.7-2s.3-1.7.8-2.2c.5-.5,1.4-.8,2.6-.9,1.1,0,1.8-.2,2.1-.4.1-.4.2-.6.2-.9s-.1-.5-.3-.7c-.2-.2-.5-.3-.8-.3-.8,0-1.3.3-1.4,1ZM117.9,30.4c-.1,0-.3,0-.5.1-1,.1-1.7.3-2,.6-.3.2-.5.5-.5.9s0,.6.3.7c.2.2.4.3.7.3s.6,0,.9-.2c.3-.2.5-.4.7-.7.2-.3.3-.8.5-1.4v-.3Z"/>
  <path class="st1" d="M17.4,33.5v-3.1h-3.1c-.6,1.1-1,2.2-1.3,3.1h4.4Z"/>
  <path class="st1" d="M17.4,33.5h1.8v-4.9h-6s-.5,1-.5,1c-.7,1.2-1.1,2.4-1.4,3.4l-.8,2.3h8.7v-1.8h-1.8s0-1.8,0-1.8h-4.4v1.8s1.7.5,1.7.5c.3-.8.7-1.8,1.2-2.8l-1.6-.8v1.8h1.3s0,1.3,0,1.3h1.8v-1.8s0,1.8,0,1.8Z"/>
  <path class="st1" d="M19.6,33.5h2.9v-11.2c-1.1.6-2.1,1.2-2.9,1.8v9.4Z"/>
  <path class="st1" d="M19.6,33.5v1.8h4.8v-15.9s-2.7,1.3-2.7,1.3c-1.2.6-2.3,1.3-3.2,2l-.7.5v12h1.8v-1.8s1.8,0,1.8,0v-9.4h-1.8s1.1,1.4,1.1,1.4c.8-.6,1.7-1.2,2.7-1.7l-.8-1.6h-1.8v9.4s-1.1,0-1.1,0v1.8h1.8s-1.8,0-1.8,0Z"/>
  <path class="st1" d="M25.4,33.5h2.9v-4.3s1.3-1.7,1.3-1.7l2.8,6h3.1s-4.1-8.5-4.1-8.5l3.8-4.9h-3.6s-3.4,4.6-3.4,4.6v-4.5c-1,.2-2,.5-2.9.8v12.4Z"/>
  <path class="st1" d="M25.4,33.5v1.8h4.8v-5.5s1-1.2,1-1.2l-1.4-1.1-1.7.8,3.3,7h7.2s-4.8-10-4.8-10l5.4-6.9h-8.2s-4,5.4-4,5.4l1.5,1.1h1.8v-6.7s-2.2.5-2.2.5c-1.1.2-2.2.5-3.2.9l-1.2.4v15.5h1.8v-1.8s1.8,0,1.8,0v-12.4h-1.8s.6,1.7.6,1.7c.8-.3,1.8-.5,2.7-.7l-.4-1.8h-1.8v10s6.2-8.4,6.2-8.4h2.7v-1.8s-1.4-1.1-1.4-1.1l-4.5,5.8,3.3,6.9h-.2v1.8s1.7-.8,1.7-.8l-4.1-8.7-3.5,4.6v3.1s-1.1,0-1.1,0v1.8h1.8s-1.8,0-1.8,0Z"/>
  <path class="st1" d="M44.4,20.6v5.3c0,1.8,0,3-.2,3.5-.1.5-.4,1-.8,1.3-.4.3-.9.5-1.4.5s-.8-.1-1.1-.4c-.3-.3-.5-.6-.6-1.1,0-.5-.1-1.6-.1-3.3v-6.1h-2.9v8.4c0,1.3.1,2.3.4,3,.3.7.7,1.2,1.3,1.6.6.4,1.2.6,2,.6.7,0,1.4-.2,2.1-.6.7-.4,1.2-1,1.6-1.7v2h2.8v-12.4c-1-.2-2-.4-2.9-.6Z"/>
  <path class="st1" d="M44.4,20.6h-1.8v5.3c0,.9,0,1.6,0,2.1,0,.3,0,.5,0,.7,0,0,0,.2,0,.2,0,0,0,0,0,0h0c0,0,0,.2,0,.2,0,0,0,0-.1.1h0c0,0-.1,0-.1,0,0,0,0,0,0,0h0s0,0,0,0h0s0,0,0,0h0s0,0,0,0h0s0,.2,0,.2v-.2c0,0,0,0,0,0v.2s0-.2,0-.2v.2c0,0,0-.2,0-.2,0,0,0,0,0,0v.2c0,0,0-.2,0-.2h0s-.1.2-.1.2h.2c0-.1,0-.2,0-.2v.2c-.1,0,0-.1,0-.1h-.1c0,0,.1,0,.1,0h0s-.1,0-.1,0h.1c0,0,0,0,0,0h0s0,0,0,0h0s0,0,0,0c0,0,0,0,0-.1h0s0,0,0,0c0,0,0-.2,0-.4,0-.3,0-.6,0-1,0-.4,0-.9,0-1.5v-7.9h-6.6v10.2c0,.7,0,1.4.1,2,0,.6.2,1.2.4,1.7.2.5.5,1,.8,1.4.3.4.7.8,1.2,1.1h0s0,0,0,0c.4.3.9.5,1.4.7.5.1,1,.2,1.5.2.5,0,1.1,0,1.6-.2.5-.2,1-.4,1.5-.7h0c.5-.3.9-.6,1.3-1,.4-.4.7-.8,1-1.3l-1.6-.9h-1.8v3.8h6.4s0-15.6,0-15.6l-1.4-.3c-1-.2-2-.4-3-.6l-2.1-.4v2.2h1.8s-.3,1.8-.3,1.8c.9.2,1.9.4,2.9.6l.4-1.8h-1.8v10.6s-.9,0-.9,0v1.8h1.8v-8.9s-3.4,6-3.4,6c-.1.2-.3.4-.4.6-.2.2-.3.3-.5.4h0c-.2.1-.4.2-.6.3-.2,0-.3,0-.5,0-.2,0-.4,0-.5,0-.1,0-.3-.1-.4-.2h0s0,0,0,0c-.1,0-.2-.2-.3-.3,0-.1-.2-.3-.3-.5,0-.2-.1-.5-.2-.9,0-.4,0-.9,0-1.5v-6.6s1.1,0,1.1,0v-1.8h-1.8v6.1c0,.9,0,1.6,0,2.2,0,.3,0,.6,0,.8,0,.1,0,.2,0,.3,0,.1,0,.2,0,.3h0c0,.4.2.8.4,1.1.2.4.5.7.8,1h0c.3.3.7.5,1.1.6.4.1.8.2,1.2.2.5,0,.9,0,1.4-.2.4-.2.8-.4,1.2-.7h0c.4-.3.7-.6.9-1,.2-.4.4-.8.5-1.2h0c0-.1,0-.2,0-.4,0-.2,0-.4,0-.7,0-.4,0-.8,0-1.3,0-.5,0-1,0-1.6v-5.3h-1.8s-.3,1.8-.3,1.8l.3-1.8Z"/>
  <path class="st1" d="M9.7,15.3h-3.1v18.3s6.4,0,6.4,0c.3-.9.7-2,1.3-3.1h-4.6s0-15.1,0-15.1Z"/>
  <path class="st1" d="M9.7,15.3v-1.8h-4.9s0,21.8,0,21.8h9.5s.4-1.3.4-1.3c.3-.8.7-1.8,1.2-2.8l1.4-2.6h-5.8s0-15.1,0-15.1h-1.8v1.8s-1.8,0-1.8,0v16.9s6.4,0,6.4,0v-1.8s-1.6-.8-1.6-.8c-.7,1.2-1.1,2.4-1.4,3.4l1.7.5v-1.8h-4.5s0-14.7,0-14.7h1.3v-1.8h-1.8s1.8,0,1.8,0Z"/>
  <rect class="st1" x="19.6" y="15.1" width="2.9" height="3.3"/>
  <polygon class="st1" points="22.5 15.1 22.5 13.3 17.7 13.3 17.7 20.2 24.3 20.2 24.3 13.3 22.5 13.3 22.5 15.1 20.7 15.1 20.7 16.6 19.6 16.6 19.6 18.4 21.4 18.4 21.4 16.9 22.5 16.9 22.5 15.1 20.7 15.1 22.5 15.1"/>
  <path class="st1" d="M19.6,20.2v4c.9-.7,1.9-1.3,2.9-1.8v-2.1h-2.9Z"/>
  <path class="st1" d="M19.6,20.2h-1.8v7.6s2.9-2.2,2.9-2.2c.8-.6,1.7-1.2,2.7-1.7l1-.5v-5h-6.6v1.8h1.8s0,1.8,0,1.8h1.1s0,.4,0,.4h1.8s-.8-1.6-.8-1.6c-1.2.6-2.3,1.3-3.2,2l1.1,1.4h1.8v-4h-1.8v1.8s0-1.8,0-1.8Z"/>
  <path class="st1" d="M25.4,15.1v6c.9-.3,1.9-.6,2.9-.8v-5.2h-2.9Z"/>
  <path class="st1" d="M25.4,15.1h-1.8v8.5s2.4-.8,2.4-.8c.8-.3,1.8-.5,2.7-.7l1.4-.3v-8.5h-6.6v1.8h1.8s0,1.8,0,1.8h1.1s0,3.4,0,3.4h1.8s-.4-1.8-.4-1.8c-1.1.2-2.2.5-3.2.9l.6,1.7h1.8v-6h-1.8v1.8s0-1.8,0-1.8Z"/>
  <path class="st1" d="M47.4,20.2h-2.9v.3c1,.2,1.9.4,2.9.6v-.9Z"/>
  <path class="st1" d="M47.4,20.2v-1.8h-4.8v3.6s1.5.3,1.5.3c.9.2,1.9.4,2.9.6l2.2.5v-5h-1.8v1.8s-1.8,0-1.8,0v.9h1.8s.4-1.8.4-1.8c-1-.2-2-.4-3-.6l-.3,1.8h1.8v-.3h-1.8v1.8h2.9v-1.8h-1.8s1.8,0,1.8,0Z"/>
  <path class="st6" d="M17.4,33.5v-3.1h-3.1c-.6,1.1-1,2.2-1.3,3.1h4.4Z"/>
  <path class="st6" d="M17.4,33.5h1.2v-3.1c0-.3-.1-.6-.4-.8-.2-.2-.5-.3-.8-.3h-3.1c-.4,0-.9.2-1.1.6-.6,1.2-1.1,2.3-1.4,3.3-.1.4,0,.8.2,1.1.2.3.6.5,1,.5h4.4c.3,0,.6-.1.8-.3.2-.2.4-.5.4-.8h-1.2s0-1.2,0-1.2h-4.4v1.2s1.1.4,1.1.4c.3-.9.7-1.9,1.2-2.9l-1.1-.5v1.2h1.9s0,1.9,0,1.9h1.2v-1.2s0,1.2,0,1.2Z"/>
  <path class="st6" d="M19.6,33.5h2.9v-11.2c-1.1.6-2.1,1.2-2.9,1.8v9.4Z"/>
  <path class="st6" d="M19.6,33.5v1.2h2.9c.3,0,.6-.1.8-.3.2-.2.4-.5.4-.8v-11.2c0-.4-.2-.8-.6-1-.4-.2-.8-.2-1.2,0-1.2.6-2.2,1.2-3.1,1.9-.3.2-.5.6-.5.9v9.4c0,.3.1.6.4.8.2.2.5.3.8.3v-1.2s1.2,0,1.2,0v-9.4h-1.2s.7.9.7.9c.8-.6,1.7-1.2,2.8-1.7l-.5-1.1h-1.2v10s-1.7,0-1.7,0v1.2h1.2s-1.2,0-1.2,0Z"/>
  <path class="st6" d="M25.4,33.5h2.9v-4.3s1.3-1.7,1.3-1.7l2.8,6h3.1s-4.1-8.5-4.1-8.5l3.8-4.9h-3.6s-3.4,4.6-3.4,4.6v-4.5c-1,.2-2,.5-2.9.8v12.4Z"/>
  <path class="st6" d="M25.4,33.5v1.2h2.9c.3,0,.6-.1.8-.3.2-.2.4-.5.4-.8v-3.9s1.1-1.4,1.1-1.4l-1-.7-1.1.5,2.8,6c.2.4.6.7,1.1.7h3.1c.4,0,.8-.2,1-.5s.2-.8,0-1.1l-3.7-7.8,3.4-4.3c.3-.4.3-.8.1-1.2-.2-.4-.6-.7-1.1-.7h-3.6c-.4,0-.7.2-1,.5l-1.3,1.7v-.9c0-.4-.2-.7-.4-.9-.3-.2-.6-.3-1-.2-1.1.2-2.1.5-3.1.8-.5.2-.8.6-.8,1.1v12.4c0,.3.1.6.4.8.2.2.5.3.8.3v-1.2s1.2,0,1.2,0v-12.4h-1.2s.4,1.1.4,1.1c.9-.3,1.8-.6,2.8-.8l-.3-1.2h-1.2v4.5c0,.5.3,1,.8,1.1.5.2,1,0,1.3-.4l3.1-4.2h.6s-2.3,3-2.3,3c-.3.4-.3.8-.1,1.2l3.3,6.8h-.5s-2.5-5.3-2.5-5.3c-.2-.4-.5-.6-1-.7-.4,0-.8.1-1.1.5l-1.3,1.7c-.2.2-.2.5-.2.7v3.1s-1.7,0-1.7,0v1.2h1.2s-1.2,0-1.2,0Z"/>
  <path class="st6" d="M44.4,20.6v5.3c0,1.8,0,3-.2,3.5-.1.5-.4,1-.8,1.3-.4.3-.9.5-1.4.5s-.8-.1-1.1-.4c-.3-.3-.5-.6-.6-1.1,0-.5-.1-1.6-.1-3.3v-6.1h-2.9v8.4c0,1.3.1,2.3.4,3,.3.7.7,1.2,1.3,1.6.6.4,1.2.6,2,.6.7,0,1.4-.2,2.1-.6.7-.4,1.2-1,1.6-1.7v2h2.8v-12.4c-1-.2-2-.4-2.9-.6Z"/>
  <path class="st6" d="M44.4,20.6h-1.2v5.3c0,.9,0,1.6,0,2.2,0,.3,0,.5,0,.7,0,.2,0,.3,0,.4h0c0,.2,0,.3-.2.4,0,.1-.1.2-.3.3h0c-.1,0-.2.2-.3.2,0,0-.2,0-.3,0,0,0-.2,0-.2,0,0,0,0,0-.1,0h0s0,0-.1-.1c0,0,0-.2,0-.3h0c0,0,0-.2,0-.4,0-.3,0-.6,0-1.1,0-.5,0-1,0-1.7v-6.1c0-.3-.1-.6-.4-.8-.2-.2-.5-.3-.8-.3h-2.9c-.3,0-.6.1-.8.3-.2.2-.4.5-.4.8v8.4c0,.7,0,1.3.1,1.9,0,.6.2,1.1.4,1.6.2.4.4.9.7,1.2.3.4.6.7,1,.9h0c.4.3.8.4,1.2.6.4.1.9.2,1.4.2.5,0,.9,0,1.4-.2.5-.1.9-.3,1.3-.6h0c.4-.3.8-.6,1.1-.9.3-.4.6-.8.9-1.2l-1-.6h-1.2v2c0,.3.1.6.4.8.2.2.5.3.8.3h2.8c.3,0,.6-.1.8-.3.2-.2.4-.5.4-.8v-12.4c0-.6-.4-1-.9-1.2-1-.2-2-.4-3-.6-.3,0-.7,0-1,.3-.3.2-.4.6-.4.9h1.2s-.2,1.2-.2,1.2c.9.2,1.9.4,2.9.6l.3-1.2h-1.2v11.2s-.4,0-.4,0v-.8c0-.5-.4-1-.9-1.1-.5-.1-1.1,0-1.3.6-.2.3-.3.5-.5.7-.2.2-.4.4-.7.5h0c-.2.2-.5.3-.7.3-.2,0-.5.1-.7.1-.3,0-.5,0-.7,0-.2,0-.4-.1-.6-.3h0c-.2-.1-.3-.3-.5-.4-.1-.2-.3-.4-.4-.6,0-.2-.2-.6-.2-1,0-.4,0-1,0-1.6v-7.3s.5,0,.5,0v4.9c0,.9,0,1.6,0,2.2,0,.3,0,.5,0,.8,0,.2,0,.4,0,.6h0c0,.3.2.7.3,1,.2.3.4.6.6.8h0c.3.2.6.4.9.5.3.1.7.2,1,.2.4,0,.8,0,1.1-.2.4-.1.7-.3,1-.6h0c.3-.2.6-.5.8-.9.2-.3.4-.7.4-1.1h0c0-.2,0-.4.1-.7,0-.4,0-.8,0-1.3,0-.5,0-1.1,0-1.8v-5.3h-1.2s-.2,1.2-.2,1.2l.2-1.2Z"/>
  <path class="st6" d="M9.7,15.3h-3.1v18.3s6.4,0,6.4,0c.3-.9.7-2,1.3-3.1h-4.6s0-15.1,0-15.1Z"/>
  <path class="st6" d="M9.7,15.3v-1.2h-3.1c-.3,0-.6.1-.8.3-.2.2-.4.5-.4.8v18.3c0,.3.1.6.4.8.2.2.5.3.8.3h6.4c.5,0,1-.3,1.1-.8.3-.9.7-1.9,1.2-2.9.2-.4.2-.8,0-1.2-.2-.4-.6-.6-1-.6h-3.4s0-13.9,0-13.9c0-.3-.1-.6-.4-.8-.2-.2-.5-.3-.8-.3v1.2s-1.2,0-1.2,0v15.1c0,.3.1.6.4.8.2.2.5.3.8.3h4.6v-1.2s-1.1-.5-1.1-.5c-.6,1.2-1.1,2.3-1.4,3.3l1.1.4v-1.2h-5.2s0-15.9,0-15.9h1.9v-1.2h-1.2s1.2,0,1.2,0Z"/>
  <rect class="st6" x="19.6" y="15.1" width="2.9" height="3.3"/>
  <path class="st6" d="M22.5,15.1v-1.2h-2.9c-.3,0-.6.1-.8.3s-.4.5-.4.8v3.3c0,.3.1.6.4.8s.5.3.8.3h2.9c.3,0,.6-.1.8-.3s.4-.5.4-.8v-3.3c0-.3-.1-.6-.4-.8-.2-.2-.5-.3-.8-.3v1.2s-1.2,0-1.2,0v2.1s-.5,0-.5,0v-.9s1.7,0,1.7,0v-1.2h-1.2s1.2,0,1.2,0Z"/>
  <path class="st6" d="M19.6,20.2v4c.9-.7,1.9-1.3,2.9-1.8v-2.1h-2.9Z"/>
  <path class="st6" d="M19.6,20.2h-1.2v4c0,.4.3.9.7,1.1.4.2.9.2,1.3-.1.8-.6,1.7-1.2,2.8-1.7.4-.2.7-.6.7-1.1v-2.1c0-.3-.1-.6-.4-.8-.2-.2-.5-.3-.8-.3h-2.9c-.3,0-.6.1-.8.3-.2.2-.4.5-.4.8h1.2s0,1.2,0,1.2h1.7s0,1,0,1h1.2s-.5-1.1-.5-1.1c-1.2.6-2.2,1.2-3.1,1.9l.7.9h1.2v-4h-1.2v1.2s0-1.2,0-1.2Z"/>
  <path class="st6" d="M25.4,15.1v6c.9-.3,1.9-.6,2.9-.8v-5.2h-2.9Z"/>
  <path class="st6" d="M25.4,15.1h-1.2v6c0,.4.2.7.5,1s.7.3,1.1.2c.9-.3,1.8-.6,2.8-.8.6-.1.9-.6.9-1.2v-5.2c0-.3-.1-.6-.4-.8-.2-.2-.5-.3-.8-.3h-2.9c-.3,0-.6.1-.8.3s-.4.5-.4.8h1.2s0,1.2,0,1.2h1.7s0,4,0,4h1.2s-.3-1.2-.3-1.2c-1.1.2-2.1.5-3.1.8l.4,1.1h1.2v-6h-1.2v1.2s0-1.2,0-1.2Z"/>
  <path class="st6" d="M47.4,20.2h-2.9v.3c1,.2,1.9.4,2.9.6v-.9Z"/>
  <path class="st6" d="M47.4,20.2v-1.2h-2.9c-.3,0-.6.1-.8.3s-.4.5-.4.8v.3c0,.6.4,1.1,1,1.2.9.2,1.9.4,2.9.6.4,0,.7,0,1-.2.3-.2.5-.6.5-.9v-.9c0-.3-.1-.6-.4-.8s-.5-.3-.8-.3v1.2s-1.2,0-1.2,0v.9h1.2s.3-1.2.3-1.2c-1-.2-2-.4-3-.6l-.2,1.2h1.2v-.3h-1.2v1.2h2.9v-1.2h-1.2s1.2,0,1.2,0Z"/>
  <path class="st9" d="M17.4,33.5v-3.1h-3.1c-.6,1.1-1,2.2-1.3,3.1h4.4Z"/>
  <path class="st9" d="M17.4,33.5h.4v-3.5h-3.7s-.1.2-.1.2c-.6,1.2-1,2.3-1.3,3.2l-.2.5h5.3v-.4h-.4s0-.4,0-.4h-4.4v.4s.4.1.4.1c.3-.9.7-2,1.3-3.1l-.3-.2v.4h2.7s0,2.8,0,2.8h.4v-.4s0,.4,0,.4Z"/>
  <path class="st9" d="M19.6,33.5h2.9v-11.2c-1.1.6-2.1,1.2-2.9,1.8v9.4Z"/>
  <path class="st9" d="M19.6,33.5v.4h3.3v-12.2s-.6.3-.6.3c-1.1.6-2.1,1.2-3,1.9h-.2c0,.1,0,10,0,10h.4v-.4s.4,0,.4,0v-9.4h-.4s.2.3.2.3c.9-.6,1.8-1.2,2.9-1.8l-.2-.3h-.4v10.8s-2.6,0-2.6,0v.4h.4s-.4,0-.4,0Z"/>
  <path class="st9" d="M25.4,33.5h2.9v-4.3s1.3-1.7,1.3-1.7l2.8,6h3.1s-4.1-8.5-4.1-8.5l3.8-4.9h-3.6s-3.4,4.6-3.4,4.6v-4.5c-1,.2-2,.5-2.9.8v12.4Z"/>
  <path class="st9" d="M25.4,33.5v.4h3.3v-4.5s.9-1.1.9-1.1l2.7,5.7h4s-4.2-8.8-4.2-8.8l4.1-5.3h-4.6s-2.8,3.9-2.8,3.9v-3.8s-.5,0-.5,0c-1.1.2-2.1.5-3,.8h-.3c0,0,0,13.1,0,13.1h.4v-.4s.4,0,.4,0v-12.4h-.4s.1.4.1.4c.9-.3,1.9-.6,2.9-.8v-.4c0,0-.5,0-.5,0v5.7s4-5.4,4-5.4h2.6s-3.5,4.5-3.5,4.5l3.9,8.1h-2.3s-3-6.3-3-6.3l-1.8,2.3v4s-2.6,0-2.6,0v.4h.4s-.4,0-.4,0Z"/>
  <path class="st9" d="M44.4,20.6v5.3c0,1.8,0,3-.2,3.5-.1.5-.4,1-.8,1.3-.4.3-.9.5-1.4.5s-.8-.1-1.1-.4c-.3-.3-.5-.6-.6-1.1,0-.5-.1-1.6-.1-3.3v-6.1h-2.9v8.4c0,1.3.1,2.3.4,3,.3.7.7,1.2,1.3,1.6.6.4,1.2.6,2,.6.7,0,1.4-.2,2.1-.6.7-.4,1.2-1,1.6-1.7v2h2.8v-12.4c-1-.2-2-.4-2.9-.6Z"/>
  <path class="st9" d="M44.4,20.6h-.4v5.3c0,.9,0,1.6,0,2.2s0,.5,0,.7c0,.2,0,.4,0,.5,0,.2-.1.4-.3.6-.1.2-.3.3-.4.5h0c-.2.1-.4.3-.5.3-.2,0-.4.1-.6.1-.2,0-.3,0-.5,0-.1,0-.3-.1-.4-.2h0s0,0,0,0c-.1,0-.2-.2-.3-.4,0-.1-.1-.3-.2-.5,0,0,0-.2,0-.4,0-.6,0-1.5,0-2.8v-6.5h-3.7v8.8c0,.7,0,1.3.1,1.8,0,.5.2,1,.3,1.4.3.8.8,1.4,1.4,1.8.6.4,1.4.6,2.2.6.8,0,1.6-.2,2.3-.7h0c.7-.4,1.3-1.1,1.7-1.8l-.3-.2h-.4v2.4h3.5v-13.1s-.3,0-.3,0c-1-.2-2-.4-3-.6h-.5c0,0,0,.4,0,.4h.4s0,.4,0,.4c.9.2,1.9.4,2.9.6v-.4c0,0-.3,0-.3,0v12s-2,0-2,0v-3.1s-.7,1.3-.7,1.3c-.4.7-.9,1.2-1.5,1.5h0c-.6.4-1.2.5-1.9.6-.7,0-1.2-.2-1.7-.5-.5-.3-.9-.8-1.1-1.4-.1-.3-.2-.7-.3-1.2,0-.5-.1-1-.1-1.7v-8.1s2.2,0,2.2,0v5.8c0,.9,0,1.6,0,2.2,0,.3,0,.5,0,.7,0,.2,0,.4,0,.5,0,.3.1.5.3.7.1.2.3.4.5.6h0c.2.2.4.3.6.4.2,0,.5.1.7.1.3,0,.6,0,.8-.2.3-.1.5-.3.8-.4h0c.2-.2.4-.4.6-.7.2-.3.3-.5.3-.8,0-.2,0-.3,0-.6,0-.7.1-1.7.1-3v-5.3h-.4s0,.4,0,.4v-.4Z"/>
  <path class="st11" d="M9.7,15.3h-3.1v18.3s6.4,0,6.4,0c.3-.9.7-2,1.3-3.1h-4.6s0-15.1,0-15.1Z"/>
  <path class="st11" d="M9.7,15.3v-.4h-3.5v19s7,0,7,0v-.3c.4-.9.8-2,1.4-3.1l.3-.6h-4.8s0-15.1,0-15.1h-.4v.4s-.4,0-.4,0v15.5h5v-.4s-.3-.2-.3-.2c-.6,1.2-1,2.3-1.3,3.2h.4c0,.1,0-.3,0-.3h-6s0-17.5,0-17.5h2.7v-.4h-.4s.4,0,.4,0Z"/>
  <rect class="st11" x="19.6" y="15.1" width="2.9" height="3.3"/>
  <polygon class="st11" points="22.5 15.1 22.5 14.7 19.2 14.7 19.2 18.8 22.9 18.8 22.9 14.7 22.5 14.7 22.5 15.1 22.1 15.1 22.1 18 19.9 18 19.9 15.5 22.5 15.5 22.5 15.1 22.1 15.1 22.5 15.1"/>
  <path class="st11" d="M19.6,20.2v4c.9-.7,1.9-1.3,2.9-1.8v-2.1h-2.9Z"/>
  <path class="st11" d="M19.6,20.2h-.4v4.7s.6-.5.6-.5c.9-.6,1.8-1.2,2.9-1.8h.2c0-.1,0-2.9,0-2.9h-3.7v.4h.4s0,.4,0,.4h2.6s0,1.8,0,1.8h.4s-.2-.3-.2-.3c-1.1.6-2.1,1.2-3,1.9l.2.3h.4v-4h-.4v.4s0-.4,0-.4Z"/>
  <path class="st11" d="M25.4,15.1v6c.9-.3,1.9-.6,2.9-.8v-5.2h-2.9Z"/>
  <path class="st11" d="M25.4,15.1h-.4v6.5s.5-.2.5-.2c.9-.3,1.9-.6,2.9-.8h.3c0,0,0-6,0-6h-3.7v.4h.4s0,.4,0,.4h2.6s0,4.8,0,4.8h.4s0-.4,0-.4c-1.1.2-2.1.5-3,.8v.4c.1,0,.5,0,.5,0v-6h-.4v.4s0-.4,0-.4Z"/>
  <path class="st11" d="M47.4,20.2h-2.9v.3c1,.2,1.9.4,2.9.6v-.9Z"/>
  <path class="st11" d="M47.4,20.2v-.4h-3.3v1s.3,0,.3,0c.9.2,1.9.4,2.9.6h.5c0,.1,0-1.7,0-1.7h-.4v.4s-.4,0-.4,0v.9h.4s0-.4,0-.4c-1-.2-2-.4-3-.6v.4c0,0,.3,0,.3,0v-.3h-.4v.4h2.9v-.4h-.4s.4,0,.4,0Z"/>
  <path class="st2" d="M70.8,32.1c-.2,0-.3,0-.4-.2l-.2-.3c0,0-.1-.2-.1-.4,0-1.8-.2-3.5-.5-5,0,0,0-.1,0-.2,0-.3,0-.7,0-1,0-1.7-.5-3.2-1.6-4.5,0,0,0,0,0-.1-1.3-3-3.3-4.8-5.7-5.2-.3,0-.5-.3-.5-.6,0-.3.2-.5.5-.6.5,0,1-.1,1.4-.1s0,0,.1,0c0,0,0,0,0,0,1.9.3,3.6,1,5.1,2.1,0,0,0,0,0,0,2.2,2.1,3.7,5.7,4.3,10.7,0,0,0,.1,0,.2-.3,1.7-1,3.4-2.1,4.8-.1.1-.3.2-.4.2h0Z"/>
  <path class="st1" d="M63.7,14.6s0,0,.1,0c1.8.2,3.5.9,4.9,2,1.8,1.8,3.4,4.9,4.2,10.3-.3,1.7-1,3.3-2,4.6l-.2-.3c0-1.9-.2-3.5-.5-5,0-.4,0-.7,0-1.1,0-1.8-.6-3.5-1.7-4.9-1.6-3.7-4-5.2-6.2-5.5.4,0,.9-.1,1.3-.1M63.7,13.5c-.5,0-1,0-1.5.1-.6,0-1,.6-1,1.1,0,.6.4,1,1,1.1,2.3.4,4.1,2,5.3,4.9,0,0,0,.2.2.3.9,1.2,1.5,2.6,1.5,4.2,0,.3,0,.6,0,1,0,.1,0,.2,0,.3.2,1.5.4,3.1.5,4.9,0,.3.1.5.3.7l.2.3c.2.2.5.4.9.4s0,0,0,0c.3,0,.7-.2.9-.5,1.1-1.5,1.9-3.2,2.2-5.1,0-.1,0-.2,0-.3-.7-5.1-2.2-8.8-4.5-11,0,0,0,0-.1,0-1.6-1.2-3.5-1.9-5.4-2.2,0,0,0,0-.1,0,0,0,0,0-.1,0Z"/>
  <path class="st2" d="M62.3,36.3c-6.2,0-11.2-5-11.2-11.2,0-2.5.8-4.8,2.3-6.7.1-.1.3-.2.4-.2h0c.2,0,.3,0,.4.2l1.9,2.1c.2.2.2.5,0,.7-.8,1.2-1.2,2.6-1.2,4,0,4,3.3,7.3,7.3,7.3s1,0,1.5-.2c0,0,0,0,.1,0,.2,0,.4.1.5.3l1.2,2.5c0,.2,0,.3,0,.5,0,.2-.2.3-.4.3-1,.3-2,.4-3,.4Z"/>
  <path class="st1" d="M53.8,18.7l1.9,2.1c-.8,1.2-1.3,2.7-1.3,4.3,0,4.3,3.5,7.8,7.9,7.8.6,0,1.1,0,1.6-.2l1.2,2.5c-.9.3-1.9.4-2.9.4-5.9,0-10.7-4.7-10.7-10.6,0-2.4.8-4.6,2.2-6.4M53.8,17.6s0,0,0,0c-.3,0-.7.2-.9.5-1.6,2-2.4,4.5-2.4,7.1,0,3.1,1.2,6.1,3.5,8.3,2.2,2.2,5.2,3.4,8.4,3.4,1.1,0,2.1-.1,3.2-.4.3,0,.6-.3.7-.6.1-.3.1-.7,0-1l-1.2-2.5c-.2-.4-.6-.7-1-.7s-.2,0-.2,0c-.5,0-.9.1-1.4.1-3.7,0-6.7-3-6.7-6.7,0-1.3.4-2.6,1.1-3.7.3-.4.2-1-.1-1.4l-1.9-2.1c-.2-.2-.5-.4-.9-.4Z"/>
  <path class="st2" d="M72.8,27.5c-.3,0-.5-.2-.6-.5-.6-4.7-2-8.1-4-10-.2-.2-.2-.5,0-.8.1-.1.3-.2.4-.2s.2,0,.3.1c2.8,2.1,4.5,5.5,4.5,9,0,.6,0,1.3-.2,1.9,0,.3-.3.5-.6.5h0Z"/>
  <path class="st1" d="M68.7,16.6c2.6,1.9,4.3,5,4.3,8.5,0,.6,0,1.2-.2,1.8-.7-5.4-2.3-8.6-4.2-10.3M68.7,15.4c-.3,0-.7.1-.9.4-.4.5-.4,1.1,0,1.6,1.9,1.8,3.2,5.1,3.8,9.7,0,.6.6,1,1.1,1h0c.6,0,1-.4,1.1-.9.1-.7.2-1.3.2-2,0-1.9-.5-3.7-1.3-5.4-.8-1.6-2-3-3.5-4.1-.2-.2-.4-.2-.7-.2Z"/>
  <path class="st2" d="M68.5,20.8c-.2,0-.3,0-.5-.2-1.4-1.8-3.5-2.8-5.7-2.8s-1,0-1.5.2c0,0,0,0-.1,0-.2,0-.4-.1-.5-.3l-1-2-.3-.6c0-.2,0-.3,0-.5,0-.2.2-.3.4-.3.5-.1.9-.2,1.4-.3.5,0,1-.1,1.6-.1s1,0,1.5.1c.3,0,.5.3.5.6,0,0,0,0,0,0,2,.9,3.5,2.7,4.7,5.3.1.3,0,.6-.2.7,0,0-.2,0-.3,0Z"/>
  <path class="st1" d="M62.3,14.5c.5,0,1,0,1.5.1,0,0,0,0-.1,0-.5,0-.9,0-1.3.1h0s0,0,0,0c2.2.4,4.5,1.8,6.2,5.5-1.4-1.8-3.7-3-6.2-3-.6,0-1.1,0-1.6.2l-1-2h0s0,0,0,0l-.3-.6c.4-.1.9-.2,1.4-.3.5,0,1-.1,1.5-.1M62.3,13.4c-.6,0-1.1,0-1.7.1-.5,0-1,.2-1.5.3-.3,0-.6.3-.7.6-.1.3-.1.7,0,1l.3.6h0s.9,2,.9,2c.2.4.6.7,1,.7s.2,0,.2,0c.5,0,.9-.1,1.4-.1,2.1,0,4,.9,5.3,2.5.2.3.6.4.9.4s.4,0,.6-.2c.5-.3.7-.9.5-1.4-.8-1.9-1.9-3.4-3.2-4.5-.5-.4-1-.7-1.5-1,0-.5-.5-.8-1-.9-.5,0-1.1-.1-1.6-.1Z"/>
  <path class="st2" d="M70.6,31.8c-.2,0-.3,0-.4-.2l-1.7-1.9c-.2-.2-.2-.5,0-.7.6-.9,1-1.9,1.1-2.9,0-.3.3-.5.6-.5h0c.3,0,.5.2.6.5.2,1.5.4,3.2.5,5.1,0,.2-.1.5-.4.6,0,0-.1,0-.2,0Z"/>
  <path class="st1" d="M70.1,26.2c.2,1.5.4,3.1.5,5l-1.7-1.9c.6-.9,1-2,1.2-3.2M70.1,25.1h0c-.6,0-1.1.4-1.1,1-.1,1-.5,1.9-1,2.7-.3.4-.2,1,.1,1.4l1.7,1.9c.2.2.5.4.9.4s.3,0,.4,0c.5-.2.7-.6.7-1.1,0-1.9-.2-3.6-.5-5.1,0-.6-.6-1-1.1-1Z"/>
  <path class="st2" d="M59.3,29.5c0,0-.2,0-.3,0l-.8-.4-2.1-1.2c-.2-.1-.3-.4-.3-.6,0-.2.2-.4.5-.5l1.4-.3s0,0,.1,0c.2,0,.3,0,.5.2l1.5,1.9c.2.2.2.5,0,.7-.1.1-.3.2-.4.2Z"/>
  <path class="st1" d="M57.7,27l1.5,1.9-.8-.4-2.1-1.2,1.4-.3M57.7,25.9c0,0-.2,0-.2,0l-1.4.3c-.5,0-.8.5-.9.9,0,.5.1.9.5,1.2l2.1,1.2h0s.8.4.8.4c.2,0,.4.1.6.1.3,0,.6-.1.9-.4.4-.4.4-1,0-1.4l-1.5-1.9c-.2-.3-.6-.4-.9-.4Z"/>
  <path class="st2" d="M66.9,23.8c-.2,0-.3,0-.5-.2l-1.5-1.9c-.2-.2-.2-.5,0-.7.1-.1.3-.2.4-.2s.2,0,.3,0l.8.4,2.1,1.2c.2.1.3.3.3.6,0,.2-.2.4-.5.5l-1.4.3s0,0-.1,0Z"/>
  <path class="st1" d="M65.4,21.3l.8.4,2.1,1.2-1.4.3-1.5-1.9M65.4,20.1c-.3,0-.6.1-.9.4-.4.4-.4,1,0,1.4l1.5,1.9c.2.3.6.4.9.4s.2,0,.2,0l1.4-.3c.5,0,.8-.5.9-.9,0-.5-.1-.9-.5-1.2l-2.1-1.2s0,0,0,0l-.8-.4c-.2,0-.4-.1-.6-.1Z"/>
  <path class="st2" d="M56.4,27.9c-.1,0-.3,0-.4-.1l-1.5-1.3c-.2-.1-.2-.3-.2-.5,0-.2.2-.4.4-.4l4.2-1.5c0,0,.1,0,.2,0,.2,0,.3,0,.4.2l1.7,1.9c.1.2.2.4.1.6,0,.2-.2.3-.4.4l-4.4.9s0,0-.1,0Z"/>
  <path class="st1" d="M59,24.5l1.7,1.9-3,.6-1.4.3-1.5-1.3,4.2-1.5M59,23.3c-.1,0-.3,0-.4,0l-4.2,1.5c-.4.1-.7.5-.7.9,0,.4,0,.8.4,1.1l1.5,1.3c.2.2.5.3.8.3s.2,0,.2,0l1.4-.3,3-.6c.4,0,.7-.4.9-.8.1-.4,0-.8-.2-1.1l-1.7-1.9c-.2-.2-.5-.4-.9-.4Z"/>
  <path class="st2" d="M65.6,26.3c-.2,0-.3,0-.4-.2l-1.7-1.9c-.1-.2-.2-.4-.1-.6s.2-.3.4-.4l3-.6,1.4-.3s0,0,.1,0c.1,0,.3,0,.4.1l1.5,1.3c0,0,.2.2.2.3h0c0,.3,0,.6-.4.7l-4.1,1.5c0,0-.1,0-.2,0Z"/>
  <path class="st1" d="M68.3,22.9l1.5,1.3h0s-4.1,1.5-4.1,1.5l-1.7-1.9,3-.6,1.4-.3M68.3,21.8c0,0-.2,0-.2,0l-1.4.3-3,.6c-.4,0-.7.4-.9.8-.1.4,0,.8.2,1.1l1.7,1.9c.2.2.5.4.9.4s.3,0,.4,0l4.1-1.5c.5-.2.8-.7.7-1.3h0c0-.3-.2-.5-.4-.6l-1.5-1.3c-.2-.2-.5-.3-.8-.3Z"/>
  <path class="st2" d="M60.8,27c-.2,0-.3,0-.4-.2l-1.7-1.9-3.3-3.7c-.2-.2-.2-.5,0-.7,1.2-1.9,3.2-3.2,5.3-3.6,0,0,0,0,.1,0,.2,0,.4.1.5.3l2.9,6.1c.1.2,0,.5-.1.6l-2.8,2.9c-.1.1-.3.2-.4.2h0Z"/>
  <path class="st1" d="M60.7,17.4l2.9,6.1-2.8,2.9-1.7-1.9-3.3-3.7c1.1-1.7,2.9-2.9,5-3.4M60.7,16.3c0,0-.2,0-.2,0-2.3.5-4.4,1.9-5.7,3.9-.3.4-.2,1,.1,1.4l3.3,3.7,1.7,1.9c.2.2.5.4.8.4h0c.3,0,.6-.1.8-.3l2.8-2.9c.3-.3.4-.8.2-1.3l-2.9-6.1c-.2-.4-.6-.7-1-.7Z"/>
  <path class="st2" d="M64,33.3c-.2,0-.4-.1-.5-.3l-2.9-6.1c-.1-.2,0-.5.1-.6l2.8-2.9c.1-.1.3-.2.4-.2h0c.2,0,.3,0,.4.2l1.7,1.9,3.3,3.7c.2.2.2.5,0,.7-1.2,1.9-3.1,3.2-5.3,3.6,0,0,0,0-.1,0Z"/>
  <path class="st1" d="M63.9,23.8l1.7,1.9,3.3,3.7c-1.1,1.7-2.9,2.9-5,3.4l-2.9-6.1,2.8-2.9M63.9,22.7c-.3,0-.6.1-.8.3l-2.8,2.9c-.3.3-.4.8-.2,1.3l2.9,6.1c.2.4.6.7,1,.7s.2,0,.2,0c1.2-.2,2.3-.7,3.3-1.4,1-.7,1.8-1.5,2.4-2.5.3-.4.2-1-.1-1.4l-3.3-3.7-1.7-1.9c-.2-.2-.5-.4-.8-.4h0Z"/>
  <path class="st6" d="M70.8,31.8c0,0-.2,0-.3-.1l-.2-.3c0,0,0-.1,0-.2,0-1.8-.2-3.5-.5-5,0,0,0,0,0,0,0-.4,0-.7,0-1.1,0-1.7-.6-3.3-1.6-4.7,0,0,0,0,0,0-1.4-3.1-3.3-4.9-5.9-5.4-.2,0-.3-.2-.3-.3,0-.2.1-.3.3-.3.5,0,.9-.1,1.4-.1s0,0,.1,0c0,0,0,0,0,0,1.8.2,3.6,1,5,2,0,0,0,0,0,0,2.2,2,3.6,5.6,4.3,10.5,0,0,0,0,0,0-.3,1.7-1,3.3-2.1,4.7,0,0-.2.1-.3.1h0Z"/>
  <path class="st6" d="M63.7,14.6s0,0,.1,0c1.8.2,3.5.9,4.9,2,1.8,1.8,3.4,4.9,4.2,10.3-.3,1.7-1,3.3-2,4.6l-.2-.3c0-1.9-.2-3.5-.5-5,0-.4,0-.7,0-1.1,0-1.8-.6-3.5-1.7-4.9-1.6-3.7-4-5.2-6.2-5.5.4,0,.9-.1,1.3-.1M63.7,13.9c-.5,0-1,0-1.4.1-.3,0-.6.3-.6.6,0,.3.2.6.6.7,2.4.4,4.4,2.1,5.7,5.2,0,0,0,.1,0,.1,1,1.3,1.6,2.8,1.6,4.4,0,.3,0,.7,0,1,0,0,0,.1,0,.2.2,1.5.4,3.1.5,4.9,0,.2,0,.3.2.4l.2.3c.1.1.3.2.5.2s0,0,0,0c.2,0,.4-.1.5-.3,1.1-1.4,1.8-3.1,2.1-4.9,0,0,0-.1,0-.2-.7-5-2.1-8.6-4.4-10.7,0,0,0,0,0,0-1.5-1.1-3.3-1.8-5.2-2.1,0,0,0,0,0,0,0,0,0,0-.1,0Z"/>
  <path class="st6" d="M62.3,36c-6.1,0-11-4.9-11-10.9s.8-4.7,2.2-6.6c0,0,.2-.1.3-.1h0c0,0,.2,0,.3.1l1.9,2.1c.1.1.1.3,0,.4-.8,1.2-1.2,2.6-1.2,4.1,0,4.1,3.4,7.5,7.5,7.5.5,0,1.1,0,1.6-.2,0,0,0,0,0,0,.1,0,.2,0,.3.2l1.2,2.5c0,0,0,.2,0,.3,0,0-.1.2-.2.2-1,.3-1.9.4-3,.4Z"/>
  <path class="st6" d="M53.8,18.7l1.9,2.1c-.8,1.2-1.3,2.7-1.3,4.3,0,4.3,3.5,7.8,7.9,7.8.6,0,1.1,0,1.6-.2l1.2,2.5c-.9.3-1.9.4-2.9.4-5.9,0-10.7-4.7-10.7-10.6,0-2.4.8-4.6,2.2-6.4M53.8,18.1s0,0,0,0c-.2,0-.4.1-.5.3-1.5,2-2.3,4.3-2.3,6.8,0,3,1.2,5.8,3.3,8,2.1,2.1,5,3.3,8,3.3,1,0,2.1-.1,3-.4.2,0,.3-.2.4-.4,0-.2,0-.4,0-.6l-1.2-2.5c-.1-.2-.4-.4-.6-.4s0,0-.1,0c-.5.1-1,.2-1.5.2-4,0-7.2-3.2-7.2-7.2s.4-2.8,1.2-3.9c.2-.3.1-.6,0-.8l-1.9-2.1c-.1-.1-.3-.2-.5-.2Z"/>
  <path class="st6" d="M72.8,27.3c-.2,0-.3-.1-.3-.3-.6-4.8-2-8.2-4.1-10.1-.1-.1-.1-.3,0-.5,0,0,.2-.1.3-.1s.1,0,.2,0c2.8,2.1,4.5,5.3,4.5,8.8,0,.6,0,1.3-.2,1.9,0,.2-.2.3-.3.3h0Z"/>
  <path class="st6" d="M68.7,16.6c2.6,1.9,4.3,5,4.3,8.5,0,.6,0,1.2-.2,1.8-.7-5.4-2.3-8.6-4.2-10.3M68.7,15.9c-.2,0-.4,0-.5.2-.2.3-.2.7,0,.9,2,1.9,3.3,5.2,4,10,0,.3.3.6.7.6h0c.3,0,.6-.2.7-.5.1-.6.2-1.3.2-1.9,0-1.8-.4-3.6-1.2-5.1-.8-1.5-1.9-2.9-3.3-3.9-.1,0-.3-.1-.4-.1Z"/>
  <path class="st6" d="M68.5,20.6c-.1,0-.2,0-.3-.1-1.4-1.8-3.6-2.9-5.9-2.9s-1,0-1.6.2c0,0,0,0,0,0-.1,0-.2,0-.3-.2l-1-2-.3-.6c0,0,0-.2,0-.3,0,0,.1-.2.2-.2.5-.1.9-.2,1.4-.3.5,0,1-.1,1.5-.1s1,0,1.5.1c.2,0,.3.2.3.4,0,0,0,.2-.1.2,2,.8,3.6,2.6,4.8,5.3,0,.2,0,.3-.1.4,0,0-.1,0-.2,0Z"/>
  <path class="st6" d="M62.3,14.5c.5,0,1,0,1.5.1,0,0,0,0-.1,0-.5,0-.9,0-1.3.1h0s0,0,0,0c2.2.4,4.5,1.8,6.2,5.5-1.4-1.8-3.7-3-6.2-3-.6,0-1.1,0-1.6.2l-1-2h0s0,0,0,0l-.3-.6c.4-.1.9-.2,1.4-.3.5,0,1-.1,1.5-.1M62.3,13.8c-.5,0-1.1,0-1.6.1-.5,0-1,.2-1.5.3-.2,0-.3.2-.4.4,0,.2,0,.4,0,.6l.3.6h0s1,2,1,2c.1.2.4.4.6.4s0,0,.1,0c.5-.1,1-.2,1.5-.2,2.2,0,4.3,1,5.7,2.7.1.2.3.3.5.3s.2,0,.3,0c.3-.2.4-.5.3-.8-.8-1.8-1.8-3.3-3.1-4.3-.5-.4-1-.8-1.6-1h0c0-.4-.2-.7-.6-.7-.5,0-1-.1-1.6-.1Z"/>
  <path class="st6" d="M70.6,31.6c0,0-.2,0-.3-.1l-1.7-1.9c-.1-.1-.1-.3,0-.4.6-.9,1-1.9,1.1-3,0-.2.2-.3.3-.3h0c.2,0,.3.1.3.3.2,1.5.4,3.2.5,5,0,.1,0,.3-.2.3,0,0,0,0-.1,0Z"/>
  <path class="st6" d="M70.1,26.2c.2,1.5.4,3.1.5,5l-1.7-1.9c.6-.9,1-2,1.2-3.2M70.1,25.6h0c-.3,0-.6.2-.7.6-.2,1-.5,2-1.1,2.9-.2.3-.1.6,0,.8l1.7,1.9c.1.1.3.2.5.2s.2,0,.3,0c.3-.1.4-.4.4-.6,0-1.8-.2-3.6-.5-5.1,0-.3-.3-.6-.7-.6Z"/>
  <path class="st6" d="M59.3,29.3c0,0-.1,0-.2,0l-.8-.4-2.1-1.2c-.1,0-.2-.2-.2-.3,0-.1.1-.2.3-.3l1.4-.3s0,0,0,0c.1,0,.2,0,.3.1l1.5,1.9c0,.1,0,.3,0,.4,0,0-.2.1-.3.1Z"/>
  <path class="st6" d="M57.7,27l1.5,1.9-.8-.4-2.1-1.2,1.4-.3M57.7,26.4s0,0-.1,0l-1.4.3c-.3,0-.5.3-.5.5,0,.3,0,.5.3.7l2.1,1.2h0s.8.4.8.4c.1,0,.2,0,.3,0,.2,0,.4,0,.5-.2.2-.2.2-.6,0-.8l-1.5-1.9c-.1-.2-.3-.3-.5-.3Z"/>
  <path class="st6" d="M66.9,23.5c-.1,0-.2,0-.3-.1l-1.5-1.9c0-.1,0-.3,0-.4,0,0,.2-.1.3-.1s.1,0,.2,0l.8.4,2.1,1.2c.1,0,.2.2.2.3s-.1.2-.3.3l-1.4.3s0,0,0,0Z"/>
  <path class="st6" d="M65.4,21.3l.8.4,2.1,1.2-1.4.3-1.5-1.9M65.4,20.6c-.2,0-.4,0-.5.2-.2.2-.2.6,0,.8l1.5,1.9c.1.2.3.3.5.3s0,0,.1,0l1.4-.3c.3,0,.5-.3.5-.5,0-.3,0-.5-.3-.7l-2.1-1.2h0s-.8-.4-.8-.4c-.1,0-.2,0-.3,0Z"/>
  <path class="st6" d="M56.4,27.6c0,0-.2,0-.2,0l-1.5-1.3c0,0-.1-.2-.1-.3,0-.1.1-.2.2-.2l4.2-1.5s0,0,.1,0c0,0,.2,0,.3.1l1.7,1.9c0,0,.1.2,0,.3,0,.1-.1.2-.3.2l-4.4.9s0,0,0,0Z"/>
  <path class="st6" d="M59,24.5l1.7,1.9-3,.6-1.4.3-1.5-1.3,4.2-1.5M59,23.8c0,0-.2,0-.2,0l-4.2,1.5c-.2,0-.4.3-.4.5,0,.2,0,.5.2.6l1.5,1.3c.1.1.3.2.4.2s0,0,.1,0l1.4-.3,3-.6c.2,0,.4-.2.5-.4,0-.2,0-.5-.1-.6l-1.7-1.9c-.1-.1-.3-.2-.5-.2Z"/>
  <path class="st6" d="M65.6,26.1c0,0-.2,0-.3-.1l-1.7-1.9c0,0-.1-.2,0-.3s.1-.2.3-.2l3-.6,1.4-.3s0,0,0,0c0,0,.2,0,.2,0l1.5,1.3c0,0,0,.1.1.2h0c0,.2,0,.3-.2.4l-4.1,1.5s0,0-.1,0Z"/>
  <path class="st6" d="M68.3,22.9l1.5,1.3h0s-4.1,1.5-4.1,1.5l-1.7-1.9,3-.6,1.4-.3M68.3,22.3s0,0-.1,0l-1.4.3-3,.6c-.2,0-.4.2-.5.4,0,.2,0,.5.1.6l1.7,1.9c.1.1.3.2.5.2s.2,0,.2,0l4.1-1.5c.3-.1.5-.4.4-.8h0c0-.2-.1-.3-.2-.4l-1.5-1.3c-.1-.1-.3-.2-.4-.2Z"/>
  <path class="st6" d="M60.8,26.7c0,0-.2,0-.2-.1l-1.7-1.9-3.3-3.7c-.1-.1-.1-.3,0-.4,1.2-1.8,3.1-3.1,5.2-3.5,0,0,0,0,0,0,.1,0,.2,0,.3.2l2.9,6.1c0,.1,0,.3,0,.4l-2.8,2.9c0,0-.2.1-.2.1h0Z"/>
  <path class="st6" d="M60.7,17.4l2.9,6.1-2.8,2.9-1.7-1.9-3.3-3.7c1.1-1.7,2.9-2.9,5-3.4M60.7,16.8s0,0-.1,0c-2.2.5-4.1,1.8-5.4,3.7-.2.3-.1.6,0,.8l3.3,3.7,1.7,1.9c.1.1.3.2.5.2h0c.2,0,.4,0,.5-.2l2.8-2.9c.2-.2.2-.5.1-.7l-2.9-6.1c-.1-.2-.4-.4-.6-.4Z"/>
  <path class="st6" d="M64,33.1c-.1,0-.2,0-.3-.2l-2.9-6.1c0-.1,0-.3,0-.4l2.8-2.9c0,0,.2-.1.2-.1h0c0,0,.2,0,.2.1l1.7,1.9,3.3,3.7c.1.1.1.3,0,.4-1.2,1.8-3,3.1-5.2,3.5,0,0,0,0,0,0Z"/>
  <path class="st6" d="M63.9,23.8l1.7,1.9,3.3,3.7c-1.1,1.7-2.9,2.9-5,3.4l-2.9-6.1,2.8-2.9M63.9,23.2c-.2,0-.4,0-.5.2l-2.8,2.9c-.2.2-.2.5-.1.7l2.9,6.1c.1.2.4.4.6.4s0,0,.1,0c2.2-.5,4.1-1.8,5.4-3.7.2-.3.1-.6,0-.8l-3.3-3.7-1.7-1.9c-.1-.1-.3-.2-.5-.2h0Z"/>
  <path class="st6" d="M70.3,25.1c0,4.3-3.5,7.8-7.9,7.8-4.4,0-7.9-3.5-7.9-7.8,0-4.3,3.5-7.8,7.9-7.8,4.4,0,7.9,3.5,7.9,7.8Z"/>
  <path class="st0" d="M72.8,26.9c-.7-5.4-2.3-8.6-4.2-10.3-1.4-1-3.1-1.7-4.9-2-.5,0-1,0-1.4.1,2.2.4,4.5,1.8,6.2,5.5,1.1,1.3,1.7,3,1.7,4.9,0,.4,0,.8,0,1.1.2,1.5.4,3.1.5,5l.2.3c1-1.3,1.7-2.9,2-4.6Z"/>
  <path class="st9" d="M54.5,25.1c0-1.6.5-3.1,1.3-4.3l-1.9-2.1c-1.4,1.8-2.2,4-2.2,6.4,0,5.9,4.8,10.6,10.7,10.6,1,0,2-.1,2.9-.4l-1.2-2.5c-.5.1-1.1.2-1.6.2-4.4,0-7.9-3.5-7.9-7.8Z"/>
  <path class="st9" d="M72.8,26.9c.1-.6.2-1.2.2-1.8,0-3.5-1.7-6.6-4.3-8.5,1.8,1.8,3.4,4.9,4.2,10.3Z"/>
  <path class="st9" d="M62.4,14.7h0s0,0,0,0c.5,0,.9-.1,1.4-.1-.5,0-1-.1-1.5-.1s-1,0-1.5.1c-.5,0-.9.2-1.4.3l.3.6h0s0,0,0,0l1,2c.5-.1,1.1-.2,1.6-.2,2.5,0,4.7,1.2,6.2,3-1.6-3.7-4-5.2-6.2-5.5Z"/>
  <path class="st9" d="M68.9,29.4l1.7,1.9c0-1.9-.2-3.5-.5-5-.2,1.2-.6,2.2-1.2,3.2Z"/>
  <polygon class="st3" points="58.5 28.5 59.3 29 57.7 27 56.4 27.3 58.5 28.5"/>
  <polygon class="st3" points="66.2 21.7 65.4 21.3 66.9 23.2 68.3 22.9 66.2 21.7"/>
  <polygon class="st5" points="59 24.5 54.9 26 56.4 27.3 57.7 27 60.8 26.4 59 24.5"/>
  <polygon class="st5" points="69.8 24.2 68.3 22.9 66.9 23.2 63.9 23.8 65.6 25.7 69.8 24.2 69.8 24.2"/>
  <path class="st9" d="M60.7,17.4c-2.1.4-3.8,1.7-5,3.4l3.3,3.7,1.7,1.9,2.8-2.9-2.9-6.1Z"/>
  <path class="st9" d="M65.6,25.7l-1.7-1.9-2.8,2.9,2.9,6.1c2.1-.4,3.8-1.7,5-3.4l-3.3-3.7Z"/>
</svg>