<?xml version="1.0" encoding="UTF-8"?>
<svg id="Layer_1" xmlns="http://www.w3.org/2000/svg" version="1.1" viewBox="0 0 605.6 222.8">
  <!-- Generator: Adobe Illustrator 30.6.0, SVG Export Plug-In . SVG Version: 2.1.4 Build 109)  -->
  <defs>
    <style>
      .st0 {
        fill: #b52374;
      }

      .st1 {
        fill: #231f20;
      }

      .st2 {
        fill: #ec1765;
      }

      .st3 {
        fill: #9b9da0;
      }

      .st4 {
        fill: #fcee1f;
      }

      .st5 {
        fill: #bd265e;
      }

      .st6 {
        fill: #fff;
      }

      .st7 {
        fill: #942e62;
      }

      .st8 {
        fill: #f69320;
      }

      .st9 {
        fill: #fdf051;
      }

      .st10 {
        fill: #f16884;
      }

      .st11 {
        fill: #f89522;
      }
    </style>
  </defs>
  <g>
    <path class="st3" d="M327.4,219c-.1-.6-.4-1.3-.9-2.2-.4-.5-1-.7-1.9-.7-.5,0-1.3,0-2.5.3-1.1.2-1.9.2-2.5.1-2.1-.2-3.5-1-4.3-2.6-.5-.9-.7-1.9-.7-3,0-1.5.2-2.8.7-3.7.2-.5.4-.8.7-.8.2,0,.3,0,.4.2l.7.8c-.4.6-.6,1.1-.7,1.4,0,.2-.1.7-.2,1.5,0,1,.2,1.8.9,2.5.3.3.8.5,1.5.7.7.2,1.2.2,1.7.1.9-.1,1.7-.2,2.3-.2,1.5,0,2.6.3,3.5.9.2.2.3.3.5.4v-10.2s0,0-.2,0c-.7,0-1.7.5-2.8,1.6-.6.6-1,1.2-1.3,1.9.2,0,.3,0,.4,0,.5,0,.9.2,1.2.6.3.4.4.8.4,1.3,0,.5-.1.9-.4,1.3-.3.4-.7.6-1.1.7-.3,0-.5,0-.8,0-1.2,0-2-.5-2.5-1.4-.3-.6-.4-1.2-.3-1.7.4-2.2,1.5-4,3.4-5.4,1.1-.8,2.2-1.2,3.3-1.1.5,0,1.1.3,1.8,1,.7.6,1,1.2,1,1.7v15.3s-1.3-1.3-1.3-1.3Z"/>
    <path class="st3" d="M341.7,204.6v.5c1.2,0,2.4.5,3.5,1.6,1,1,1.7,2.1,2,3.4,0,.5.2.9.2,1.3,0,.8-.2,1.6-.7,2.2-.5.7-1.2,1-2,1-.6,0-1.1-.2-1.6-.6-.5-.4-.7-.9-.7-1.5,0-.7.3-1.3,1-1.8.4-.1.7-.2,1-.2.6,0,1.1.3,1.7.8,0,0,.2.2.2.3,0,.2-.2.3-.8.3.1-.3.2-.5.2-.6,0-.8-.4-1.6-1.1-2.3-.8-.8-1.8-1.2-2.8-1.2v12.4s-1.1-1.1-1.1-1.1c-.3-1-.5-1.5-.7-1.8-.2-.4-.6-1-1.1-1.6-.6-.8-1.2-1.3-1.7-1.6-1.1-.7-2.3-1.1-3.6-1.3l-2.3-2.8c2.5-2.1,5.4-3.6,8.5-4.7v-.7s-8.9,0-8.9,0l-2.1-2.1h19.4s2.1,2.1,2.1,2.1h-8.4ZM336.6,209.4c-.2.2-.7.5-1.5,1,1.9.9,3.4,2.2,4.4,3.8v-6.3c-1.3.5-2.3,1-3,1.4Z"/>
    <path class="st3" d="M360.8,199.5c-1.5-1.1-3.2-1.7-5-1.7-1,0-2.2.4-3.4,1.2-.3.3-.6.7-1,1.2-.4.6-.6,1-.6,1.2l.5,1.1h2.7s2.1,2.1,2.1,2.1h-4.2s0,15.5,0,15.5l-2.1-2v-13.5s-2,0-2,0l-2.1-2.1h3.9c-.3-.3-.5-.5-.8-.8-.2-.3-.4-.6-.4-1,0-.6.1-1.1.3-1.4.6-.9,1.1-1.6,1.5-2,.5-.4,1.2-.9,2.1-1.3.6-.3,1.3-.4,2.1-.4,2,0,4.1.7,6.3,2.1.7.4,1.6,1.2,2.8,2.4l.7,1.9-3.3-2.5Z"/>
    <path class="st3" d="M357,198.4h0c0,0,.5,0,1.4-.1,2-.1,3.4,0,4.3.6,1.4.8,2.1,2,2,3.5h1.5s2.1,2.2,2.1,2.2h-11.2s0,9.7,0,9.7c0,.5.3.8.9.8s1.5-.4,2.4-1.3c.9-.9,1.4-1.7,1.6-2.5h0c-.6,0-1.1-.2-1.6-.5-.4-.4-.6-.9-.6-1.4,0-.2,0-.4,0-.6.3-1.2,1.1-1.7,2.3-1.7.9,0,1.5.3,2.1,1,.5.7.8,1.5.7,2.3,0,1.8-.6,3.2-1.6,4.3-1.9,2-3.4,3-4.5,3-1.7,0-2.9-1-3.4-2.9,0-.3-.1-1-.1-2.2v-7.9s-2.2,0-2.2,0l-1.7-2.1h11.6c0-.2,0-.4,0-.5-.2-.8-.8-1.1-1.9-1-.7,0-1.7,0-3,.1-.5,0-.9,0-1.1,0-1.2,0-2.3-.3-3.3-.9-1.1-.7-1.6-1.6-1.6-2.8,0-.6.2-1.1.5-1.5.2-.3.4-.4.8-.4.1,0,.3,0,.4.1,0,.2,0,.5,0,.8-.2.2-.4.5-.4.7,0,.6.4,1,1.2,1.2.3.1,1.1.1,2.4,0Z"/>
    <path class="st3" d="M387.2,199.5c-1.5-1.1-3.2-1.7-5-1.7-1,0-2.2.4-3.4,1.2-.3.3-.6.7-1,1.2-.4.6-.6,1-.6,1.2l.5,1.1h2.7s2.1,2.1,2.1,2.1h-4.2s0,15.5,0,15.5l-2.1-2v-13.5s-2,0-2,0l-2.1-2.1h3.9c-.3-.3-.5-.5-.8-.8-.3-.3-.4-.6-.4-1,0-.6.1-1.1.3-1.4.6-.9,1.1-1.6,1.5-2,.5-.4,1.2-.9,2.1-1.3.6-.3,1.3-.4,2.1-.4,2,0,4.1.7,6.3,2.1.7.4,1.6,1.2,2.8,2.4l.7,1.9-3.3-2.5Z"/>
    <path class="st3" d="M392.4,206.9l-.2-1.6-.2-5.3,1.4,1c0,0,0,.2.2.3,0,.5.1.8.3,1l.4.3c.2,0,.5,0,.9,0,.6,0,1,0,1.2,0l2,2h-4.2s0,15.4,0,15.4c-.6-.4-1.3-1.1-2.2-2l.2-7.8c-.4-1.3-.9-2.1-1.4-2.5l-5,5.1-2.8-1,1.6-1.7c.1-.1.2-.3.2-.7,0-.8-.2-1.2-.7-1.2,0,0-.7.2-1.8.6-.4,0-.8,0-1.1-.4-.3-.3-.5-.7-.5-1.1,0-.3,0-.6.3-1,1.4-2.3,3.3-3.5,5.7-3.6,1.3,0,2.4.4,3.5,1.2,1,.7,1.7,1.7,2.3,2.9ZM386.2,208.5l2.8-2.7c-.6-.5-1.2-.8-1.8-.8-1.3,0-2.3.4-2.9,1.3,1,.1,1.7.9,1.9,2.2Z"/>
    <path class="st3" d="M392.6,219.2c-.5-1-.9-1.5-1-1.7-.6-.6-1.7-1-3.1-1-.7,0-1.9,0-3.5.1-.9,0-1.8-.1-2.6-.5-.9-.4-1.6-.9-2-1.7-.5-.9-.8-1.9-.8-2.9s0-.8,0-1.6c0-.2,0-.4,0-.7,0-.1.1-.2.2-.2s.5.4,1.3,1.1c-.1.3-.2.5-.2.7,0,1.1.6,1.9,1.8,2.4.3.1,1.7.3,4.1.4,1.2,0,2.4.3,3.6.8,1,.6,1.6,1.1,1.9,1.6.8.9,1.2,1.7,1.4,2.4.2.5.3,1.4.3,2.7-.5-.3-1-1-1.5-1.9Z"/>
    <path class="st3" d="M401.3,208.8c.1.2.2.5.2.8,0,.6-.2,1-.7,1.4-.4.3-1,.5-1.5.5-1.5,0-2.3-.7-2.3-2.2,0-.9.3-1.6.9-2.2.6-.6,1.4-.9,2.2-.9,1.1,0,2.2.6,3.1,1.8v-3.4s-7.4,0-7.4,0l-2-2.1h10.1s2.1,2.1,2.1,2.1h-.8s0,10.4,0,10.4l-2-2.1v-1.6c0-.2,0-.5-.2-.8-.3-.3-.5-.6-.8-1-.3-.4-.6-.6-1-.7Z"/>
    <path class="st3" d="M405.3,198.4h0c0,0,.5,0,1.4-.1,2-.1,3.4,0,4.3.6,1.4.8,2.1,2,2,3.5h1.5s2.1,2.2,2.1,2.2h-11.2s0,9.7,0,9.7c0,.5.3.8.9.8.7,0,1.5-.4,2.4-1.3.9-.9,1.4-1.7,1.6-2.5h0c-.6,0-1.1-.2-1.6-.5-.4-.4-.6-.9-.6-1.4,0-.2,0-.4,0-.6.3-1.2,1.1-1.7,2.3-1.7.9,0,1.5.3,2.1,1,.5.7.8,1.5.7,2.3,0,1.8-.6,3.2-1.6,4.3-1.9,2-3.4,3-4.5,3-1.7,0-2.9-1-3.4-2.9,0-.3-.1-1-.1-2.2v-7.9s-2.2,0-2.2,0l-1.7-2.1h11.6c0-.2,0-.4,0-.5-.2-.8-.8-1.1-1.9-1-.7,0-1.7,0-3,.1-.5,0-.9,0-1.1,0-1.2,0-2.3-.3-3.3-.9-1.1-.7-1.6-1.6-1.6-2.8,0-.6.2-1.1.5-1.5.2-.3.4-.4.8-.4.1,0,.3,0,.4.1,0,.2,0,.5,0,.8-.2.2-.4.5-.4.7,0,.6.4,1,1.2,1.2.3.1,1.1.1,2.4,0Z"/>
    <path class="st3" d="M436.3,217c-.9.7-1.9,1-3.2,1-1.2,0-2.2-.3-3.2-.9-.6-.4-1.3-1-2.2-2-1.7-1.7-3.3-5.4-4.8-11l1.7.9c0,.2.2.6.4,1.2v.4c.6,1.3,1.4,2.9,2.6,5,.5.9,1.2,1.7,2.3,2.4,1.1.7,2,1.1,2.9,1.1.7,0,1.3-.2,1.9-.5.6-.4,1-.9,1.1-1.5,0-.6,0-1.1-.5-1.5-.4.3-.9.5-1.4.5-.6,0-1.1-.2-1.5-.6-.4-.4-.6-.9-.6-1.5s.2-1.1.6-1.5c.4-.4.9-.7,1.5-.7.5,0,.9,0,1.2.3.5-.3.8-.8.8-1.3,0-1.1-.5-1.6-1.5-1.6-.7,0-1.4.1-1.9.4,0,0-.5.3-1.5.9-.2.2-.4.4-.6.6.6.5.8,1.1.8,2,0,1-.6,1.5-1.9,1.5-1.6,0-2.4-.8-2.4-2.5,0-1.6,1-3,3-4,1.2-.6,2.3-.9,3.5-.9,1,0,1.9.2,2.6.7.9.6,1.4,1.6,1.4,2.8,0,.6,0,1.2-.3,2-.2.8-.4,1.3-.7,1.7.8,1.1,1.3,2.2,1.3,3.3,0,1.4-.5,2.5-1.5,3.3Z"/>
    <path class="st3" d="M462.8,204.6v15.6s-1.1-.9-1.1-.9c-.4-1.8-1.4-3.7-2.9-5.5-1,1.3-2.2,2-3.6,2-2.1,0-4-1.3-5.7-4-1.3-2-2.2-4.4-2.7-7.2l1.6.6c.9,2.4,1.6,4.1,2.3,5,1.1,1.6,2.6,2.4,4.3,2.4.7,0,1.3-.2,1.8-.6.5-.4.7-.9.7-1.6,0-.4,0-.8-.3-1.3-.2-.6-.5-1-.7-1.1-.4,1-1.2,1.5-2.2,1.5-.7,0-1.3-.2-1.9-.7-.5-.4-.8-1-.8-1.7,0-.8.3-1.4,1-1.8.6-.4,1.3-.6,2.1-.6,1.4,0,2.7.6,3.8,1.8,1,1.1,1.5,2.4,1.5,3.9,0,.3,0,.5,0,.8l.8,1.7v-8.3s-14,0-14,0l-2.1-2.1h19.1s2.1,2.1,2.1,2.1h-3Z"/>
    <path class="st3" d="M470,209.8c.4.5.6,1,.7,1.4,0,.2,0,.5,0,.7,0,.6-.2,1.2-.6,1.5-.4.4-1,.6-1.7.6-2.1,0-3.1-1-3.1-3.1,0-1.1.4-1.9,1.1-2.6.8-.7,1.7-1,2.8-1,1.9,0,3.6,1.2,4.9,3.6l.2.3v-6.4s-10,0-10,0l-2.1-2.1h16.2s2.2,2.1,2.2,2.1h-4.2s0,16.2,0,16.2l-1.1-1.6c0-.1,0-.3,0-.5,0-.8-.2-1.8-.6-3-.3-1.1-.6-2.1-1-2.8-.4-.7-.9-1.4-1.5-2-.7-.7-1.5-1.1-2.2-1.1Z"/>
    <path class="st3" d="M491.5,204.6v15.7s-2.1-2-2.1-2v-8.4c0-.4-.2-.7-.5-1.1-.4-.4-.7-.5-1.1-.5-.3,0-.6.1-.7.4-.1.3-.1.9,0,1.9l-1.5.6c.2-.4.2-.8,0-1.1-.4-.6-.7-.9-.8-1-.5-.5-1.1-.7-1.9-.7-.6,0-1.2.2-1.7.7-.5.4-.7,1-.7,1.6,0,.8.3,1.4,1,1.6,0-.2-.1-.4-.1-.7,0-.6.2-1,.6-1.4.4-.4.9-.5,1.4-.5.9,0,1.5.5,1.9,1.5.3.8.4,1.4.2,1.7-.4,1.1-1.3,1.6-2.5,1.6-1.4,0-2.5-.4-3.3-1.3-.8-.8-1.2-1.9-1.2-3.3,0-1.1.3-2.1.9-3,.7-1,1.5-1.4,2.6-1.5,1.1,0,2.1.4,3,1.3l.2.3c.2-.4.5-.7.9-1,.4-.3.8-.5,1.1-.4.6,0,1.2.2,1.6.6.2.2.3.5.5.7,0,0,.2.2.2.3v-2.5s-11.4,0-11.4,0l-2.1-2.1h17.6s2.1,2.1,2.1,2.1h-4.1Z"/>
    <path class="st3" d="M495.8,204.1c-.1-1.4-.2-2.9-.2-4.6l1.2,1c0,.6.2,1.2.4,1.6,0,.1.2.3.3.4h2.2s2.1,2.1,2.1,2.1h-4.1s0,16.2,0,16.2l-2-2.2v-11.3c0-.6-.1-1.1-.4-1.4-.6-.8-1.3-1.3-2.1-1.3,0,0-.3,0-.5,0l-2.1-2c1.3-.1,2.3-.2,3,0,1,.1,1.7.7,2.2,1.6Z"/>
    <path class="st3" d="M499.9,195.8c.4,0,.7,0,1.2.3-.7.4-1.1.8-1.1,1.2,0,.3.2.6.6.9.4.3.7.4,1.1.4.3,0,.9,0,1.8,0,1.1-.1,1.8-.2,2-.2,1.9,0,3.2.2,3.9.7,1.4.9,2,2,2,3.5h2.2s2.1,2.1,2.1,2.1h-9.2c0,0,0,.2.2.3.2.2.7.4,1.3.5.9.3,1.7.9,2.4,1.9.6,1,.9,2,.8,3-.2,1.8-1.2,3.1-3.1,3.8-.5.2-.8.3-1,.4,1.2.6,2.3,1.3,3.3,2.1.4.3,1.4,1.2,2.9,2.7l.8,3.3c-3.4-3.9-7.5-6.4-12.1-7.5l-2.3-4.8c1.8,1.2,3.5,1.7,5,1.7.9,0,1.8-.2,2.8-.7.5-.2.9-.6,1.3-1.2.1-.1.2-.3.2-.6,0-.2,0-.5,0-.7-.2-.9-.8-1.4-1.7-1.4-.1,0-.2,0-.4,0,0,.7-.5,1.4-1.3,2.1-.5.4-1.1.7-1.8.7-.5,0-1-.2-1.4-.5-.4-.3-.6-.8-.6-1.3s.2-1,.5-1.5c.3-.5.7-.8,1.1-1,.2-.1.8-.4,1.7-.8-.1-.2-.3-.4-.7-.7h-4.6s-2.1-2.1-2.1-2.1h10.5c.3,0,.6,0,.9-.1.1,0,.3-.1.5-.3.2-.1.3-.3.3-.4,0-.2-.3-.4-.8-.5-.5-.1-1-.2-1.4-.1-.7,0-1.7,0-2.9.1-.5,0-.9,0-1.1,0-1.2,0-2.3-.3-3.3-.9-1.1-.7-1.6-1.6-1.6-2.8,0-.6.2-1.1.5-1.6.1-.2.4-.3.8-.3Z"/>
    <path class="st3" d="M518.8,209.8c.4.5.6,1,.7,1.4,0,.2,0,.5,0,.7,0,.6-.2,1.2-.6,1.5-.4.4-1,.6-1.7.6-2.1,0-3.1-1-3.1-3.1,0-1.1.4-1.9,1.1-2.6.8-.7,1.7-1,2.8-1,1.9,0,3.6,1.2,4.9,3.6l.2.3v-6.4s-10,0-10,0l-2.1-2.1h16.2s2.2,2.1,2.2,2.1h-4.2s0,16.2,0,16.2l-1.1-1.6c0-.1,0-.3,0-.5,0-.8-.2-1.8-.6-3-.3-1.1-.6-2.1-1-2.8-.4-.7-.9-1.4-1.5-2-.7-.7-1.5-1.1-2.2-1.1Z"/>
    <path class="st3" d="M547.8,199.5c-1.5-1.1-3.2-1.7-5-1.7-1,0-2.2.4-3.4,1.2-.3.3-.6.7-1,1.2-.4.6-.6,1-.6,1.2l.5,1.1h2.7s2.1,2.1,2.1,2.1h-4.2s0,15.5,0,15.5l-2.1-2v-13.5s-2,0-2,0l-2.1-2.1h3.9c-.3-.3-.5-.5-.8-.8-.2-.3-.4-.6-.4-1,0-.6.1-1.1.3-1.4.6-.9,1.1-1.6,1.5-2,.5-.4,1.2-.9,2.1-1.3.6-.3,1.3-.4,2.1-.4,2,0,4.1.7,6.3,2.1.7.4,1.6,1.2,2.8,2.4l.7,1.9-3.3-2.5Z"/>
    <path class="st3" d="M541.6,206h0c-.3-.1-.6-.4-.9-.9l-.3-.6-2-2h16.5s2.1,2.2,2.1,2.2h-4.4s0,15.7,0,15.7l-1.2-1.3c-.5-1.9-1-3.1-1.6-3.6-.9-.8-1.6-1.3-2-1.5-.7.9-1.6,1.3-2.7,1.3-1.1,0-2-.5-2.6-1.4,0-.2,0-.4-.1-.7,0-.3-.1-.5-.1-.6,0-.9.3-1.7,1-2.2.6-.5,1.4-.7,2.3-.7.3,0,.6,0,.8,0-.1-1-.6-1.8-1.4-2.4-.2-.1-.8-.4-1.9-.7-.8-.3-1.4-.5-1.6-.7ZM550.6,204.7h-5.8c1.1.9,1.8,1.5,2.1,1.8.7.8,1.2,1.5,1.4,2.3.3,1.3.5,2.2.4,2.8.5.5,1.1,1.3,1.9,2.3v-9.2Z"/>
    <path class="st3" d="M567.5,199.5c-1.5-1.1-3.2-1.7-5-1.7-1,0-2.2.4-3.4,1.2-.3.3-.6.7-1,1.2-.4.6-.6,1-.6,1.2l.5,1.1h2.7s2.1,2.1,2.1,2.1h-4.2s0,15.5,0,15.5l-2.1-2v-13.5s-2,0-2,0l-2.1-2.1h3.9c-.3-.3-.5-.5-.8-.8-.2-.3-.4-.6-.4-1,0-.6.1-1.1.3-1.4.6-.9,1.1-1.6,1.5-2,.5-.4,1.2-.9,2.1-1.3.6-.3,1.3-.4,2.1-.4,2,0,4.1.7,6.3,2.1.7.4,1.6,1.2,2.8,2.4l.7,1.9-3.3-2.5Z"/>
    <path class="st3" d="M568.1,204.6v5.2c.4,0,.9-.4,1.5-.9.5-.5.9-.9,1.2-1.3.2-.3.5-.7.9-1,.9.4,1.6,1.1,2.2,2.3.5,1,.8,2.1.8,3.1,0,2-.6,3.5-1.7,4.6-1.1,1.1-2.6,1.5-4.6,1.4-1.4-.1-2.5-.6-3.4-1.6-.6-.6-1.3-1.7-2.1-3.2-.8-1.9-1.3-3.8-1.5-5.6,0,0,0-1-.3-2.8l1.5.8c0,1.5.4,3,1,4.6.7,1.9,1.5,3.1,2.4,3.8.7.6,1.6.9,2.8.9,1.6,0,2.8-.6,3.6-1.9.4-.5.5-1.1.5-1.6,0-.5-.2-.9-.5-1.3-.2.3-.5.7-1,1.1-1.2,1.1-2.2,1.6-3.1,1.6-1.1,0-1.9-.7-2.4-2.2,0-.2,0-2.2,0-5.9h-5.7s-2.1-2.1-2.1-2.1h17.7s2.1,2.1,2.1,2.1h-9.9Z"/>
    <path class="st3" d="M587.5,204.6v15.9s-1.2-1.3-1.2-1.3c-.5-1-.8-1.7-1-2-.3-.6-.8-1.1-1.4-1.7-.8-.8-1.5-1.3-2.2-1.6-.6-.2-1.5-.4-2.7-.4l-2.2-2.9c1.2-1.2,2.1-2.1,3-2.7.2-.1.6-.5,1.4-1.1-.1-.2-.2-.2-.3-.3-.4-.2-1.2-.4-2.6-.7-1.1-.2-1.8-.6-2.4-1.3l-2.1-2.1h15.8s2.2,2.1,2.2,2.1h-4.3ZM581.2,219c-.6,0-1-.2-1.4-.6-.4-.4-.6-.8-.6-1.4,0-.5.2-.9.5-1.3.3-.4.8-.5,1.3-.5.6,0,1,.2,1.4.6.4.4.6.8.6,1.3,0,.5-.2.9-.5,1.3-.3.4-.8.6-1.3.6ZM585.3,204.6h-4.2c.3.2.5.4.8.6.2.2.9,1,2.2,2.6-.5.6-1.1,1.1-1.8,1.7-.3.3-.9.9-1.7,1.8,1.8.7,3.3,1.9,4.6,3.6v-10.2Z"/>
    <path class="st3" d="M591.7,204.1c-.1-1.4-.2-2.9-.2-4.6l1.2,1c0,.6.2,1.2.4,1.6,0,.1.2.3.3.4h2.2s2.1,2.1,2.1,2.1h-4.1s0,16.2,0,16.2l-2-2.2v-11.3c0-.6-.1-1.1-.4-1.4-.6-.8-1.3-1.3-2.1-1.3-.1,0-.3,0-.5,0l-2.1-2c1.3-.1,2.3-.2,3,0,1,.1,1.7.7,2.2,1.6Z"/>
  </g>
  <path class="st2" d="M325.8,171s1.2.6,1.8,1.1c1.9,1.4,4.9,4,4.9,9.1,0,4.9-2.5,7.7-5,9.2,1.7-1.6,3.5-5.6,3.5-8.6,0-7.6-7.1-10.2-7.1-10.2,0,0,4.6,3,4.6,9.6,0,5.4-4.1,6.3-4.1,10.3,0,1.4.5,4.8,3,6.9,0,0-.8-2.3,1.4-4.7,2-2.2,9.1-5.6,6.5-14,.4.1,1.5.6,2.4-1.5.9-2.1-.5-4.2-.5-4.2,0,0,.2,1.6-.5,2.4-.6.7-1.5.3-2.1,0-1.4-.8-2.8-4.8-8.8-5.4"/>
  <path class="st10" d="M352.5,169.1c1.6-6.2-6.8-8.1-7.7-3.2-.3,1-1.4,4.7-5,6.1,1.9-1.3,2.9-3.2,2.3-5.2-3.1,5.2-10.3,1.3-13.1-2.5,2.1,9.2,20.6,16.1,23.6,4.8"/>
  <path class="st5" d="M315.6,188c-3,.8-2.1,2.9-1.1,3.1.9.1.3,1.3-.6,2.2-.7.4-1.3.8-2,1.1,3-.9,6.2-3.2,8.5-6.5,4.3-6.2,4.5-13.6.3-16.7-.2-.1-.4-.2-.5-.4,3.3,2.9,3.6,8.7,1,14.1-.6.9-2,2.1-5.5,3"/>
  <path class="st2" d="M263.8,33.2c-12.3,17.8.2,35.8.2,35.8,0,0-6-14.8,4.8-30.4,8.8-12.8,19.9-7.8,26.6-17.4,2.3-3.4,6.7-12,4-21.2,0,0-1.7,6.7-11,8.8-8.4,1.9-30.6-2.1-38.1,22-.8-1.1-2.6-4-8-.5-5.5,3.6-5.7,10.6-5.7,10.6,0,0,2.2-4.2,5-4.7,2.6-.5,3.9,1.7,4.9,3.6,2.1,4.1-1.1,16.1,11.9,27.3,0,0-1.8-3.5-2.4-5.5-2.3-6.6-4.9-17.6,3.3-29.6,7.9-11.4,18.5-14,26.7-13.2-6.6.8-17.3,7.2-22.3,14.5"/>
  <path class="st10" d="M219.3,68.4c-4.2,10.9,10.6,16.1,13.3,7.5.8-1.8,3.5-8.2,10.4-10-3.7,2-5.9,5.3-5.2,8.9,6.8-8.7,18.9-.1,23.3,7.3-1.9-17.1-34.1-33.7-41.8-13.7"/>
  <path class="st5" d="M293.2,38.7c2.9-.7,8.4-.7,17.5,4.1,8,4.2,9.9-2.3,8.2-4.4-1.6-2,1.7-3.5,5.5-3.6,2.2.4,4.3.9,6.4,1.6-8.2-4-19.2-5.1-30.6-2.4-20.9,4.9-35.1,20.8-31.8,35.4.1.6.3,1.2.5,1.8-1.6-12.6,8.5-25.6,24.4-32.4"/>
  <polygon class="st9" points="409.8 179.4 413.9 159.2 405.6 179.4 387.5 179.4 386.7 158.1 383.2 179.4 364.1 179.4 377.9 103.3 402.4 103.3 403.7 136.9 417.7 103.3 442.7 103.3 429 179.4 409.8 179.4"/>
  <path class="st9" d="M437.9,107.4h0M437.9,107.4l-12.2,68.1h-11.1s11.5-56.5,11.5-56.5l-23.1,56.5h-11.7s-2.1-56.9-2.1-56.9l-9.4,56.9h-11s12.3-68.1,12.3-68.1h17.4s1.8,47.7,1.8,47.7l19.9-47.7h17.6M447.4,99.3h-9.5s-17.6,0-17.6,0h-5.2s-2,4.9-2,4.9l-6.1,14.5-.4-11.7-.3-7.7h-7.6s-17.4,0-17.4,0h-6.6s-1.2,6.6-1.2,6.6l-12.3,68.1-1.7,9.5h9.5s11,0,11,0h6.7s4.8,0,4.8,0h11.7s5.3,0,5.3,0h6.4s11.1,0,11.1,0h6.6s1.2-6.6,1.2-6.6l12.2-68.1,1.7-9.5ZM437.9,99.3h0s0,0,0,0ZM437.9,115.4h0s0,0,0,0Z"/>
  <path class="st9" d="M458.3,180.5c-6.7,0-12.4-2.5-16.8-7.5-4.4-4.8-6.6-11.4-6.6-19.4,0-8.4,2.4-15.9,7.1-22.4,5-6.8,12-10.3,20.8-10.3,6.2,0,11.4,2.3,15.3,6.8,3.8,4.4,5.7,10.6,5.7,18.4,0,3.5-.3,6.7-.9,9.5l-.7,3.2h-.4s1.4.3,1.4.3l-1.9,4.6c-2.3,5.5-5.5,9.7-9.5,12.5-4,2.9-8.6,4.3-13.6,4.3ZM454.3,158.9c.2,1,.7,1.9,1.2,2.6,1.1,1.4,2.1,1.5,2.9,1.5.9,0,3.1,0,5.2-4.1h-9.3ZM465.3,142.8c-.2-1.3-.6-2.3-1.1-3-.7-.9-1.5-1.2-2.7-1.2-.8,0-2,.2-3.6,1.8-.6.6-1.1,1.4-1.5,2.4h8.8Z"/>
  <path class="st9" d="M462.8,125.1c5.1,0,9.2,1.8,12.4,5.4,3.2,3.6,4.8,8.9,4.8,15.7,0,3.2-.3,6.1-.8,8.7h-29.1s0,1.2,0,1.2c0,3.3.8,5.9,2.5,7.9,1.6,2,3.6,3,5.9,3,3.8,0,6.8-2.3,9-6.9l10.4,2c-2,4.8-4.7,8.4-8.1,10.8-3.4,2.4-7.2,3.6-11.4,3.6-5.6,0-10.2-2.1-13.9-6.1-3.7-4.1-5.5-9.6-5.5-16.7,0-7.6,2.1-14.2,6.3-20,4.2-5.8,10.1-8.6,17.6-8.6M451.2,146.8h18.2s0-1.3,0-1.3c0-3.7-.7-6.5-2.2-8.3-1.5-1.8-3.4-2.7-5.7-2.7-2.4,0-4.5,1-6.4,3.1-1.9,2.1-3.2,5.1-3.9,9.1M462.8,117c-10,0-18.3,4.1-24,11.9-5.2,7.2-7.8,15.5-7.8,24.8,0,9.1,2.6,16.5,7.6,22.1,5.2,5.7,12,8.8,19.7,8.8,5.8,0,11.2-1.7,15.9-5,4.6-3.2,8.2-8,10.9-14.2l3.9-9.2-1.9-.4c.5-2.9.8-6.1.8-9.6,0-8.8-2.3-15.9-6.7-21-4.7-5.3-11-8.1-18.3-8.2Z"/>
  <path class="st9" d="M499.4,180.5c-5.4,0-10.1-2.3-13.6-6.7-3.3-4.1-4.9-10.2-4.9-18,0-8.9,2.2-16.8,6.5-23.7,4.7-7.4,10.8-11.2,18.4-11.2,4,0,7.4,1.1,10.4,3.1l4-20.8h19.6s-14.4,76.1-14.4,76.1h-19.1s0-.1,0-.1c-2.1.8-4.4,1.2-6.9,1.2ZM507.4,138.9c-.8,0-1.8.6-2.4,1.2-.6.5-1.9,2-3.2,5.6-1.1,3-1.6,6.3-1.6,9.7,0,2.6.5,4.6,1.4,5.8.9,1.2,1.7,1.4,2.4,1.4.9,0,1.8-.4,2.7-1.2.6-.5,1.8-1.8,3.1-5.3,1.1-2.9,1.6-6,1.6-9.1,0-2.8-.5-4.9-1.6-6.4-1.2-1.7-2.1-1.7-2.4-1.7Z"/>
  <path class="st9" d="M534.9,107.4l-12.9,68.1h-11s1-5.4,1-5.4c-2.1,2.4-4.1,4.1-6.1,5.1-2,1-4.2,1.4-6.5,1.4-4.3,0-7.8-1.7-10.5-5.1-2.7-3.4-4.1-8.6-4.1-15.5,0-8.1,2-15.3,5.9-21.5,3.9-6.2,8.9-9.3,15-9.3,5.7,0,9.9,2.6,12.7,7.9l4.8-25.6h11.5M503.9,166.5c1.8,0,3.5-.7,5.2-2,1.7-1.3,3.1-3.7,4.4-7.1,1.3-3.4,1.9-6.9,1.9-10.5s-.8-6.6-2.4-8.8c-1.6-2.2-3.5-3.3-5.6-3.3-1.6,0-3.3.7-5,2.1-1.7,1.4-3.2,3.8-4.4,7.3-1.3,3.5-1.9,7.2-1.9,11,0,3.6.8,6.3,2.3,8.3,1.5,1.9,3.3,2.9,5.5,2.9M544.5,99.3h-9.6s-11.5,0-11.5,0h-6.5s-1.2,6.5-1.2,6.5l-2.4,12.4c-2.3-.8-4.8-1.2-7.5-1.2-6.2,0-14.9,2.3-21.7,13-4.7,7.5-7.1,16.2-7.1,25.8,0,8.9,1.9,15.6,5.8,20.5,4.2,5.3,10,8.2,16.6,8.2,2.5,0,4.9-.4,7.2-1.1h4.5s11,0,11,0h6.5s1.2-6.5,1.2-6.5l12.9-68.1,1.8-9.5ZM534.9,115.4h0s0,0,0,0ZM504.4,158c-.1-.5-.3-1.3-.3-2.7,0-2.9.5-5.6,1.4-8.3.6-1.8,1.2-2.8,1.6-3.3.3.8.4,1.9.4,3.2,0,2.7-.4,5.2-1.4,7.7-.8,2.1-1.4,3.1-1.7,3.4Z"/>
  <polygon class="st9" points="529.1 179.4 539.5 122.2 539.5 122.2 542.9 103.4 562.6 103.4 558.9 123.5 558.9 123.5 548.8 179.4 529.1 179.4"/>
  <path class="st9" d="M557.8,107.4l-2.2,12.1h-11.6s2.2-12.1,2.2-12.1h11.6M554.4,126.2l-8.9,49.2h-11.6s8.9-49.2,8.9-49.2h11.6M567.3,99.3h-9.5s-11.6,0-11.6,0h-6.6s-1.2,6.6-1.2,6.6l-2.2,12.1h0c0,0,0,0,0,0l-1.2,6.6-8.9,49.2-1.7,9.5h9.5s11.6,0,11.6,0h6.6s1.2-6.6,1.2-6.6l8.9-49.2h0c0,0,0,0,0,0l1.2-6.6,2.2-12.1,1.7-9.5ZM557.8,115.4h0s0,0,0,0ZM563.9,118.1h0s0,0,0,0ZM554.4,134.2h0s0,0,0,0Z"/>
  <path class="st9" d="M569,180.6c-4.4,0-8.4-1.8-11.4-5.2-2.9-3.3-4.4-7.7-4.4-13.1,0-6.1,1.7-10.9,5.2-14.4,1.9-2,4.5-3.4,7.7-4.5l-9.5-1,1.4-4.7c1.6-5.4,4.5-9.5,8.5-12.4,4-2.8,9-4.3,14.9-4.3,6.2,0,11.1,1.5,14.6,4.6,3.7,3.2,5.6,7.5,5.6,12.7,0,1.6-.1,3.4-.4,5.2-.3,1.7-1.3,6.1-3,13.4-1.7,6.9-2,10-2,11.4,0,1.8.3,3.8,1,5.9l1.6,5.2h-19.9s-.5-1.8-.5-1.8c-.4.2-.8.5-1.1.7-2.7,1.5-5.5,2.2-8.2,2.2ZM578.3,157.6c-3.9.7-5.1,1.5-5.4,1.7-.7.5-.9.9-.9,1.8,0,.8.2,1.1.3,1.2.1.1.3.3.8.3.8,0,1.6-.2,2.4-.7.8-.5,1.4-1.2,1.9-2.1.2-.4.5-1,.9-2.2ZM580.5,138.6c-2.5,0-3.1.8-3.5,2.5v.5c2.5-.3,4.2-.6,5.4-.9.2-.7.2-1.1.2-1.3,0-.3,0-.3-.2-.4-.3-.3-1-.4-1.9-.4Z"/>
  <path class="st9" d="M581.4,125.1c5.2,0,9.2,1.2,12,3.6,2.8,2.4,4.2,5.6,4.2,9.7,0,1.4-.1,2.9-.4,4.5-.3,1.6-1.2,6-2.9,13.1-1.4,5.9-2.1,10-2.1,12.3,0,2.2.4,4.5,1.2,7.1h-11.5c-.5-1.8-.8-3.7-.9-5.6-1.6,2.2-3.5,3.9-5.7,5-2.1,1.2-4.3,1.7-6.4,1.7-3.3,0-6.1-1.3-8.4-3.9-2.3-2.6-3.4-6.1-3.4-10.4,0-5,1.3-8.8,4-11.5,2.7-2.7,7.1-4.3,13.4-4.9,5.5-.5,9.2-1.2,11-1.9.6-1.9.9-3.4.9-4.5,0-1.5-.5-2.6-1.6-3.5-1.1-.9-2.5-1.3-4.4-1.3-4,0-6.5,1.9-7.4,5.6l-11.4-1.2c1.4-4.5,3.7-7.9,7-10.3,3.3-2.4,7.5-3.5,12.7-3.5M583.7,152.5c-.7.2-1.6.4-2.7.6-5.3.7-8.8,1.7-10.4,3-1.7,1.2-2.5,2.9-2.5,5,0,1.6.5,3,1.4,4,1,1,2.2,1.5,3.6,1.5,1.5,0,3-.4,4.4-1.3,1.4-.8,2.5-2,3.4-3.5.8-1.5,1.7-4,2.4-7.5l.4-1.8M581.4,117c-6.7,0-12.5,1.7-17.2,5-4.8,3.4-8.2,8.3-10.1,14.6l-2.8,9.3,3.1.3c-3.5,4.1-5.3,9.5-5.3,16,0,6.3,1.8,11.6,5.4,15.7,3.8,4.3,8.7,6.6,14.3,6.6,2.3,0,4.5-.4,6.8-1.2h0c0,0,6.1,0,6.1,0h11.5s10.7,0,10.7,0l-3.1-10.4c-.5-1.8-.8-3.4-.8-4.8,0-.6.1-3.1,1.9-10.4,2.3-9.9,2.9-12.5,3-13.7.3-2,.5-4,.5-5.8,0-6.4-2.4-11.8-7-15.8-4.3-3.7-10-5.6-17.2-5.6Z"/>
  <polygon class="st4" points="403 175.4 391.3 175.4 389.2 118.5 379.8 175.4 368.9 175.4 381.2 107.4 398.6 107.4 400.4 155 420.3 107.4 437.9 107.4 425.7 175.4 414.6 175.4 426.1 119 403 175.4"/>
  <path class="st4" d="M403,175.4v-5s-6.9,0-6.9,0l-1.9-52c0-2.6-2.1-4.7-4.6-4.8-2.5-.2-4.8,1.6-5.2,4.2l-8.7,52.7h-.8s10.5-58,10.5-58h8.5s1.6,42.9,1.6,42.9c0,2.3,1.8,4.3,4.1,4.7,2.3.4,4.5-.8,5.4-3l18.6-44.6h8.4s-10.4,58-10.4,58h-.9s10.2-50.4,10.2-50.4c.5-2.5-1-5-3.4-5.8-2.4-.8-5,.5-6,2.9l-23.1,56.5,4.6,1.9v-5s0,5,0,5l4.6,1.9,3.3-8.1-1,5.1c-.3,1.5,0,3,1,4.2.9,1.2,2.3,1.8,3.8,1.8h11.1c2.4,0,4.4-1.7,4.9-4.1l12.2-68.1c.3-1.5-.1-3-1.1-4.1-.9-1.1-2.3-1.8-3.8-1.8h-17.6c-2,0-3.8,1.2-4.6,3.1l-11.3,27-1-25.2c-.1-2.7-2.3-4.8-4.9-4.8h-17.4c-2.4,0-4.4,1.7-4.9,4.1l-12.3,68.1c-.3,1.5.1,3,1.1,4.1.9,1.1,2.3,1.8,3.8,1.8h11c2.4,0,4.5-1.8,4.9-4.2l1.4-8.3.3,7.6c0,2.7,2.3,4.8,4.9,4.8h11.7c2,0,3.8-1.2,4.6-3.1l-4.6-1.9Z"/>
  <path class="st4" d="M479.1,154.9h-29.1s0,1.2,0,1.2c0,3.3.8,5.9,2.5,7.9,1.6,2,3.6,3,5.9,3,3.8,0,6.8-2.3,9-6.9l10.4,2c-2,4.8-4.7,8.4-8.1,10.8-3.4,2.4-7.2,3.6-11.4,3.6-5.6,0-10.2-2.1-13.9-6.1-3.7-4.1-5.5-9.6-5.5-16.7,0-7.6,2.1-14.2,6.3-20,4.2-5.8,10.1-8.6,17.6-8.6,5.1,0,9.2,1.8,12.4,5.4,3.2,3.6,4.8,8.9,4.8,15.7,0,3.2-.3,6.1-.8,8.7ZM469.4,146.8v-1.3c0-3.7-.7-6.5-2.2-8.3-1.5-1.8-3.4-2.7-5.7-2.7-2.4,0-4.5,1-6.4,3.1-1.9,2.1-3.2,5.1-3.9,9.1h18.2Z"/>
  <path class="st4" d="M479.1,154.9v-5s-29.1,0-29.1,0c-1.3,0-2.6.5-3.5,1.5-.9.9-1.4,2.2-1.4,3.5v1.3c0,2.1.3,4.1.8,6,.6,1.9,1.5,3.7,2.8,5.2h0c1.2,1.4,2.6,2.6,4.3,3.5,1.7.8,3.5,1.3,5.4,1.3,1.4,0,2.9-.2,4.3-.7,1-.3,2-.8,2.9-1.4,1.4-.9,2.6-2,3.6-3.3,1-1.3,1.9-2.7,2.7-4.3l-4.4-2.2-.9,4.9,10.4,2,.9-4.9-4.5-2c-.9,2.1-1.9,3.8-2.9,5.2-1.1,1.4-2.2,2.5-3.5,3.4h0c-1.3.9-2.6,1.6-4,2-1.4.4-2.9.7-4.5.7-2.2,0-4-.4-5.7-1.1-1.6-.7-3.1-1.8-4.6-3.4h0c-1.4-1.5-2.4-3.3-3.1-5.5-.7-2.2-1.1-4.8-1.1-7.8,0-3.3.5-6.3,1.3-9.2.9-2.8,2.2-5.4,4-7.9.8-1.2,1.7-2.1,2.7-2.9,1.4-1.2,3-2.1,4.8-2.7,1.8-.6,3.8-.9,6.2-1,2,0,3.6.3,4.9.9,1.4.6,2.6,1.5,3.7,2.8,1.1,1.2,1.9,2.8,2.5,4.8.6,2,1,4.6,1,7.6,0,3-.2,5.5-.7,7.6l4.8,1v-5s0,5,0,5l4.8,1c.6-3,.9-6.2.9-9.7,0-3.8-.4-7.3-1.4-10.5-1-3.2-2.5-6.1-4.6-8.5-2-2.3-4.5-4.2-7.2-5.4-2.7-1.2-5.8-1.8-8.9-1.8-2.2,0-4.3.2-6.4.6-3.1.7-5.9,1.8-8.5,3.5-2.6,1.7-4.8,3.9-6.7,6.5-2.4,3.3-4.2,6.9-5.5,10.8-1.2,3.9-1.8,8-1.8,12.2,0,4,.5,7.6,1.6,11,1.1,3.4,2.9,6.4,5.2,9h0c2.3,2.5,4.9,4.5,7.9,5.8,3,1.3,6.3,2,9.6,2,2.6,0,5.1-.4,7.5-1.1,2.4-.8,4.7-1.9,6.7-3.4h0c2.1-1.5,4-3.4,5.7-5.6,1.6-2.2,3-4.6,4.2-7.4.6-1.4.5-3-.2-4.3-.7-1.3-2-2.3-3.4-2.6l-10.4-2c-2.2-.4-4.4.7-5.4,2.7-.4.9-.9,1.6-1.3,2.2-.6.8-1.2,1.3-1.7,1.5-.2.1-.5.2-.7.3-.3,0-.5.1-.9.1-.5,0-.7,0-1-.2-.3-.1-.7-.4-1.1-1h0c-.4-.5-.7-1-.9-1.7-.2-.7-.4-1.7-.4-3v-1.3s-4.9,0-4.9,0v5s29.1,0,29.1,0c2.3,0,4.4-1.7,4.8-4l-4.8-1ZM469.4,146.8l4.9.2v-1.3s0-.2,0-.2c0-2.2-.2-4.2-.7-6.2-.3-1-.6-1.9-1-2.8-.4-.9-1-1.7-1.6-2.5h0c-1.1-1.4-2.6-2.6-4.3-3.4-1.7-.8-3.5-1.1-5.3-1.1-1.9,0-3.8.4-5.5,1.3-1.7.8-3.2,2-4.5,3.4-1.4,1.5-2.5,3.3-3.4,5.3-.8,2-1.4,4.1-1.8,6.5-.2,1.4.2,2.9,1.1,4.1.9,1.1,2.3,1.8,3.8,1.8h18.2c2.7,0,4.8-2.1,4.9-4.8l-4.9-.2v-5s-18.2,0-18.2,0v5s4.9.8,4.9.8c.3-1.7.7-3.1,1.1-4.1.5-1.1,1-1.8,1.5-2.4.6-.7,1.1-1,1.6-1.2.4-.2.8-.3,1.3-.3.6,0,.9,0,1.1.2.2.1.5.3.8.7h0c0,.1.2.3.3.5.2.4.4.9.5,1.7.1.8.2,1.7.2,2.9h4.9s-4.9-.2-4.9-.2v1.3s4.9.2,4.9.2v-5s0,5,0,5Z"/>
  <path class="st4" d="M522,175.4h-11s1-5.4,1-5.4c-2.1,2.4-4.1,4.1-6.1,5.1-2,1-4.2,1.4-6.5,1.4-4.3,0-7.8-1.7-10.5-5.1-2.7-3.4-4.1-8.6-4.1-15.5,0-8.1,2-15.3,5.9-21.5,3.9-6.2,8.9-9.3,15-9.3,5.7,0,9.9,2.6,12.7,7.9l4.8-25.6h11.5s-12.9,68.1-12.9,68.1ZM496.2,155.3c0,3.6.8,6.3,2.3,8.3,1.5,1.9,3.3,2.9,5.5,2.9,1.8,0,3.5-.7,5.2-2,1.7-1.3,3.1-3.7,4.4-7.1,1.3-3.4,1.9-6.9,1.9-10.5,0-3.7-.8-6.6-2.4-8.8-1.6-2.2-3.5-3.3-5.6-3.3-1.6,0-3.3.7-5,2.1-1.7,1.4-3.2,3.8-4.4,7.3-1.3,3.5-1.9,7.2-1.9,11Z"/>
  <path class="st4" d="M522,175.4v-5s-11,0-11,0v5s4.9,1,4.9,1l1-5.4c.4-2.2-.7-4.5-2.7-5.5-2-1-4.4-.5-5.9,1.2-.9,1-1.8,1.9-2.5,2.5-.8.6-1.5,1.1-2,1.4h0c-1.3.6-2.7,1-4.4,1-1.5,0-2.6-.3-3.7-.8-1-.5-2-1.3-2.9-2.5h0c-.4-.5-.8-1.2-1.2-1.9-.5-1.1-1-2.6-1.3-4.3-.3-1.7-.5-3.8-.5-6.1,0-3.7.4-7,1.3-10.1.8-3.1,2.1-6,3.8-8.7h0c.8-1.3,1.7-2.4,2.5-3.3,1.3-1.3,2.6-2.2,3.9-2.8,1.3-.6,2.8-.9,4.4-.9,1,0,1.9.1,2.7.3,1.2.3,2.1.8,3.1,1.6.9.8,1.8,1.8,2.6,3.3,1,1.9,3,2.9,5.1,2.5,2.1-.3,3.7-1.9,4.1-4l4.1-21.5h1.5s-11.7,62.1-11.7,62.1l4.9.9v-5s0,5,0,5l4.9.9,12.9-68.1c.3-1.5-.1-3-1-4.1-.9-1.1-2.3-1.8-3.8-1.8h-11.5c-2.4,0-4.4,1.7-4.9,4.1l-4.8,25.6,4.9.9,4.3-2.4c-.9-1.6-1.9-3.1-3.1-4.4-1.8-2-3.9-3.5-6.3-4.6-2.4-1-5-1.5-7.7-1.5-1.9,0-3.9.2-5.7.8-2.8.8-5.3,2.1-7.6,4-2.3,1.9-4.2,4.2-5.9,6.9h0c-2.2,3.5-3.9,7.3-5,11.4-1.1,4.1-1.6,8.3-1.6,12.8,0,3.8.4,7.2,1.2,10.3.8,3.1,2.1,5.9,4,8.3h0c1.7,2.2,3.9,4,6.3,5.2,2.5,1.2,5.2,1.8,8,1.8,3,0,6-.6,8.7-1.9h0c1.4-.7,2.7-1.6,4-2.6,1.3-1,2.5-2.3,3.7-3.6l-3.7-3.3-4.9-1-1,5.4c-.3,1.5,0,3,1,4.1.9,1.2,2.3,1.8,3.8,1.8h11c2.4,0,4.4-1.7,4.9-4.1l-4.9-.9ZM496.2,155.3h-4.9c0,2.1.2,4.2.7,6.1.5,1.9,1.4,3.7,2.6,5.3,1.1,1.4,2.5,2.7,4.1,3.5,1.6.9,3.5,1.3,5.3,1.3,1.5,0,3-.3,4.4-.8,1.4-.5,2.7-1.3,3.9-2.2,1.4-1.1,2.5-2.5,3.5-4,1-1.6,1.8-3.3,2.5-5.2h0c1.5-3.9,2.2-8.1,2.2-12.3,0-2.2-.2-4.3-.8-6.3-.5-2-1.4-3.9-2.6-5.5h0c-1.1-1.5-2.5-2.8-4.1-3.8-.8-.5-1.7-.9-2.6-1.1-.9-.3-1.9-.4-2.8-.4-1.5,0-3,.3-4.4.9-1.4.6-2.6,1.4-3.7,2.3h0c-1.4,1.2-2.5,2.6-3.5,4.2-1,1.6-1.8,3.4-2.5,5.4-1.5,4.1-2.2,8.3-2.2,12.7h4.9s4.9,0,4.9,0c0-3.3.5-6.4,1.6-9.3.5-1.5,1.1-2.7,1.6-3.6.5-.9,1-1.4,1.3-1.6h0c.5-.5,1-.7,1.3-.8.3-.1.4-.1.5-.1.1,0,.2,0,.2,0,0,0,.2,0,.5.3.2.2.6.5.9,1h0c.4.5.7,1.2,1,2.2.3.9.4,2.1.4,3.6,0,3-.5,5.9-1.6,8.7h0c-.5,1.4-1.1,2.6-1.6,3.4-.5.8-1,1.3-1.2,1.5-.5.4-.9.6-1.3.8-.3.1-.6.2-.9.2-.4,0-.5,0-.7-.2-.2-.1-.5-.3-.9-.8-.3-.4-.6-.9-.8-1.8-.2-.8-.4-2-.4-3.4h-4.9Z"/>
  <path class="st4" d="M542.8,126.2h11.6s-8.9,49.2-8.9,49.2h-11.6s8.9-49.2,8.9-49.2ZM546.2,107.4h11.6s-2.2,12.1-2.2,12.1h-11.6s2.2-12.1,2.2-12.1Z"/>
  <path class="st4" d="M542.8,126.2v5s5.7,0,5.7,0l-7.1,39.2h-1.6s7.9-43.3,7.9-43.3l-4.9-.9v5s0-5,0-5l-4.9-.9-8.9,49.2c-.3,1.5.1,3,1.1,4.1.9,1.1,2.3,1.8,3.8,1.8h11.6c2.4,0,4.4-1.7,4.9-4.1l8.9-49.2c.3-1.5-.1-3-1.1-4.1-.9-1.1-2.3-1.8-3.8-1.8h-11.6c-2.4,0-4.4,1.7-4.9,4.1l4.9.9ZM546.2,107.4v5s5.7,0,5.7,0l-.4,2.1h-1.6s1.1-6.2,1.1-6.2l-4.9-.9v5s0-5,0-5l-4.9-.9-2.2,12.1c-.3,1.5.1,3,1.1,4.1.9,1.1,2.3,1.8,3.8,1.8h11.6c2.4,0,4.4-1.7,4.9-4.1l2.2-12.1c.3-1.5-.1-3-1.1-4.1-.9-1.1-2.3-1.8-3.8-1.8h-11.6c-2.4,0-4.4,1.7-4.9,4.1l4.9.9Z"/>
  <path class="st4" d="M573.1,140.1l-11.4-1.2c1.4-4.5,3.7-7.9,7-10.3,3.3-2.4,7.5-3.5,12.7-3.5,5.2,0,9.2,1.2,12,3.6,2.8,2.4,4.2,5.6,4.2,9.7,0,1.4-.1,2.9-.4,4.5-.3,1.6-1.2,6-2.9,13.1-1.4,5.9-2.1,10-2.1,12.3,0,2.2.4,4.5,1.2,7.1h-11.5c-.5-1.8-.8-3.7-.9-5.6-1.6,2.2-3.5,3.9-5.7,5-2.1,1.2-4.3,1.7-6.4,1.7-3.3,0-6.1-1.3-8.4-3.9-2.3-2.6-3.4-6.1-3.4-10.4,0-5,1.3-8.8,4-11.5,2.7-2.7,7.1-4.3,13.4-4.9,5.5-.5,9.2-1.2,11-1.9.6-1.9.9-3.4.9-4.5,0-1.5-.5-2.6-1.6-3.5-1.1-.9-2.5-1.3-4.4-1.3-4,0-6.5,1.9-7.4,5.6ZM583.7,152.5c-.7.2-1.6.4-2.7.6-5.3.7-8.8,1.7-10.4,3-1.7,1.2-2.5,2.9-2.5,5,0,1.6.5,3,1.4,4,1,1,2.2,1.5,3.6,1.5,1.5,0,3-.4,4.4-1.3,1.4-.8,2.5-2,3.4-3.5.8-1.5,1.7-4,2.4-7.5l.4-1.8Z"/>
  <path class="st4" d="M573.1,140.1l.5-5-11.4-1.2-.5,5,4.7,1.5c.5-1.8,1.3-3.3,2.1-4.6.8-1.2,1.8-2.2,3-3.1h0c1.2-.8,2.5-1.5,4.1-1.9,1.6-.5,3.5-.7,5.7-.7,2.2,0,4.1.3,5.5.7,1.4.4,2.5,1,3.3,1.7.9.8,1.4,1.5,1.8,2.4.4.9.6,2,.6,3.4,0,1.1-.1,2.3-.3,3.7,0,.3-.1.8-.3,1.5-.4,2.1-1.3,5.9-2.6,11.2h0c-.7,3-1.3,5.6-1.7,7.8-.2,1.1-.3,2.1-.4,3.1-.1.9-.2,1.8-.2,2.6,0,2.8.5,5.6,1.4,8.6l4.7-1.5v-5s-11.5,0-11.5,0v5s4.8-1.3,4.8-1.3c-.4-1.5-.6-3-.7-4.6-.1-2.1-1.5-3.9-3.5-4.5-2-.6-4.1,0-5.4,1.8-1.3,1.7-2.6,2.8-4,3.6h0c-.8.4-1.5.7-2.1.9-.7.2-1.3.3-1.9.3-1,0-1.8-.2-2.6-.5-.7-.3-1.4-.8-2.2-1.7h0c-.7-.8-1.2-1.7-1.6-2.8-.4-1.1-.6-2.5-.6-4.3,0-2,.3-3.7.7-4.9.5-1.3,1-2.2,1.8-3h0c.3-.4.8-.7,1.4-1.1.9-.5,2-1,3.5-1.4,1.5-.4,3.3-.7,5.4-.9h0c2.8-.3,5.2-.6,7.3-.9,1-.2,1.9-.4,2.8-.6.8-.2,1.6-.4,2.4-.7,1.4-.5,2.4-1.7,2.9-3.1.3-1.1.6-2.1.8-3.1.2-1,.3-2,.3-3,0-1.4-.3-2.8-.9-4.1-.6-1.3-1.5-2.5-2.6-3.3h0c-1.1-.9-2.3-1.6-3.6-1.9-1.3-.4-2.6-.5-3.9-.6-1.4,0-2.7.2-4.1.5-1,.3-2,.7-2.9,1.2-1.4.8-2.5,2-3.4,3.3-.9,1.3-1.5,2.8-1.8,4.3l4.8,1.2.5-5-.5,5,4.8,1.2c.1-.5.3-.8.4-1,0-.1.1-.2.2-.3,0,0,.2-.2.5-.3.3,0,.8-.2,1.5-.2.5,0,.9,0,1.1.1,0,0,.1,0,.2,0h0s0,0,0,0h0s.4-.5.4-.5l-.6.3c0,.1.1.2.1.2l.4-.5-.6.3.6-.3h-.6c0,.1,0,.2,0,.3l.6-.3h-.6c0,.1.2,0,.2,0h-.2s0,0,0,0h.2s-.2,0-.2,0h0s0,0,0,0h0s0,0,0,0h0c0,.1,0,.5-.1,1-.1.5-.3,1.2-.5,2l4.7,1.6-1.8-4.7c-.2,0-.6.2-1.1.3-.8.2-2,.4-3.4.6-1.4.2-3.2.4-5.2.6h0c-3.4.3-6.5.9-9.3,1.9-1.4.5-2.7,1.1-3.9,1.8-1.2.7-2.3,1.6-3.3,2.6h0c-1.9,1.9-3.3,4.2-4.2,6.8-.9,2.6-1.3,5.3-1.3,8.3,0,2.6.3,5.1,1.1,7.4.8,2.3,2,4.5,3.5,6.3h0c1.5,1.8,3.4,3.2,5.5,4.2,2.1,1,4.4,1.4,6.7,1.4,1.5,0,3-.2,4.5-.6,1.5-.4,2.9-1,4.2-1.7h0c2.8-1.5,5.3-3.7,7.3-6.4l-3.9-3-4.9.3c.1,2.3.5,4.5,1,6.6.6,2.2,2.5,3.7,4.8,3.7h11.5c1.6,0,3-.8,4-2,.9-1.3,1.2-2.9.8-4.4-.7-2.2-.9-4.1-.9-5.6,0-.3,0-.9.1-1.5.1-1,.3-2.3.6-4,.3-1.6.7-3.5,1.2-5.6h0c.8-3.6,1.5-6.5,2-8.7.2-1.1.5-2.1.6-2.8.2-.8.3-1.4.4-1.9.3-1.8.5-3.6.5-5.3,0-2.6-.5-5.1-1.5-7.5-1-2.3-2.6-4.4-4.5-6-2-1.7-4.3-2.9-6.9-3.7-2.6-.8-5.3-1.1-8.3-1.1-2.9,0-5.7.3-8.3,1.1-2.6.7-5,1.9-7.2,3.4h0c-2.1,1.5-4,3.4-5.5,5.6-1.5,2.2-2.6,4.7-3.4,7.4-.4,1.4-.2,3,.6,4.2.8,1.3,2.1,2.1,3.6,2.2l11.4,1.2c2.5.3,4.7-1.4,5.3-3.8l-4.8-1.2ZM583.7,152.5l-1.4-4.8c-.4.1-1.1.3-2.1.5l.8,5-.7-5c-2.8.4-5.2.9-7.2,1.4-1,.3-2,.6-2.9,1-.9.4-1.7.8-2.6,1.4h0c-1.4,1-2.6,2.4-3.4,4-.4.8-.7,1.6-.9,2.5-.2.9-.3,1.7-.3,2.6,0,1.3.2,2.6.7,3.9.5,1.3,1.2,2.5,2.1,3.5h0c.9,1,2.1,1.8,3.3,2.3,1.3.5,2.6.8,3.9.8,1.2,0,2.4-.2,3.6-.5,1.2-.3,2.3-.8,3.3-1.5,1.1-.6,2.1-1.4,2.9-2.4.9-.9,1.6-1.9,2.2-3.1h0c.7-1.2,1.2-2.4,1.6-3.9.5-1.5.9-3.1,1.3-4.9l-4.8-1.1,4.8,1.2.4-1.8c.4-1.7-.1-3.6-1.4-4.8-1.3-1.2-3.1-1.7-4.8-1.2l1.4,4.8-4.8-1.2-.4,1.8h0c-.4,1.7-.7,3.1-1.1,4.1-.3,1-.7,1.8-.8,2.1h0c-.2.4-.5.7-.7,1-.3.3-.5.5-.9.7-.4.2-.7.4-1,.4-.3,0-.6.1-.9.1,0,0-.1,0-.2,0h0s0,.3,0,.3l.2-.3h0s0,.3,0,.3l.2-.3v.2c-.1,0,0-.2,0-.2h0s-.1.2-.1.2l.2-.2h0s0,0,0,0h0s0,0,0,0h0s0,0,0,0h0s0,0,0,0h0s0,0,0,0h0s0,0,0,0h0s0,0,0-.1c0,0,0-.2,0-.4,0-.2,0-.3,0-.4,0-.1,0-.1,0-.2,0,0,.1-.2.4-.4h0s.2-.2.6-.3c.6-.3,1.6-.6,2.8-.9,1.3-.3,2.9-.6,4.7-.9h.1c1.3-.2,2.4-.5,3.4-.8l-1.4-4.8-4.8-1.2,4.8,1.2Z"/>
  <polygon class="st1" points="403 175.4 391.3 175.4 389.2 118.5 379.8 175.4 368.9 175.4 381.2 107.4 398.6 107.4 400.4 155 420.3 107.4 437.9 107.4 425.7 175.4 414.6 175.4 426.1 119 403 175.4"/>
  <path class="st1" d="M479.1,154.9h-29.1s0,1.2,0,1.2c0,3.3.8,5.9,2.5,7.9,1.6,2,3.6,3,5.9,3,3.8,0,6.8-2.3,9-6.9l10.4,2c-2,4.8-4.7,8.4-8.1,10.8-3.4,2.4-7.2,3.6-11.4,3.6-5.6,0-10.2-2.1-13.9-6.1-3.7-4.1-5.5-9.6-5.5-16.7,0-7.6,2.1-14.2,6.3-20,4.2-5.8,10.1-8.6,17.6-8.6,5.1,0,9.2,1.8,12.4,5.4,3.2,3.6,4.8,8.9,4.8,15.7,0,3.2-.3,6.1-.8,8.7ZM469.4,146.8v-1.3c0-3.7-.7-6.5-2.2-8.3-1.5-1.8-3.4-2.7-5.7-2.7-2.4,0-4.5,1-6.4,3.1-1.9,2.1-3.2,5.1-3.9,9.1h18.2Z"/>
  <path class="st1" d="M522,175.4h-11s1-5.4,1-5.4c-2.1,2.4-4.1,4.1-6.1,5.1-2,1-4.2,1.4-6.5,1.4-4.3,0-7.8-1.7-10.5-5.1-2.7-3.4-4.1-8.6-4.1-15.5,0-8.1,2-15.3,5.9-21.5,3.9-6.2,8.9-9.3,15-9.3,5.7,0,9.9,2.6,12.7,7.9l4.8-25.6h11.5s-12.9,68.1-12.9,68.1ZM496.2,155.3c0,3.6.8,6.3,2.3,8.3,1.5,1.9,3.3,2.9,5.5,2.9,1.8,0,3.5-.7,5.2-2,1.7-1.3,3.1-3.7,4.4-7.1,1.3-3.4,1.9-6.9,1.9-10.5,0-3.7-.8-6.6-2.4-8.8-1.6-2.2-3.5-3.3-5.6-3.3-1.6,0-3.3.7-5,2.1-1.7,1.4-3.2,3.8-4.4,7.3-1.3,3.5-1.9,7.2-1.9,11Z"/>
  <path class="st1" d="M542.8,126.2h11.6s-8.9,49.2-8.9,49.2h-11.6s8.9-49.2,8.9-49.2ZM546.2,107.4h11.6s-2.2,12.1-2.2,12.1h-11.6s2.2-12.1,2.2-12.1Z"/>
  <path class="st1" d="M573.1,140.1l-11.4-1.2c1.4-4.5,3.7-7.9,7-10.3,3.3-2.4,7.5-3.5,12.7-3.5,5.2,0,9.2,1.2,12,3.6,2.8,2.4,4.2,5.6,4.2,9.7,0,1.4-.1,2.9-.4,4.5-.3,1.6-1.2,6-2.9,13.1-1.4,5.9-2.1,10-2.1,12.3,0,2.2.4,4.5,1.2,7.1h-11.5c-.5-1.8-.8-3.7-.9-5.6-1.6,2.2-3.5,3.9-5.7,5-2.1,1.2-4.3,1.7-6.4,1.7-3.3,0-6.1-1.3-8.4-3.9-2.3-2.6-3.4-6.1-3.4-10.4,0-5,1.3-8.8,4-11.5,2.7-2.7,7.1-4.3,13.4-4.9,5.5-.5,9.2-1.2,11-1.9.6-1.9.9-3.4.9-4.5,0-1.5-.5-2.6-1.6-3.5-1.1-.9-2.5-1.3-4.4-1.3-4,0-6.5,1.9-7.4,5.6ZM583.7,152.5c-.7.2-1.6.4-2.7.6-5.3.7-8.8,1.7-10.4,3-1.7,1.2-2.5,2.9-2.5,5,0,1.6.5,3,1.4,4,1,1,2.2,1.5,3.6,1.5,1.5,0,3-.4,4.4-1.3,1.4-.8,2.5-2,3.4-3.5.8-1.5,1.7-4,2.4-7.5l.4-1.8Z"/>
  <path class="st8" d="M64.9,168.9v-16.6s-15.9,0-15.9,0c-3.1,6-5.3,11.7-6.8,16.6h22.7Z"/>
  <path class="st8" d="M64.9,168.9h9.4s0-26.1,0-26.1h-31s-2.6,5.1-2.6,5.1c-3.4,6.6-5.7,12.8-7.4,18.1l-3.9,12.4h45s0-9.5,0-9.5h-9.4s0-9.5,0-9.5h-22.7s0,9.5,0,9.5l9,2.9c1.4-4.4,3.4-9.6,6.2-15.1l-8.3-4.4v9.5s6.5,0,6.5,0v7.1s9.4,0,9.4,0v-9.5s0,9.5,0,9.5Z"/>
  <path class="st8" d="M76.3,168.9h15.2s0-59.4,0-59.4c-5.6,2.9-10.7,6.2-15.2,9.7v49.7Z"/>
  <path class="st8" d="M76.3,168.9v9.5s24.6,0,24.6,0v-84.5s-13.7,7.1-13.7,7.1c-6.1,3.2-11.6,6.8-16.6,10.6l-3.7,2.9v63.9s9.4,0,9.4,0v-9.5s9.4,0,9.4,0v-49.7s-9.4,0-9.4,0l5.7,7.6c4.1-3.1,8.6-6.1,13.8-8.8l-4.3-8.5h-9.4s0,49.8,0,49.8h-5.8s0,9.5,0,9.5h9.4s-9.4,0-9.4,0Z"/>
  <path class="st8" d="M106.4,168.9h15.2s0-22.7,0-22.7l6.9-9.1,14.7,31.9h16.1s-21-44.9-21-44.9l19.6-25.9h-18.7s-17.7,24.7-17.7,24.7v-23.9c-5.4,1.2-10.5,2.6-15.2,4.3v65.8Z"/>
  <path class="st8" d="M106.4,168.9v9.5s24.6,0,24.6,0v-29s5-6.6,5-6.6l-7.5-5.8-8.5,4,17.2,37.4h37s-24.9-53.2-24.9-53.2l27.7-36.6h-42.5s-20.5,28.6-20.5,28.6l7.6,5.6h9.4s0-35.7,0-35.7l-11.4,2.5c-5.8,1.2-11.2,2.8-16.3,4.6l-6.3,2.2v82.1s9.4,0,9.4,0v-9.5s9.4,0,9.4,0v-65.8s-9.4,0-9.4,0l3.1,9c4.4-1.5,9.1-2.8,14.1-3.9l-2-9.3h-9.4s0,53.2,0,53.2l31.9-44.5h13.9s0-9.5,0-9.5l-7.5-5.8-23.1,30.5,17.1,36.5h-1.3s0,9.5,0,9.5l8.5-4-21.2-46.1-18.3,24.1v16.4s-5.8,0-5.8,0v9.5s9.4,0,9.4,0h-9.4Z"/>
  <path class="st8" d="M204.7,100v28c0,9.6-.3,15.8-1,18.6-.7,2.8-2.1,5.1-4.2,6.9-2.1,1.8-4.5,2.7-7,2.7-2.2,0-4.1-.7-5.7-2.1-1.6-1.4-2.6-3.3-3-5.8-.5-2.5-.7-8.4-.7-17.7v-32.5s-15.2,0-15.2,0v44.8c0,7,.7,12.4,2.2,16.1,1.5,3.7,3.7,6.5,6.6,8.5,3,2,6.3,3,10.1,3,3.7,0,7.3-1.1,10.7-3.2,3.4-2.2,6.1-5.1,8.2-8.9v10.6s14.2,0,14.2,0v-65.8c-5.2-1.2-10.3-2.2-15.2-3.1Z"/>
  <path class="st8" d="M204.7,100h-9.4s0,28,0,28c0,4.7,0,8.5-.2,11.3,0,1.4-.2,2.6-.3,3.5,0,.4,0,.8-.1,1.1,0,.3,0,.5,0,.5h0c-.1.5-.3.8-.4,1.1-.2.3-.3.5-.7.7h0c-.4.3-.6.4-.7.4-.1,0-.1,0-.3,0h0s0,0,0,0v.2s0-.2,0-.2h0s0,.2,0,.2v-.2s-.2,1.1-.2,1.1l.5-1c-.1,0-.2,0-.3,0l-.2,1.1.5-1-.5,1,.7-.9s-.1-.1-.3-.2l-.5,1,.7-.9h0s-.8.9-.8.9l.9-.7c0,0,0-.1-.2-.2l-.8.9.9-.7-.6.5.6-.4h0c0,0-.6.4-.6.4l.6-.4h-.1c0,0,.1,0,.1,0h0s-.1,0-.1,0h.1c0,0,0-.3-.2-.7h0c0,0,0-.2,0-.5,0-.5-.1-1.2-.2-2.1,0-1.4-.2-3.2-.2-5.5,0-2.2,0-4.8,0-7.8v-42s-34,0-34,0v54.3c0,3.8.2,7.3.6,10.6.4,3.2,1.1,6.2,2.2,9,1,2.6,2.4,5.1,4.1,7.3,1.7,2.2,3.8,4.1,6.1,5.7h.2c0,.1-.2,0-.2,0,2.2,1.5,4.7,2.7,7.3,3.5,2.6.8,5.3,1.1,8,1.1,2.8,0,5.5-.4,8.1-1.2,2.6-.8,5.1-2,7.5-3.5h0c2.4-1.5,4.6-3.3,6.5-5.4,1.9-2.1,3.6-4.4,5-7l-8.2-4.6h-9.4s0,20.1,0,20.1h33s0-82.9,0-82.9l-7.3-1.7c-5.4-1.2-10.6-2.3-15.6-3.2l-11.1-2v11.4s9.4,0,9.4,0l-1.7,9.4c4.8.9,9.7,1.9,14.8,3.1l2.1-9.3h-9.4s0,56.2,0,56.2h-4.8s0,9.5,0,9.5h9.4s0-47.3,0-47.3l-17.6,32.1c-.7,1.3-1.5,2.3-2.3,3.2-.8.9-1.7,1.6-2.7,2.3h0c-1.1.7-2,1.1-2.9,1.4-.9.3-1.8.4-2.8.4-1.1,0-1.9-.1-2.7-.4-.8-.2-1.5-.6-2.2-1l-.4-.3.4.2c-.7-.4-1.2-.9-1.7-1.6-.5-.6-1-1.5-1.4-2.5-.3-.9-.8-2.4-1.1-4.5-.3-2.1-.5-4.8-.5-8v-35.2s5.8,0,5.8,0v-9.5s-9.4,0-9.4,0v32.5c0,4.7,0,8.6.2,11.8,0,1.6.1,3,.2,4.2,0,.6.1,1.2.2,1.8,0,.6.1,1.1.2,1.7h0c.4,2.1,1,4.1,2,6.1,1,1.9,2.4,3.8,4.1,5.2h0c1.6,1.4,3.5,2.6,5.6,3.3,2,.7,4.2,1.1,6.3,1.1,2.4,0,4.8-.4,7-1.3,2.2-.9,4.3-2.1,6-3.6h0c1.8-1.5,3.4-3.4,4.6-5.4,1.2-2.1,2.1-4.3,2.7-6.6h0c.2-.6.3-1.3.4-1.9.2-1.1.3-2.3.4-3.6.2-1.9.3-4.2.4-6.7,0-2.5.1-5.4.1-8.6v-28s-9.4,0-9.4,0l-1.7,9.4,1.7-9.4Z"/>
  <path class="st8" d="M25.4,72h-16s0,96.8,0,96.8h32.8c1.5-4.9,3.7-10.6,6.8-16.6h-23.6s0-80.2,0-80.2Z"/>
  <path class="st8" d="M25.4,72v-9.5s-25.4,0-25.4,0v115.9s49.1,0,49.1,0l2.1-6.6c1.4-4.4,3.4-9.6,6.2-15.1l7.1-13.9h-29.7s0-80.2,0-80.2h-9.4s0,9.5,0,9.5h-9.4s0,89.8,0,89.8h33s0-9.5,0-9.5l-8.3-4.4c-3.4,6.6-5.7,12.8-7.4,18.1l9,2.9v-9.5s-23.4,0-23.4,0v-77.8s6.6,0,6.6,0v-9.5s-9.4,0-9.4,0h9.4Z"/>
  <rect class="st8" x="76.3" y="71.1" width="15.2" height="17.4"/>
  <polygon class="st8" points="91.5 71.1 91.5 61.5 66.9 61.5 66.9 98 100.9 98 100.9 61.5 91.5 61.5 91.5 71.1 82.1 71.1 82.1 78.9 76.3 78.9 76.3 88.4 85.7 88.5 85.7 80.6 91.5 80.6 91.5 71.1 82.1 71.1 91.5 71.1"/>
  <path class="st8" d="M76.3,98.1v21.1c4.5-3.5,9.6-6.7,15.2-9.7v-11.4s-15.2,0-15.2,0Z"/>
  <path class="st8" d="M76.3,98.1h-9.4s0,40.3,0,40.3l15.1-11.7c4.1-3.1,8.6-6.1,13.8-8.8l5.1-2.7v-26.7s-34,0-34,0v9.5s9.4,0,9.4,0v9.5s5.8,0,5.8,0v1.9s9.4,0,9.4,0l-4.3-8.5c-6.1,3.2-11.6,6.8-16.6,10.6l5.7,7.6h9.4s0-21.1,0-21.1h-9.4s0,9.5,0,9.5v-9.5Z"/>
  <path class="st8" d="M106.4,71.3v31.9c4.7-1.6,9.8-3.1,15.2-4.3v-27.6s-15.2,0-15.2,0Z"/>
  <path class="st8" d="M106.4,71.3h-9.4s0,45.2,0,45.2l12.5-4.3c4.4-1.5,9.1-2.8,14.1-3.9l7.4-1.6v-44.9s-34,0-34,0v9.5s9.4,0,9.4,0v9.5s5.8,0,5.8,0v18.1s9.4,0,9.4,0l-2-9.3c-5.8,1.2-11.2,2.8-16.3,4.6l3.1,9h9.4s0-31.9,0-31.9h-9.4s0,9.5,0,9.5v-9.5Z"/>
  <path class="st8" d="M219.9,98.1h-15.2s0,1.8,0,1.8c4.9.9,10,1.9,15.2,3.1v-5Z"/>
  <path class="st8" d="M219.9,98.1v-9.5s-24.6,0-24.6,0v19.3s7.7,1.4,7.7,1.4c4.8.9,9.7,1.9,14.8,3.1l11.5,2.6v-26.4s-9.4,0-9.4,0v9.5s-9.4,0-9.4,0v5s9.4,0,9.4,0l2.1-9.3c-5.4-1.2-10.6-2.3-15.6-3.2l-1.7,9.4h9.4s0-1.8,0-1.8h-9.4s0,9.5,0,9.5h15.2s0-9.5,0-9.5h-9.4s9.4,0,9.4,0Z"/>
  <path class="st6" d="M64.9,168.9v-16.6s-15.9,0-15.9,0c-3.1,6-5.3,11.7-6.8,16.6h22.7Z"/>
  <path class="st6" d="M64.9,168.9h6.2s0-16.6,0-16.6c0-1.7-.7-3.3-1.8-4.4-1.2-1.2-2.7-1.8-4.4-1.8h-15.9c-2.3,0-4.4,1.3-5.5,3.4-3.3,6.4-5.6,12.4-7.2,17.6-.6,1.9-.3,4,.9,5.6,1.2,1.6,3,2.6,5,2.6h22.7c1.6,0,3.2-.7,4.4-1.8,1.2-1.2,1.8-2.8,1.8-4.4h-6.2s0-6.3,0-6.3h-22.7s0,6.3,0,6.3l5.9,1.9c1.4-4.6,3.5-9.9,6.4-15.6l-5.5-2.9v6.3s9.7,0,9.7,0v10.3s6.2,0,6.2,0v-6.3s0,6.3,0,6.3Z"/>
  <path class="st6" d="M76.3,168.9h15.2s0-59.4,0-59.4c-5.6,2.9-10.7,6.2-15.2,9.7v49.7Z"/>
  <path class="st6" d="M76.3,168.9v6.3s15.2,0,15.2,0c1.6,0,3.2-.7,4.4-1.8,1.2-1.2,1.8-2.8,1.8-4.4v-59.4c0-2.2-1.1-4.2-3-5.4-1.8-1.1-4.1-1.2-6-.2-6,3.1-11.3,6.6-16.1,10.3-1.5,1.2-2.4,3-2.4,5v49.7c0,1.7.7,3.3,1.8,4.4,1.2,1.2,2.7,1.8,4.4,1.8v-6.3s6.2,0,6.2,0v-49.7s-6.2,0-6.2,0l3.8,5c4.2-3.3,9-6.3,14.3-9.1l-2.8-5.6h-6.2s0,53.1,0,53.1h-9s0,6.3,0,6.3h6.2s-6.2,0-6.2,0Z"/>
  <path class="st6" d="M106.4,168.9h15.2s0-22.7,0-22.7l6.9-9.1,14.7,31.9h16.1s-21-44.9-21-44.9l19.6-25.9h-18.7s-17.7,24.7-17.7,24.7v-23.9c-5.4,1.2-10.5,2.6-15.2,4.3v65.8Z"/>
  <path class="st6" d="M106.4,168.9v6.3s15.2,0,15.2,0c1.6,0,3.2-.7,4.4-1.8,1.2-1.2,1.8-2.8,1.8-4.4v-20.6s5.6-7.4,5.6-7.4l-4.9-3.8-5.6,2.7,14.7,31.9c1,2.2,3.2,3.6,5.6,3.6h16.1c2.1,0,4.1-1.1,5.2-2.9,1.1-1.8,1.3-4.1.4-6l-19.3-41.4,17.3-22.8c1.4-1.9,1.7-4.5.6-6.6-1-2.1-3.2-3.5-5.5-3.5h-18.7c-2,0-3.8,1-5,2.6l-6.5,9.1v-4.6c0-1.9-.8-3.7-2.3-4.9-1.5-1.2-3.3-1.7-5.2-1.3-5.6,1.2-10.9,2.7-15.9,4.5-2.5.9-4.2,3.3-4.2,5.9v65.8c0,1.7.7,3.3,1.8,4.4,1.2,1.2,2.7,1.8,4.4,1.8v-6.3s6.2,0,6.2,0v-65.8s-6.2,0-6.2,0l2,5.9c4.5-1.6,9.3-2.9,14.5-4l-1.3-6.1h-6.2s0,23.9,0,23.9c0,2.7,1.7,5.1,4.3,6,2.5.8,5.3,0,6.9-2.3l15.8-22.1h3s-12,15.8-12,15.8c-1.4,1.9-1.7,4.4-.7,6.5l16.8,35.9h-2.4s-13-28.2-13-28.2c-.9-2-2.8-3.3-4.9-3.6-2.2-.2-4.3.7-5.6,2.4l-6.9,9.1c-.8,1.1-1.3,2.5-1.3,3.8v16.5s-9,0-9,0v6.3s6.2,0,6.2,0h-6.2Z"/>
  <path class="st6" d="M204.7,100v28c0,9.6-.3,15.8-1,18.6-.7,2.8-2.1,5.1-4.2,6.9-2.1,1.8-4.5,2.7-7,2.7-2.2,0-4.1-.7-5.7-2.1-1.6-1.4-2.6-3.3-3-5.8-.5-2.5-.7-8.4-.7-17.7v-32.5s-15.2,0-15.2,0v44.8c0,7,.7,12.4,2.2,16.1,1.5,3.7,3.7,6.5,6.6,8.5,3,2,6.3,3,10.1,3,3.7,0,7.3-1.1,10.7-3.2,3.4-2.2,6.1-5.1,8.2-8.9v10.6s14.2,0,14.2,0v-65.8c-5.2-1.2-10.3-2.2-15.2-3.1Z"/>
  <path class="st6" d="M204.7,100h-6.2s0,28,0,28c0,4.7,0,8.6-.2,11.5,0,1.5-.2,2.7-.3,3.7-.1,1-.2,1.7-.3,2h0c-.2.8-.5,1.5-.8,2-.3.6-.8,1.1-1.3,1.5h0c-.6.5-1.1.8-1.6,1-.5.2-.9.3-1.4.3-.5,0-.8,0-1-.1-.2,0-.4-.2-.6-.4h0c-.2-.2-.3-.3-.5-.7-.2-.3-.4-.8-.5-1.5h0c0-.3-.1-1-.2-1.9-.1-1.4-.2-3.4-.3-5.8,0-2.5,0-5.4,0-8.9v-32.5c0-1.7-.7-3.3-1.8-4.4-1.2-1.2-2.7-1.8-4.4-1.8h-15.2c-1.6,0-3.2.7-4.4,1.8-1.2,1.2-1.8,2.8-1.8,4.4v44.8c0,3.7.2,7.1.6,10.1.4,3,1,5.8,2,8.3.9,2.3,2.1,4.5,3.6,6.4,1.5,1.9,3.3,3.6,5.3,5h0c2,1.3,4.1,2.4,6.4,3,2.3.7,4.7,1,7.1,1,2.4,0,4.9-.4,7.2-1.1,2.3-.7,4.6-1.8,6.7-3.1h0c2.2-1.4,4.1-3,5.9-4.9,1.7-1.9,3.2-4,4.5-6.3l-5.4-3.1h-6.2s0,10.6,0,10.6c0,1.7.7,3.3,1.8,4.4,1.2,1.2,2.7,1.8,4.4,1.8h14.2c1.6,0,3.2-.7,4.4-1.8,1.2-1.2,1.8-2.8,1.8-4.4v-65.8c0-2.9-2-5.5-4.8-6.1-5.3-1.2-10.5-2.3-15.5-3.2-1.8-.3-3.7.2-5.1,1.4-1.4,1.2-2.2,3-2.2,4.8h6.2s-1.1,6.2-1.1,6.2c4.8.9,9.8,1.9,14.9,3.1l1.4-6.1h-6.2s0,59.5,0,59.5h-1.9s0-4.3,0-4.3c0-2.9-1.9-5.4-4.6-6.1-2.7-.7-5.6.5-7,3-.8,1.5-1.7,2.8-2.7,3.9-1,1.1-2.1,2-3.4,2.8h0c-1.3.8-2.5,1.4-3.7,1.7-1.2.4-2.4.5-3.7.5-1.3,0-2.5-.2-3.6-.5-1.1-.3-2.1-.8-3.1-1.5h0c-.9-.6-1.7-1.4-2.5-2.3-.7-.9-1.3-2-1.9-3.3-.5-1.2-.9-3-1.3-5.3-.3-2.3-.5-5.1-.5-8.4v-38.5s2.8,0,2.8,0v26.2c0,4.7,0,8.6.2,11.6,0,1.5.1,2.9.2,4.1,0,1.2.2,2.2.4,3.1h0c.3,1.8.9,3.5,1.7,5.1.8,1.6,2,3.1,3.4,4.3h0c1.3,1.2,2.9,2.1,4.6,2.7,1.7.6,3.4.9,5.2.9,2,0,4-.4,5.8-1.1,1.9-.7,3.6-1.8,5.1-3.1h0c1.6-1.3,2.9-2.9,4-4.6,1.1-1.7,1.8-3.7,2.3-5.7h0c.3-1.1.4-2.2.6-3.5.2-1.9.4-4.2.5-7,0-2.7.1-5.9.1-9.6v-28s-6.2,0-6.2,0l-1.1,6.2,1.1-6.2Z"/>
  <path class="st6" d="M25.4,72h-16s0,96.8,0,96.8h32.8c1.5-4.9,3.7-10.6,6.8-16.6h-23.6s0-80.2,0-80.2Z"/>
  <path class="st6" d="M25.4,72v-6.3s-16,0-16,0c-1.6,0-3.2.7-4.4,1.8-1.2,1.2-1.8,2.8-1.8,4.4v96.8c0,1.7.7,3.3,1.8,4.4,1.2,1.2,2.7,1.8,4.4,1.8h32.8c2.7,0,5.1-1.8,5.9-4.4,1.4-4.6,3.5-9.9,6.4-15.6,1-2,.9-4.3-.2-6.1-1.1-1.9-3.1-3-5.3-3h-17.4s0-74,0-74c0-1.7-.7-3.3-1.8-4.4-1.2-1.2-2.7-1.8-4.4-1.8v6.3s-6.2,0-6.2,0v80.2c0,1.7.7,3.3,1.8,4.4,1.2,1.2,2.7,1.8,4.4,1.8h23.6s0-6.3,0-6.3l-5.5-2.9c-3.3,6.4-5.6,12.4-7.2,17.6l5.9,1.9v-6.3s-26.6,0-26.6,0v-84.3s9.8,0,9.8,0v-6.3s-6.2,0-6.2,0h6.2Z"/>
  <rect class="st6" x="76.3" y="71.1" width="15.2" height="17.4"/>
  <path class="st6" d="M91.5,71.1v-6.3s-15.2,0-15.2,0c-1.6,0-3.2.7-4.4,1.8-1.2,1.2-1.8,2.8-1.8,4.4v17.4c0,1.7.7,3.3,1.8,4.4,1.2,1.2,2.7,1.8,4.4,1.8h15.2c1.6,0,3.2-.7,4.4-1.8,1.2-1.2,1.8-2.8,1.8-4.4v-17.4c0-1.7-.7-3.3-1.8-4.4-1.2-1.2-2.7-1.8-4.4-1.8v6.3s-6.2,0-6.2,0v11.1s-2.8,0-2.8,0v-4.8s9,0,9,0v-6.3s-6.2,0-6.2,0h6.2Z"/>
  <path class="st6" d="M76.3,98.1v21.1c4.5-3.5,9.6-6.7,15.2-9.7v-11.4s-15.2,0-15.2,0Z"/>
  <path class="st6" d="M76.3,98.1h-6.2s0,21.1,0,21.1c0,2.4,1.3,4.6,3.4,5.6,2.1,1.1,4.6.8,6.5-.6,4.2-3.3,9-6.3,14.3-9.1,2.1-1.1,3.4-3.2,3.4-5.6v-11.4c0-1.7-.7-3.3-1.8-4.4-1.2-1.2-2.7-1.8-4.4-1.8h-15.2c-1.6,0-3.2.7-4.4,1.8-1.2,1.2-1.8,2.8-1.8,4.4h6.2s0,6.3,0,6.3h9s0,5.1,0,5.1h6.2s-2.8-5.6-2.8-5.6c-6,3.1-11.3,6.6-16.1,10.3l3.8,5h6.2s0-21.1,0-21.1h-6.2s0,6.3,0,6.3v-6.3Z"/>
  <path class="st6" d="M106.4,71.3v31.9c4.7-1.6,9.8-3.1,15.2-4.3v-27.6s-15.2,0-15.2,0Z"/>
  <path class="st6" d="M106.4,71.3h-6.2s0,31.9,0,31.9c0,2,1,3.9,2.6,5.1,1.6,1.2,3.7,1.5,5.6.8,4.5-1.6,9.3-2.9,14.5-4,2.8-.6,4.9-3.2,4.9-6.1v-27.6c0-1.7-.7-3.3-1.8-4.4-1.2-1.2-2.7-1.8-4.4-1.8h-15.2c-1.6,0-3.2.7-4.4,1.8-1.2,1.2-1.8,2.8-1.8,4.4h6.2s0,6.3,0,6.3h9s0,21.4,0,21.4h6.2s-1.3-6.1-1.3-6.1c-5.6,1.2-10.9,2.7-15.9,4.5l2,5.9h6.2s0-31.9,0-31.9h-6.2s0,6.3,0,6.3v-6.3Z"/>
  <path class="st6" d="M219.9,98.1h-15.2s0,1.8,0,1.8c4.9.9,10,1.9,15.2,3.1v-5Z"/>
  <path class="st6" d="M219.9,98.1v-6.3s-15.2,0-15.2,0c-1.6,0-3.2.7-4.4,1.8-1.2,1.2-1.8,2.8-1.8,4.4v1.8c0,3,2.1,5.6,5.1,6.2,4.8.9,9.8,1.9,14.9,3.1,1.8.4,3.8,0,5.2-1.2,1.5-1.2,2.3-3,2.3-4.9v-5c0-1.7-.7-3.3-1.8-4.4-1.2-1.2-2.7-1.8-4.4-1.8v6.3s-6.2,0-6.2,0v5s6.2,0,6.2,0l1.4-6.1c-5.3-1.2-10.5-2.3-15.5-3.2l-1.1,6.2h6.2s0-1.8,0-1.8h-6.2s0,6.3,0,6.3h15.2s0-6.3,0-6.3h-6.2s6.2,0,6.2,0Z"/>
  <path class="st2" d="M64.9,168.9v-16.6s-15.9,0-15.9,0c-3.1,6-5.3,11.7-6.8,16.6h22.7Z"/>
  <path class="st2" d="M64.9,168.9h2s0-18.6,0-18.6h-19.1s-.6,1.1-.6,1.1c-3.1,6.1-5.4,11.9-6.9,16.9l-.8,2.6h27.4s0-2,0-2h-2s0-2,0-2h-22.7s0,2,0,2l1.9.6c1.5-4.8,3.6-10.4,6.7-16.3l-1.8-.9v2s13.9,0,13.9,0v14.6s2,0,2,0v-2s0,2,0,2Z"/>
  <path class="st2" d="M76.3,168.9h15.2s0-59.4,0-59.4c-5.6,2.9-10.7,6.2-15.2,9.7v49.7Z"/>
  <path class="st2" d="M76.3,168.9v2s17.2,0,17.2,0v-64.7s-2.9,1.5-2.9,1.5c-5.7,3-10.9,6.3-15.5,9.9l-.8.6v52.7s2,0,2,0v-2s2,0,2,0v-49.7s-2,0-2,0l1.2,1.6c4.4-3.4,9.4-6.6,14.9-9.5l-.9-1.8h-2s0,57.4,0,57.4h-13.2s0,2,0,2h2s-2,0-2,0Z"/>
  <path class="st2" d="M106.4,168.9h15.2s0-22.7,0-22.7l6.9-9.1,14.7,31.9h16.1s-21-44.9-21-44.9l19.6-25.9h-18.7s-17.7,24.7-17.7,24.7v-23.9c-5.4,1.2-10.5,2.6-15.2,4.3v65.8Z"/>
  <path class="st2" d="M106.4,168.9v2s17.2,0,17.2,0v-24.1s4.5-6,4.5-6l13.8,30h20.5s-21.8-46.6-21.8-46.6l21.3-28.1h-23.7s-14.7,20.5-14.7,20.5v-20.2s-2.4.5-2.4.5c-5.5,1.2-10.6,2.6-15.4,4.3l-1.3.5v69.2s2,0,2,0v-2s2,0,2,0v-65.8s-2,0-2,0l.6,1.9c4.7-1.6,9.6-3,15-4.2l-.4-2h-2s0,30.1,0,30.1l20.7-28.8h13.6s-17.9,23.6-17.9,23.6l20.1,43.1h-11.8s-15.5-33.7-15.5-33.7l-9.3,12.3v21.4s-13.2,0-13.2,0v2s2,0,2,0h-2Z"/>
  <path class="st2" d="M204.7,100v28c0,9.6-.3,15.8-1,18.6-.7,2.8-2.1,5.1-4.2,6.9-2.1,1.8-4.5,2.7-7,2.7-2.2,0-4.1-.7-5.7-2.1-1.6-1.4-2.6-3.3-3-5.8-.5-2.5-.7-8.4-.7-17.7v-32.5s-15.2,0-15.2,0v44.8c0,7,.7,12.4,2.2,16.1,1.5,3.7,3.7,6.5,6.6,8.5,3,2,6.3,3,10.1,3,3.7,0,7.3-1.1,10.7-3.2,3.4-2.2,6.1-5.1,8.2-8.9v10.6s14.2,0,14.2,0v-65.8c-5.2-1.2-10.3-2.2-15.2-3.1Z"/>
  <path class="st2" d="M204.7,100h-2s0,28,0,28c0,4.8,0,8.7-.2,11.7,0,1.5-.2,2.8-.3,3.9-.1,1.1-.3,1.9-.4,2.5-.3,1.2-.7,2.3-1.3,3.3-.6,1-1.3,1.8-2.2,2.6h0c-.9.8-1.8,1.3-2.8,1.7-.9.4-1.9.5-2.9.5-.9,0-1.7-.1-2.4-.4-.7-.3-1.4-.6-2-1.2h0s0,0,0,0c-.6-.5-1.1-1.1-1.5-1.9-.4-.8-.7-1.7-.9-2.8,0-.5-.2-1.3-.3-2.3-.2-3-.4-8.1-.4-15v-34.5s-19.2,0-19.2,0v46.8c0,3.6.2,6.8.6,9.6.4,2.8,1,5.2,1.8,7.3,1.6,4,4.1,7.2,7.4,9.4,3.3,2.2,7.1,3.3,11.2,3.3,4.1,0,8-1.2,11.7-3.5h0c3.7-2.3,6.7-5.6,8.9-9.7l-1.7-1h-2s0,12.6,0,12.6h18.2s0-69.4,0-69.4l-1.5-.4c-5.2-1.2-10.3-2.2-15.3-3.2l-2.3-.4v2.4s2,0,2,0l-.4,2c4.9.9,9.9,1.9,15.1,3.1l.4-2h-2s0,63.8,0,63.8h-10.3s0-16.3,0-16.3l-3.7,6.8c-2,3.6-4.5,6.2-7.6,8.2h0c-3.1,2-6.3,2.9-9.6,2.9-3.4,0-6.3-.9-9-2.7-2.6-1.8-4.6-4.2-5.9-7.6-.7-1.6-1.2-3.7-1.5-6.3-.3-2.6-.5-5.6-.5-9v-42.7s11.2,0,11.2,0v30.5c0,4.7,0,8.5.2,11.5,0,1.5.1,2.8.2,3.9,0,1.1.2,2,.3,2.7.3,1.4.7,2.7,1.3,3.9.6,1.2,1.4,2.2,2.4,3.1h0c1,.8,2,1.5,3.2,1.9,1.2.4,2.4.6,3.8.6,1.5,0,3-.3,4.3-.8,1.4-.5,2.7-1.3,3.9-2.4h0c1.2-1,2.3-2.2,3.1-3.6.8-1.3,1.4-2.8,1.8-4.4.2-.8.4-1.8.5-3,.4-3.5.6-8.9.6-16.1v-28s-2,0-2,0l-.4,2,.4-2Z"/>
  <path class="st0" d="M25.4,72h-16s0,96.8,0,96.8h32.8c1.5-4.9,3.7-10.6,6.8-16.6h-23.6s0-80.2,0-80.2Z"/>
  <path class="st0" d="M25.4,72v-2s-18,0-18,0v100.9s36.3,0,36.3,0l.4-1.4c1.5-4.8,3.6-10.4,6.7-16.3l1.5-2.9h-24.9s0-80.2,0-80.2h-2s0,2,0,2h-2s0,82.2,0,82.2h25.6s0-2,0-2l-1.8-.9c-3.1,6.1-5.4,11.9-6.9,16.9l1.9.6v-2s-30.8,0-30.8,0v-92.8s14,0,14,0v-2s-2,0-2,0h2Z"/>
  <rect class="st0" x="76.3" y="71.1" width="15.2" height="17.4"/>
  <polygon class="st0" points="91.5 71.1 91.5 69.1 74.4 69.1 74.4 90.5 93.5 90.5 93.5 69.1 91.5 69.1 91.5 71.1 89.6 71.1 89.6 86.4 78.3 86.4 78.3 73.1 91.5 73.1 91.5 71.1 89.6 71.1 91.5 71.1"/>
  <path class="st0" d="M76.3,98.1v21.1c4.5-3.5,9.6-6.7,15.2-9.7v-11.4s-15.2,0-15.2,0Z"/>
  <path class="st0" d="M76.3,98.1h-2s0,25.1,0,25.1l3.2-2.5c4.4-3.4,9.4-6.6,14.9-9.5l1.1-.6v-14.6s-19.2,0-19.2,0v2s2,0,2,0v2s13.2,0,13.2,0v9.4s2,0,2,0l-.9-1.8c-5.7,3-10.9,6.3-15.5,9.9l1.2,1.6h2s0-21.1,0-21.1h-2s0,2,0,2v-2Z"/>
  <path class="st0" d="M106.4,71.3v31.9c4.7-1.6,9.8-3.1,15.2-4.3v-27.6s-15.2,0-15.2,0Z"/>
  <path class="st0" d="M106.4,71.3h-2s0,34.7,0,34.7l2.6-.9c4.7-1.6,9.6-3,15-4.2l1.6-.3v-31.3s-19.2,0-19.2,0v2s2,0,2,0v2s13.2,0,13.2,0v25.6s2,0,2,0l-.4-2c-5.5,1.2-10.6,2.6-15.4,4.3l.6,1.9h2s0-31.9,0-31.9h-2s0,2,0,2v-2Z"/>
  <path class="st0" d="M219.9,98.1h-15.2s0,1.8,0,1.8c4.9.9,10,1.9,15.2,3.1v-5Z"/>
  <path class="st0" d="M219.9,98.1v-2s-17.2,0-17.2,0v5.5s1.6.3,1.6.3c4.9.9,9.9,1.9,15.1,3.1l2.4.6v-9.5s-2,0-2,0v2s-2,0-2,0v5s2,0,2,0l.4-2c-5.2-1.2-10.3-2.2-15.3-3.2l-.4,2h2s0-1.8,0-1.8h-2s0,2,0,2h15.2s0-2,0-2h-2s2,0,2,0Z"/>
  <path class="st11" d="M340.9,161.1c-.8,0-1.7-.4-2.2-1l-1.2-1.4c-.5-.5-.7-1.2-.8-1.9-.4-9.5-1.2-18.4-2.4-26.3,0-.3,0-.6,0-.9.3-1.9.4-3.7.4-5.5,0-8.8-2.8-17-8.1-23.9-.2-.2-.3-.4-.4-.7-6.8-16.2-16.8-25.5-29.6-27.7-1.4-.2-2.5-1.5-2.5-3,0-1.5,1.1-2.7,2.5-3,2.5-.4,4.9-.6,7.3-.6.2,0,.4,0,.6,0,.1,0,.2,0,.4,0,9.6,1.4,18.8,5.2,26.6,11.1,0,0,.2.2.3.2,11.3,11.1,18.9,30.1,22.3,56.6,0,.3,0,.6,0,.9-1.6,9.2-5.3,18.1-10.8,25.6-.5.7-1.4,1.2-2.2,1.2h-.1Z"/>
  <path class="st8" d="M304,68.4c.2,0,.4,0,.6,0,9.4,1.3,18,5,25.2,10.5,9.5,9.3,17.7,26.1,21.5,54.9-1.5,9-5.1,17.3-10.3,24.3l-1.2-1.4c-.4-9.9-1.3-18.7-2.5-26.6.3-2,.4-3.9.4-6,0-9.7-3.3-18.7-8.8-25.8-8.4-19.9-20.4-27.5-31.8-29.4,2.2-.3,4.5-.5,6.9-.5M304,62.4c-2.5,0-5.2.2-7.8.6-2.9.4-5,2.9-5,5.9,0,3,2.1,5.5,4.9,6,11.7,2,20.9,10.7,27.3,25.9.2.5.5.9.8,1.3,4.9,6.3,7.5,14,7.5,22.1,0,1.7-.1,3.4-.4,5.1,0,.6,0,1.2,0,1.8,1.2,7.8,2,16.5,2.4,26,0,1.4.6,2.7,1.5,3.7l1.2,1.4c1.1,1.3,2.7,2,4.4,2s.2,0,.3,0c1.8,0,3.4-1,4.5-2.4,5.8-7.9,9.8-17.2,11.4-26.9.1-.6.1-1.2,0-1.8-3.6-27.2-11.4-46.9-23.2-58.4-.2-.2-.4-.3-.6-.5-8.2-6.2-17.8-10.2-27.9-11.7-.2,0-.5,0-.7,0-.2,0-.4,0-.6,0Z"/>
  <path class="st11" d="M297,183.4c-32,0-58-26.6-58-59.3,0-13,4-25.4,11.7-35.7.5-.7,1.4-1.2,2.2-1.2h.1c.8,0,1.7.4,2.2,1l9.8,11.2c.9,1,1,2.5.3,3.6-4,6.3-6.1,13.6-6.1,21.1,0,21.3,16.9,38.6,37.7,38.6,2.6,0,5.3-.3,7.9-.8.2,0,.4,0,.6,0,1.1,0,2.2.7,2.7,1.7l6.3,13.5c.4.8.4,1.7,0,2.5-.4.8-1.1,1.4-1.9,1.6-5,1.4-10.3,2.2-15.6,2.2Z"/>
  <path class="st8" d="M253.2,90.2l9.8,11.2c-4.2,6.5-6.6,14.4-6.6,22.7,0,23,18.2,41.6,40.7,41.6,2.9,0,5.7-.3,8.5-.9l6.3,13.5c-4.7,1.3-9.7,2.1-14.8,2.1-30.4,0-55-25.2-55-56.3,0-12.7,4.1-24.5,11.1-33.9M253.2,84.2c0,0-.2,0-.3,0-1.8,0-3.4,1-4.5,2.4-8.1,10.9-12.3,23.9-12.3,37.5,0,16.6,6.3,32.3,17.8,44,11.5,11.8,26.8,18.3,43.1,18.3,5.6,0,11.1-.8,16.4-2.3,1.7-.5,3.1-1.7,3.8-3.3.7-1.6.7-3.5,0-5.1l-6.3-13.5c-1-2.1-3.1-3.5-5.4-3.5-.4,0-.8,0-1.2.1-2.4.5-4.8.8-7.2.8-19.1,0-34.7-16-34.7-35.6,0-7,2-13.7,5.7-19.5,1.5-2.3,1.2-5.3-.6-7.3l-9.8-11.2c-1.1-1.3-2.7-2-4.4-2Z"/>
  <path class="st11" d="M351.2,136.8c-1.5,0-2.7-1.1-2.9-2.6-3.3-25.1-10.2-43-20.6-53.1-1.1-1.1-1.2-2.9-.2-4.1.6-.7,1.4-1.1,2.3-1.1.6,0,1.2.2,1.8.6,14.7,11.2,23.5,29,23.5,47.6,0,3.4-.3,6.8-.9,10.1-.2,1.4-1.5,2.5-2.9,2.5h0Z"/>
  <path class="st8" d="M329.8,78.9c13.5,10.3,22.3,26.7,22.3,45.2,0,3.3-.3,6.5-.8,9.6-3.8-28.8-11.9-45.6-21.5-54.9M329.8,72.9c-1.7,0-3.4.7-4.5,2.1-2,2.4-1.9,6,.4,8.2,9.9,9.6,16.5,26.9,19.7,51.3.4,2.9,2.8,5.2,5.8,5.2h.1c2.9,0,5.4-2.1,5.8-5,.6-3.5.9-7.1.9-10.7,0-9.9-2.3-19.7-6.7-28.5-4.3-8.5-10.5-15.9-17.9-21.6-1.1-.8-2.3-1.2-3.6-1.2Z"/>
  <path class="st11" d="M328.9,101.4c-.9,0-1.8-.4-2.3-1.2-7.2-9.3-18-14.7-29.6-14.7-2.6,0-5.2.3-7.9.8-.2,0-.4,0-.6,0-1.1,0-2.2-.7-2.7-1.7l-4.9-10.6-1.4-2.9c-.4-.8-.4-1.7,0-2.5.4-.8,1.1-1.4,1.9-1.6,2.4-.7,4.9-1.2,7.4-1.6,2.7-.4,5.4-.6,8.1-.6,2.6,0,5.3.2,7.9.6,1.6.2,2.7,1.6,2.6,3.2,0,.1,0,.3,0,.4,10.2,4.8,18.3,14.2,24.2,28.1.6,1.4,0,3-1.2,3.8-.5.3-1,.4-1.5.4Z"/>
  <path class="st8" d="M297,67.9c2.6,0,5.1.2,7.5.5-.2,0-.4,0-.6,0-2.4,0-4.7.2-6.9.5h0s0,0,0,0c11.4,2,23.4,9.6,31.8,29.4-7.4-9.6-19-15.8-31.9-15.8-2.9,0-5.7.3-8.5.9l-4.9-10.6h0s0,0,0,0l-1.4-2.9c2.3-.7,4.6-1.2,7-1.5,2.5-.4,5.1-.6,7.7-.6M297,61.8c-2.9,0-5.7.2-8.6.6-2.7.4-5.3.9-7.8,1.7-1.7.5-3.1,1.7-3.8,3.3-.7,1.6-.7,3.5,0,5.1l1.4,2.9h0c0,0,4.9,10.6,4.9,10.6,1,2.1,3.1,3.5,5.4,3.5.4,0,.8,0,1.2-.1,2.4-.5,4.9-.8,7.3-.8,10.7,0,20.6,4.9,27.2,13.5,1.2,1.5,2.9,2.3,4.7,2.3,1,0,2.1-.3,3-.8,2.6-1.5,3.6-4.8,2.4-7.6-4.3-10.1-9.8-18.1-16.4-23.7-2.4-2-4.9-3.7-7.6-5.1-.5-2.4-2.5-4.4-5-4.7-2.8-.4-5.6-.6-8.4-.6Z"/>
  <path class="st11" d="M339.7,159.7c-.8,0-1.6-.4-2.2-1l-8.6-9.8c-.9-1-1-2.5-.3-3.6,3-4.7,4.9-10,5.7-15.6.2-1.5,1.5-2.6,2.9-2.6h0c1.5,0,2.7,1.1,2.9,2.6,1.2,8.1,2,17.2,2.5,26.9,0,1.3-.7,2.4-1.8,2.9-.4.1-.7.2-1.1.2Z"/>
  <path class="st8" d="M337.3,130.1c1.2,7.9,2,16.7,2.5,26.6l-8.6-9.8c3.2-5,5.3-10.7,6.2-16.8M337.3,124.1h0c-2.9,0-5.4,2.2-5.8,5.2-.7,5.2-2.5,10-5.3,14.4-1.5,2.3-1.2,5.3.6,7.3l8.6,9.8c1.2,1.3,2.8,2,4.4,2,.8,0,1.5-.1,2.2-.4,2.3-1,3.8-3.3,3.7-5.8-.4-9.9-1.3-19-2.5-27.2-.4-2.9-2.9-5.1-5.9-5.1Z"/>
  <path class="st11" d="M281.2,147.6c-.5,0-1-.1-1.4-.4l-4.1-2.3-10.9-6.5c-1.1-.6-1.6-1.9-1.4-3.1.2-1.2,1.1-2.2,2.3-2.5l7.1-1.5c.2,0,.4,0,.6,0,.9,0,1.8.4,2.4,1.2l7.8,10.3c.9,1.1.8,2.7-.1,3.8-.6.7-1.4,1-2.2,1Z"/>
  <path class="st8" d="M273.4,134.3l7.8,10.3-4-2.3-10.9-6.5,7.1-1.5M273.4,128.2c-.4,0-.8,0-1.2.1l-7.1,1.5c-2.4.5-4.2,2.5-4.6,4.9-.4,2.5.7,4.9,2.8,6.2l10.9,6.5h.1c0,0,4,2.4,4,2.4.9.5,1.9.8,2.9.8,1.7,0,3.3-.7,4.5-2.1,1.8-2.2,1.9-5.3.2-7.6l-7.8-10.3c-1.1-1.5-2.9-2.3-4.7-2.3Z"/>
  <path class="st11" d="M320.7,117.1c-.9,0-1.8-.4-2.4-1.2l-7.8-10.3c-.9-1.1-.8-2.7.1-3.8.6-.7,1.4-1,2.3-1,.5,0,1,.1,1.4.4l4.1,2.3,10.9,6.5c1.1.6,1.6,1.9,1.4,3.1-.2,1.2-1.1,2.2-2.3,2.5l-7.1,1.5c-.2,0-.4,0-.6,0Z"/>
  <path class="st8" d="M312.9,103.8l4,2.3,10.9,6.5-7.1,1.5-7.8-10.3M312.9,97.7c-1.7,0-3.3.7-4.5,2.1-1.8,2.2-1.9,5.3-.2,7.6l7.8,10.3c1.1,1.5,2.9,2.3,4.7,2.3.4,0,.8,0,1.2-.1l7.1-1.5c2.4-.5,4.2-2.5,4.6-4.9.4-2.5-.7-4.9-2.8-6.2l-10.9-6.5s0,0-.1,0l-4-2.3c-.9-.5-1.9-.8-2.9-.8Z"/>
  <path class="st11" d="M266.3,138.8c-.7,0-1.4-.3-2-.8l-7.7-6.9c-.8-.7-1.1-1.8-.9-2.8.2-1,.9-1.9,1.9-2.3l21.4-8c.3-.1.7-.2,1-.2.8,0,1.6.4,2.2,1l8.9,10.1c.7.8.9,1.9.6,2.9-.3,1-1.2,1.8-2.2,2l-22.7,4.8c-.2,0-.4,0-.6,0Z"/>
  <path class="st8" d="M280.1,120.8l8.9,10.1-15.6,3.3-7.1,1.5-7.7-6.9,21.4-8M280.1,114.8c-.7,0-1.4.1-2.1.4l-21.4,8c-2,.7-3.4,2.5-3.8,4.5-.4,2.1.3,4.2,1.9,5.6l7.7,6.9c1.1,1,2.5,1.5,3.9,1.5.4,0,.8,0,1.2-.1l7.1-1.5,15.6-3.3c2.1-.4,3.8-2,4.4-4,.7-2,.2-4.3-1.2-5.9l-8.9-10.1c-1.1-1.3-2.8-2-4.4-2Z"/>
  <path class="st11" d="M314,130.5c-.8,0-1.6-.4-2.2-1l-8.9-10.1c-.7-.8-.9-1.9-.6-2.9.3-1,1.2-1.8,2.2-2l15.6-3.3,7.1-1.5c.2,0,.4,0,.6,0,.7,0,1.4.3,2,.8l7.5,6.8c.5.4.8,1,.9,1.6h0c.3,1.6-.5,3.1-1.9,3.6l-21.4,8c-.3.1-.7.2-1,.2Z"/>
  <path class="st8" d="M327.8,112.5l7.5,6.8h0c0,.1-21.4,8.1-21.4,8.1l-8.9-10.1,15.6-3.3,7.1-1.5M327.8,106.5c-.4,0-.8,0-1.2.1l-7.1,1.5-15.6,3.3c-2.1.4-3.8,2-4.4,4-.7,2-.2,4.3,1.2,5.9l8.9,10.1c1.1,1.3,2.8,2,4.4,2,.7,0,1.4-.1,2.1-.4l21.4-8c2.8-1,4.4-4,3.7-6.9h0c-.3-1.4-.9-2.5-1.9-3.4l-7.5-6.8c-1.1-1-2.5-1.5-3.9-1.5Z"/>
  <path class="st11" d="M288.9,134c-.8,0-1.6-.4-2.2-1l-8.9-10.1-17.1-19.4c-.9-1-1-2.5-.3-3.6,6.3-9.8,16.3-16.8,27.4-19.3.2,0,.4,0,.6,0,1.1,0,2.2.7,2.7,1.7l15,32.3c.5,1.1.3,2.5-.6,3.4l-14.6,15.2c-.6.6-1.3.9-2.1.9h0Z"/>
  <path class="st8" d="M288.6,83.4l15,32.3-14.6,15.2-8.9-10.1-17.1-19.4c5.8-9,14.9-15.6,25.6-18M288.6,77.4c-.4,0-.8,0-1.2.1-11.9,2.6-22.6,10.1-29.3,20.6-1.5,2.3-1.2,5.3.6,7.3l17.1,19.4,8.9,10.1c1.1,1.2,2.7,2,4.3,2h.1c1.6,0,3.1-.7,4.3-1.8l14.6-15.2c1.7-1.8,2.2-4.5,1.1-6.8l-15-32.3c-1-2.1-3.1-3.5-5.4-3.5Z"/>
  <path class="st11" d="M305.5,167.9c-1.1,0-2.2-.7-2.7-1.7l-15-32.3c-.5-1.1-.3-2.5.6-3.4l14.6-15.2c.6-.6,1.3-.9,2.1-.9h0c.8,0,1.6.4,2.2,1l8.9,10.1,17.1,19.4c.9,1,1,2.5.3,3.6-6.4,10-16.1,16.8-27.4,19.3-.2,0-.4,0-.6,0Z"/>
  <path class="st8" d="M305.1,117.3l8.9,10.1,17.1,19.4c-5.8,9-14.9,15.6-25.6,18l-15-32.3,14.6-15.2M305.1,111.3c-1.6,0-3.1.7-4.3,1.8l-14.6,15.2c-1.7,1.8-2.2,4.5-1.1,6.8l15,32.3c1,2.1,3.1,3.5,5.4,3.5.4,0,.8,0,1.2-.1,6-1.3,11.7-3.8,16.8-7.4,5-3.5,9.2-8,12.5-13.2,1.5-2.3,1.2-5.3-.6-7.3l-17.1-19.4-8.9-10.1c-1.1-1.2-2.7-2-4.3-2h-.1Z"/>
  <path class="st6" d="M340.9,159.8c-.5,0-1-.2-1.3-.6l-1.2-1.4c-.3-.3-.4-.7-.4-1.1-.4-9.6-1.2-18.5-2.4-26.4,0-.2,0-.3,0-.5.3-1.9.4-3.8.4-5.7,0-9.1-2.9-17.6-8.4-24.7,0-.1-.2-.3-.2-.4-7-16.6-17.3-26.1-30.5-28.4-.8-.1-1.5-.9-1.4-1.7,0-.9.6-1.6,1.5-1.7,2.4-.4,4.8-.6,7.1-.6.2,0,.4,0,.6,0,0,0,.1,0,.2,0,9.4,1.3,18.4,5.1,26,10.8,0,0,.1,0,.2.1,11.1,10.9,18.5,29.7,22,55.9,0,.2,0,.4,0,.5-1.5,9-5.2,17.7-10.6,25-.3.4-.8.7-1.3.7h0Z"/>
  <path class="st6" d="M304,68.4c.2,0,.4,0,.6,0,9.4,1.3,18,5,25.2,10.5,9.5,9.3,17.7,26.1,21.5,54.9-1.5,9-5.1,17.3-10.3,24.3l-1.2-1.4c-.4-9.9-1.3-18.7-2.5-26.6.3-2,.4-3.9.4-6,0-9.7-3.3-18.7-8.8-25.8-8.4-19.9-20.4-27.5-31.8-29.4,2.2-.3,4.5-.5,6.9-.5M304,64.9c-2.4,0-4.9.2-7.4.6-1.7.3-2.9,1.7-2.9,3.4,0,1.7,1.2,3.2,2.9,3.5,12.6,2.2,22.4,11.4,29.2,27.4.1.3.3.5.5.8,5.2,6.8,8,15,8,23.6,0,1.8-.1,3.6-.4,5.5,0,.3,0,.7,0,1,1.2,7.9,2,16.7,2.4,26.2,0,.8.3,1.6.9,2.2l1.2,1.4c.7.7,1.6,1.2,2.6,1.2,0,0,0,0,.1,0,1,0,2-.6,2.6-1.4,5.6-7.6,9.4-16.5,10.9-25.8,0-.3,0-.7,0-1.1-3.5-26.6-11.1-45.8-22.5-56.9-.1-.1-.2-.2-.3-.3-7.8-5.9-17.1-9.8-26.8-11.2-.1,0-.3,0-.4,0-.2,0-.4,0-.6,0Z"/>
  <path class="st6" d="M297,182.2c-31.3,0-56.7-26-56.7-58,0-12.8,4-24.8,11.5-35,.3-.4.8-.7,1.3-.7h0c.5,0,1,.2,1.3.6l9.8,11.2c.5.6.6,1.5.2,2.1-4.1,6.5-6.3,14-6.3,21.8,0,22,17.5,39.9,38.9,39.9,2.7,0,5.4-.3,8.1-.9.1,0,.2,0,.4,0,.7,0,1.3.4,1.6,1l6.3,13.5c.2.5.2,1,0,1.5-.2.5-.6.8-1.1,1-4.9,1.4-10.1,2.1-15.2,2.1Z"/>
  <path class="st6" d="M253.2,90.2l9.8,11.2c-4.2,6.5-6.6,14.4-6.6,22.7,0,23,18.2,41.6,40.7,41.6,2.9,0,5.7-.3,8.5-.9l6.3,13.5c-4.7,1.3-9.7,2.1-14.8,2.1-30.4,0-55-25.2-55-56.3,0-12.7,4.1-24.5,11.1-33.9M253.2,86.7s0,0-.1,0c-1,0-2,.6-2.6,1.4-7.7,10.4-11.8,22.9-11.8,36,0,16,6.1,31,17.1,42.3,11,11.3,25.7,17.5,41.3,17.5,5.3,0,10.6-.7,15.7-2.2,1-.3,1.8-1,2.2-1.9.4-.9.4-2,0-3l-6.3-13.5c-.6-1.2-1.8-2-3.1-2-.2,0-.5,0-.7,0-2.6.6-5.2.8-7.8.8-20.5,0-37.2-17.1-37.2-38.1,0-7.4,2.1-14.6,6-20.8.8-1.3.7-3.1-.3-4.2l-9.8-11.2c-.7-.7-1.6-1.2-2.6-1.2Z"/>
  <path class="st6" d="M351.2,135.5c-.9,0-1.6-.7-1.7-1.5-3.3-25.4-10.4-43.5-20.9-53.8-.7-.6-.7-1.7-.1-2.4.3-.4.8-.6,1.3-.6.4,0,.7.1,1,.4,14.4,10.9,23,28.4,23,46.6,0,3.3-.3,6.7-.8,9.9-.1.8-.9,1.5-1.7,1.5h0Z"/>
  <path class="st6" d="M329.8,78.9c13.5,10.3,22.3,26.7,22.3,45.2,0,3.3-.3,6.5-.8,9.6-3.8-28.8-11.9-45.6-21.5-54.9M329.8,75.4c-1,0-2,.4-2.6,1.2-1.2,1.4-1.1,3.5.2,4.8,10.3,10,17.1,27.8,20.4,52.8.2,1.7,1.7,3,3.4,3h0c1.7,0,3.1-1.2,3.4-2.9.6-3.4.9-6.8.9-10.2,0-9.5-2.2-18.9-6.4-27.3-4.1-8.1-10-15.3-17.2-20.7-.6-.5-1.3-.7-2.1-.7Z"/>
  <path class="st6" d="M328.9,100.1c-.5,0-1-.2-1.4-.7-7.4-9.6-18.6-15.2-30.5-15.2-2.7,0-5.4.3-8.1.9-.1,0-.2,0-.4,0-.7,0-1.3-.4-1.6-1l-4.9-10.6-1.4-2.9c-.2-.5-.2-1,0-1.5.2-.5.6-.8,1.1-1,2.3-.7,4.8-1.2,7.3-1.6,2.6-.4,5.3-.6,8-.6,2.6,0,5.2.2,7.8.6.9.1,1.6.9,1.5,1.9,0,.4-.2.8-.5,1.1,10.5,4.5,18.8,13.9,24.7,28,.3.8,0,1.8-.7,2.2-.3.2-.6.2-.9.2Z"/>
  <path class="st6" d="M297,67.9c2.6,0,5.1.2,7.5.5-.2,0-.4,0-.6,0-2.4,0-4.7.2-6.9.5h0s0,0,0,0c11.4,2,23.4,9.6,31.8,29.4-7.4-9.6-19-15.8-31.9-15.8-2.9,0-5.7.3-8.5.9l-4.9-10.6h0s0,0,0,0l-1.4-2.9c2.3-.7,4.6-1.2,7-1.5,2.5-.4,5.1-.6,7.7-.6M297,64.4c-2.7,0-5.5.2-8.2.6-2.6.4-5.1.9-7.5,1.6-1,.3-1.8,1-2.2,1.9-.4.9-.4,2,0,2.9l1.4,2.9h0s4.9,10.6,4.9,10.6c.6,1.2,1.8,2,3.1,2,.2,0,.5,0,.7,0,2.6-.6,5.2-.8,7.8-.8,11.4,0,22.1,5.3,29.2,14.5.7.9,1.7,1.3,2.7,1.3.6,0,1.2-.2,1.8-.5,1.5-.9,2.1-2.8,1.4-4.4-4.1-9.8-9.4-17.4-15.8-22.8-2.6-2.2-5.4-4-8.3-5.5h0c.1-2-1.2-3.6-3-3.9-2.7-.4-5.4-.6-8-.6Z"/>
  <path class="st6" d="M339.7,158.5c-.5,0-1-.2-1.3-.6l-8.6-9.8c-.5-.6-.6-1.5-.2-2.1,3.1-4.9,5.1-10.3,5.9-16.1.1-.9.8-1.5,1.7-1.5h0c.9,0,1.6.6,1.7,1.5,1.2,8.1,2,17.1,2.5,26.8,0,.7-.4,1.4-1.1,1.7-.2,0-.4.1-.7.1Z"/>
  <path class="st6" d="M337.3,130.1c1.2,7.9,2,16.7,2.5,26.6l-8.6-9.8c3.2-5,5.3-10.7,6.2-16.8M337.3,126.6h0c-1.7,0-3.2,1.3-3.4,3-.8,5.5-2.7,10.7-5.7,15.4-.8,1.3-.7,3.1.3,4.2l8.6,9.8c.7.8,1.6,1.2,2.6,1.2.4,0,.9,0,1.3-.3,1.4-.6,2.2-1.9,2.2-3.4-.4-9.8-1.3-18.8-2.5-27-.3-1.7-1.7-3-3.4-3Z"/>
  <path class="st6" d="M281.2,146.3c-.3,0-.6,0-.8-.2l-4-2.3-10.9-6.5c-.6-.4-.9-1.1-.8-1.8.1-.7.7-1.3,1.4-1.4l7.1-1.5c.1,0,.2,0,.4,0,.5,0,1,.2,1.4.7l7.8,10.3c.5.7.5,1.6,0,2.2-.3.4-.8.6-1.3.6Z"/>
  <path class="st6" d="M273.4,134.3l7.8,10.3-4-2.3-10.9-6.5,7.1-1.5M273.4,130.7c-.2,0-.5,0-.7,0l-7.1,1.5c-1.4.3-2.5,1.4-2.7,2.9-.2,1.4.4,2.9,1.7,3.6l10.9,6.5h0s4,2.3,4,2.3c.5.3,1.1.4,1.7.4,1,0,1.9-.4,2.6-1.2,1.1-1.3,1.1-3.1.1-4.4l-7.8-10.3c-.7-.9-1.7-1.4-2.7-1.4Z"/>
  <path class="st6" d="M320.7,115.8c-.5,0-1-.2-1.4-.7l-7.8-10.3c-.5-.7-.5-1.6,0-2.2.3-.4.8-.6,1.3-.6.3,0,.6,0,.8.2l4,2.3,10.9,6.5c.6.4.9,1.1.8,1.8-.1.7-.7,1.3-1.4,1.4l-7.1,1.5c-.1,0-.2,0-.4,0Z"/>
  <path class="st6" d="M312.9,103.8l4,2.3,10.9,6.5-7.1,1.5-7.8-10.3M312.9,100.2c-1,0-1.9.4-2.6,1.2-1.1,1.3-1.1,3.1-.1,4.4l7.8,10.3c.7.9,1.7,1.4,2.7,1.4.2,0,.5,0,.7,0l7.1-1.5c1.4-.3,2.5-1.4,2.7-2.9.2-1.4-.4-2.9-1.7-3.6l-10.9-6.5h0s-4-2.3-4-2.3c-.5-.3-1.1-.4-1.7-.4Z"/>
  <path class="st6" d="M266.3,137.5c-.4,0-.8-.2-1.1-.4l-7.7-6.9c-.5-.4-.7-1-.6-1.6.1-.6.5-1.1,1.1-1.3l21.4-8c.2,0,.4-.1.6-.1.5,0,1,.2,1.3.6l8.9,10.1c.4.5.5,1.1.4,1.7-.2.6-.7,1-1.3,1.2l-22.7,4.8c-.1,0-.2,0-.4,0Z"/>
  <path class="st6" d="M280.1,120.8l8.9,10.1-15.6,3.3-7.1,1.5-7.7-6.9,21.4-8M280.1,117.3c-.4,0-.8,0-1.2.2l-21.4,8c-1.1.4-2,1.4-2.2,2.6-.2,1.2.2,2.5,1.1,3.3l7.7,6.9c.6.6,1.5.9,2.3.9.2,0,.5,0,.7,0l7.1-1.5,15.6-3.3c1.2-.3,2.2-1.1,2.6-2.3.4-1.2.1-2.5-.7-3.4l-8.9-10.1c-.7-.8-1.6-1.2-2.6-1.2Z"/>
  <path class="st6" d="M314,129.2c-.5,0-1-.2-1.3-.6l-8.9-10.1c-.4-.5-.5-1.1-.4-1.7.2-.6.7-1,1.3-1.2l15.6-3.3,7.1-1.5c.1,0,.2,0,.4,0,.4,0,.8.2,1.2.4l7.5,6.8c.3.2.5.6.5.9h0c.2,1-.3,1.9-1.1,2.2l-21.4,8c-.2,0-.4.1-.6.1Z"/>
  <path class="st6" d="M327.8,112.5l7.5,6.8h0c0,.1-21.4,8.1-21.4,8.1l-8.9-10.1,15.6-3.3,7.1-1.5M327.8,109c-.2,0-.5,0-.7,0l-7.1,1.5-15.6,3.3c-1.2.3-2.2,1.1-2.6,2.3-.4,1.2-.1,2.5.7,3.4l8.9,10.1c.7.8,1.6,1.2,2.6,1.2.4,0,.8,0,1.2-.2l21.4-8c1.6-.6,2.5-2.3,2.2-4h0c-.2-.9-.5-1.5-1.1-2l-7.5-6.8c-.6-.6-1.5-.9-2.3-.9Z"/>
  <path class="st6" d="M289,132.7c-.5,0-.9-.2-1.3-.6l-8.9-10.1-17.1-19.4c-.5-.6-.6-1.5-.2-2.1,6.1-9.5,15.8-16.4,26.6-18.7.1,0,.2,0,.4,0,.7,0,1.3.4,1.6,1l15,32.3c.3.7.2,1.4-.3,2l-14.6,15.2c-.3.3-.8.5-1.2.5h0Z"/>
  <path class="st6" d="M288.6,83.4l15,32.3-14.6,15.2-8.9-10.1-17.1-19.4c5.8-9,14.9-15.6,25.6-18M288.6,79.9c-.2,0-.5,0-.7,0-11.3,2.4-21.4,9.5-27.7,19.5-.8,1.3-.7,3.1.3,4.2l17.1,19.4,8.9,10.1c.6.7,1.6,1.2,2.5,1.2h0c.9,0,1.8-.4,2.5-1.1l14.6-15.2c1-1.1,1.3-2.6.6-3.9l-15-32.3c-.6-1.2-1.8-2-3.1-2Z"/>
  <path class="st6" d="M305.5,166.6c-.7,0-1.3-.4-1.6-1l-15-32.3c-.3-.7-.2-1.4.3-2l14.6-15.2c.3-.3.8-.5,1.2-.5h0c.5,0,.9.2,1.3.6l8.9,10.1,17.1,19.4c.5.6.6,1.5.2,2.1-6.2,9.7-15.7,16.3-26.7,18.7-.1,0-.2,0-.4,0Z"/>
  <path class="st6" d="M305.1,117.3l8.9,10.1,17.1,19.4c-5.8,9-14.9,15.6-25.6,18l-15-32.3,14.6-15.2M305.1,113.8c-.9,0-1.8.4-2.5,1.1l-14.6,15.2c-1,1-1.3,2.6-.6,3.9l15,32.3c.6,1.2,1.8,2,3.1,2,.2,0,.5,0,.7,0,11.4-2.5,21.3-9.4,27.7-19.5.8-1.3.7-3.1-.3-4.2l-17.1-19.4-8.9-10.1c-.6-.7-1.6-1.2-2.5-1.2h0Z"/>
  <path class="st6" d="M337.9,124.2c0,22.9-18.3,41.5-40.9,41.5-22.6,0-40.9-18.6-40.9-41.5,0-22.9,18.3-41.5,40.9-41.5,22.6,0,40.9,18.6,40.9,41.5Z"/>
  <path class="st10" d="M351.2,133.8c-3.8-28.8-11.9-45.6-21.5-54.9-7.2-5.5-15.8-9.2-25.2-10.5-2.6,0-5.1.2-7.5.5,11.4,2,23.4,9.6,31.8,29.4,5.5,7.1,8.8,16,8.8,25.8,0,2-.1,4-.4,6,1.2,7.9,2,16.7,2.5,26.6l1.2,1.4c5.2-7,8.8-15.3,10.3-24.3Z"/>
  <path class="st2" d="M256.4,124.1c0-8.4,2.4-16.2,6.6-22.7l-9.8-11.2c-7,9.4-11.1,21.2-11.1,33.9,0,31.1,24.6,56.3,55,56.3,5.1,0,10.1-.7,14.8-2.1l-6.3-13.5c-2.7.6-5.6.9-8.5.9-22.5,0-40.7-18.6-40.7-41.6Z"/>
  <path class="st2" d="M351.2,133.8c.5-3.1.8-6.4.8-9.6,0-18.5-8.8-35-22.3-45.2,9.5,9.3,17.7,26.1,21.5,54.9Z"/>
  <path class="st2" d="M297.1,68.9h0s0,0,0,0c2.4-.4,4.9-.6,7.5-.5-2.5-.3-5-.5-7.5-.5-2.6,0-5.2.2-7.7.6-2.4.3-4.8.8-7,1.5l1.4,2.9h0s0,0,0,0l4.9,10.6c2.7-.6,5.6-.9,8.5-.9,12.9,0,24.5,6.2,31.9,15.8-8.4-19.9-20.4-27.5-31.8-29.4Z"/>
  <path class="st2" d="M331.1,146.9l8.6,9.8c-.4-9.9-1.3-18.7-2.5-26.6-.9,6.1-3,11.8-6.2,16.8Z"/>
  <polygon class="st7" points="277.2 142.3 281.2 144.5 273.4 134.3 266.3 135.7 277.2 142.3"/>
  <polygon class="st7" points="316.9 106 312.9 103.8 320.7 114 327.8 112.5 316.9 106"/>
  <polygon class="st5" points="280.1 120.8 258.6 128.9 266.3 135.7 273.4 134.3 289 131 280.1 120.8"/>
  <polygon class="st5" points="335.3 119.3 327.8 112.5 320.7 114 305.1 117.3 314 127.5 335.4 119.5 335.3 119.3"/>
  <path class="st2" d="M288.6,83.4c-10.7,2.3-19.8,8.9-25.6,18l17.1,19.4,8.9,10.1,14.6-15.2-15-32.3Z"/>
  <path class="st2" d="M314,127.5l-8.9-10.1-14.6,15.2,15,32.3c10.7-2.3,19.8-8.9,25.6-18l-17.1-19.4Z"/>
</svg>